<?xml version="1.0" standalone="no"?>
<!DOCTYPE svg PUBLIC "-//W3C//DTD SVG 1.1//EN" "http://www.w3.org/Graphics/SVG/1.1/DTD/svg11.dtd" >
<svg xmlns="http://www.w3.org/2000/svg">
<metadata>Generated by IcoMoon</metadata>
<defs>
<font id="icomoon" horiz-adv-x="1024">
<font-face units-per-em="1024" ascent="960" descent="-64" />
<missing-glyph horiz-adv-x="1024" />
<glyph unicode="&#x20;" horiz-adv-x="512" d="" />
<glyph unicode="&#xe900;" d="M0 721.904c5.456 15.568 17.104 21.808 32.848 25.008 156.272 31.92 312.416 64.368 468.576 96.752 12.976 2.688 24.656 1.344 33.664-9.344 7.44-8.88 9.344-19.024 5.072-29.936-3.776-9.648-10.848-15.92-20.912-18.368-9.056-2.192-18.144-4.784-27.376-5.616-8.608-0.784-9.76-4.816-9.744-12.32 0.224-114.048 0.16-228.112 0.16-342.16 0-3.952 0-7.952 0-12.656-35.408 0-70.224 0-106.064 0 0 12.608 0 24.864 0 37.104 0 26.336 0.064 52.672-0.016 79.024-0.064 20.976-11.664 33.040-32.752 33.152-48.016 0.256-96.032 0.224-144.064 0.016-21.6-0.096-33.216-12.128-33.264-33.664-0.064-38.336-0.016-76.656-0.016-115.664-35.44 0-70.272 0-105.936 0 0 92.336 0 184.256 0 277.936-23.936-6.224-47.552-12.448-60.176 16.72 0 4.688 0 9.344 0 14.016z" />
<glyph unicode="&#xe901;" d="M1024.592 495.776c-6.912-17.568-20-23.424-38.496-23.36-143.712 0.4-287.408 0.208-431.136 0.208-3.92 0-7.824 0-12.192 0 0 40.352 0 79.568 0 120.080 4.288 0 8.16 0 12.016 0 143.728 0 287.424-0.192 431.152 0.224 18.448 0.064 31.568-5.648 38.656-23.12 0-24.672 0-49.344 0-74.032z" />
<glyph unicode="&#xe902;" d="M648.368-17.248c-36.080 0-70.608 0-105.6 0 0 143.168 0 285.76 0 429.088 140.416 0 280.56 0 421.776 0 0-3.84 0-7.424 0-10.992 0-127.392 0-254.784 0-382.176 0-25.312-11.184-36.496-36.64-36.544-22-0.032-44.016 0.128-66.032 0.208-0.624 0-1.248 0.336-3.392 1.008 0 3.008 0 6.512 0 10.016 0 35.024 0.048 70.016-0.016 105.040-0.032 22.176-11.648 33.744-34.016 33.76-47.376 0.080-94.688 0.080-142.048 0-22.336-0.016-34-11.664-34.032-33.76-0.064-34.704-0.016-69.376-0.016-104.048 0.016-3.6 0.016-7.264 0.016-11.6zM753.456 312.304c-14.688 0-29.376 0.256-44.032-0.048-17.632-0.32-30.448-12.432-30.992-28.752-0.544-16.24 11.664-30.336 29.008-30.784 30.64-0.8 61.36-0.816 92 0 17.392 0.448 29.552 14.528 29.008 30.784-0.56 16.384-13.312 28.432-31.008 28.752-14.64 0.304-29.344 0.048-43.984 0.048z" />
<glyph unicode="&#xe903;" d="M60.672 352.048c140.384 0 280.32 0 420.928 0 0-123.008 0-245.872 0-369.28-34.768 0-69.312 0-105.376 0 0 3.6 0 7.088 0 10.576 0 35.024 0.032 70.016-0.016 105.040-0.032 22.192-11.648 33.76-34 33.776-47.344 0.112-94.72 0.080-142.048 0-22.336-0.016-34-11.648-34.048-33.744-0.048-34.704-0.016-69.376-0.016-104.048 0-3.616 0-7.264 0-11.184-2.192-0.384-3.776-0.992-5.344-0.992-22.688-0.064-45.36-0.304-68.016 0.048-19.952 0.272-32.608 12.416-32.624 31.424-0.112 110.736-0.048 221.424-0.016 332.144-0.032 1.92 0.336 3.84 0.576 6.24z" />
<glyph unicode="&#xe904;" d="M315.872 501.744c0-29.744 0-58.672 0-88.416-29.648 0-59.056 0-89.12 0 0 29.296 0 58.432 0 88.416 29.392 0 58.8 0 89.12 0z" />
<glyph unicode="&#xe905;" d="M315.648-17.248c-30.080 0-59.28 0-88.992 0 0 29.696 0 58.88 0 88.768 29.648 0 59.040 0 88.992 0 0-29.52 0-58.704 0-88.768z" />
<glyph unicode="&#xe906;" d="M797.936-17.248c-30.112 0-59.312 0-89.008 0 0 29.712 0 58.88 0 88.768 29.648 0 59.056 0 89.008 0 0-29.52 0-58.704 0-88.768z" />
<glyph unicode="&#xe907;" d="M753.456 312.304c14.64 0 29.344 0.272 43.984-0.048 17.68-0.32 30.432-12.352 31.008-28.752 0.544-16.256-11.616-30.336-29.008-30.784-30.64-0.816-61.36-0.8-92 0-17.344 0.432-29.552 14.544-29.008 30.784 0.528 16.32 13.36 28.432 30.992 28.752 14.656 0.288 29.344 0.048 44.032 0.048z" />
<glyph unicode="&#xe908;" glyph-name="9113" d="M237.312 837.632c91.232 0 182.464 0 273.696 0h138.4c46.496 0 93.008-0.032 139.504 0.016 16.848 0.016 21.344 4.48 21.408 20.928 0.032 15.376 0.064 30.752 0 46.144-0.096 15.344-4.816 20.128-19.84 20.176-15.744 0.048-31.44 0.016-47.216 0.016-168.816 0-337.632 0-506.464 0-19.056 0-22.928-3.76-22.96-22.288-0.032-13.984-0.016-27.968 0-41.952 0-19.296 3.776-23.024 23.472-23.040zM22.576 301.872c-0.288-14.656-0.144-29.312-0.080-44 0.080-16.624 4.592-21.184 21.024-21.2 61.776-0.016 123.568 0 185.344 0h10.112v81.36c-1.696 0.464-2.352 0.832-3.008 0.832-65.632 0.048-131.248 0.176-196.864 0.032-11.344-0.016-16.304-5.376-16.528-17.024zM45.392 568.704c60.752-0.032 121.504 0 182.272 0h11.392v82.384c-4.304 0.192-7.712 0.464-11.136 0.464-60.752 0.032-121.52 0.032-182.288 0-19.136 0-23.12-4.080-23.152-23.488-0.016-12.208-0.032-24.432 0-36.656 0.064-18.496 4.272-22.704 22.912-22.704zM238.528 536.608h-154.144v-185.408h154.128v185.408zM177.136 403.68c-0.256-10.592-6.608-17.456-15.456-17.568-8.848-0.096-15.792 6.736-15.92 17.216-0.336 26.528-0.32 53.072-0.016 79.616 0.112 10.656 6.672 17.408 15.584 17.52 9.248 0.144 15.632-6.912 15.84-18.208 0.256-13.264 0.064-26.544 0.064-39.808-0.032-12.896 0.192-25.84-0.096-38.768zM939.68 536.432h-154.064v-185.408h154.064v185.408zM878.528 443.504c0-12.928 0.192-25.824-0.064-38.752-0.256-11.296-6.56-18.48-15.68-18.624-9.152-0.128-15.712 7.008-15.808 18.272-0.224 26.192-0.224 52.368 0.032 78.576 0.128 10.624 6.528 17.424 15.408 17.52s15.664-6.704 15.968-17.168c0.4-13.28 0.096-26.544 0.096-39.808 0.016-0.016 0.016-0.016 0.048-0.016zM1004.784-13.536c-3.664 0.864-7.664 0.432-11.472 0.432-17.376 0.048-34.72 0.032-53.344 0.032v217.344h-155.632v-216.592h-31.44v817.92h-482.032v-817.872h-31.792v216.8h-155.36v-217.6h-52.944c-16.64 0-24.512-5.296-24.176-16.272 0.336-10.512 7.76-15.2 24.064-15.2 320.944-0.016 641.872-0.016 962.816 0 3.504 0 7.088-0.336 10.464 0.24 8.288 1.456 13.184 6.704 13.472 15.008 0.256 8.384-4.528 13.888-12.624 15.76zM177.152 54.352c-0.24-11.536-6.368-18.096-16-17.904-9.2 0.176-15.312 6.544-15.44 17.536-0.288 26.208-0.288 52.416 0 78.64 0.112 11.504 6.576 18.176 16.096 17.984 9.44-0.176 15.184-6.912 15.376-18.64 0.208-12.944 0.048-25.872 0.048-38.8-0.016-12.928 0.192-25.872-0.080-38.816zM595.632-2.848c0-3.040-0.336-6.096-0.528-9.664h-166.144c-0.176 3.968-0.464 7.376-0.464 10.768-0.016 45.744-0.048 91.504 0 137.248 0.016 22.288 8.112 30.464 30.16 30.512 35.616 0.048 71.248 0.048 106.88 0 21.632-0.048 30.064-8.304 30.096-29.536 0.048-46.432 0-92.88 0-139.328zM692 266.496c-0.096-17.216-4.56-21.792-21.712-21.792-94.336-0.032-188.688-0.016-283.040-0.016-11.888 0-23.76-0.096-35.648 0.048-14.304 0.128-19.296 5.2-19.44 19.792-0.128 12.24-0.144 24.464 0 36.688 0.16 14.544 5.152 19.6 19.568 19.616 53.472 0.064 106.944 0.016 160.4 0.016 52.752 0 105.536 0.016 158.32 0 17.056 0 21.504-4.512 21.568-21.84 0.016-10.832 0.048-21.68-0.016-32.512zM692 410.432c-0.064-17.152-4.816-22.048-21.664-22.176-12.256-0.080-24.464-0.016-36.72-0.016-92.256 0-184.528 0-276.8 0.016-20.672 0-24.688 3.968-24.704 24.352 0 9.776-0.016 19.584 0 29.376 0.048 18.512 4.496 23.072 22.704 23.088 52.768 0.016 105.552 0 158.336 0 52.064 0 104.128 0.016 156.224 0 17.872-0.016 22.56-4.592 22.624-22.16 0.032-10.8 0.032-21.632 0-32.48zM691.968 551.632c-0.224-13.824-5.472-19.168-19.088-19.168-107.28-0.064-214.576-0.064-321.856 0-13.136 0-18.592 5.312-18.832 18.32-0.256 12.576-0.16 25.168-0.032 37.744 0.128 15.136 5.024 20.144 20.128 20.16 53.472 0.080 106.944 0.032 160.416 0.032 52.432 0 104.848 0.032 157.248-0.016 17.808-0.016 22-4.352 22.064-22.48 0.016-11.536 0.112-23.056-0.048-34.592zM670.368 676.368c-53.12-0.064-106.256-0.016-159.36-0.016-52.064 0-104.144-0.032-156.224 0-18.448 0.016-22.64 4.336-22.672 23.008-0.016 11.552-0.16 23.072 0.048 34.608 0.24 13.152 5.616 18.768 18.432 18.768 107.632 0.080 215.28 0.080 322.912 0 12.816 0 18.224-5.616 18.432-18.768 0.256-11.872 0.096-23.76 0.064-35.632-0.064-17.264-4.56-21.936-21.632-21.968zM862.096 36.448c-9.184 0.288-14.912 6.624-15.12 17.696-0.256 13.28-0.064 26.56-0.064 39.824 0 12.944-0.192 25.856 0.064 38.8 0.224 10.928 6.064 17.536 15.088 17.824 9.44 0.336 16.224-6.48 16.336-17.776 0.32-26.192 0.32-52.416 0.032-78.624-0.144-11.36-6.752-18-16.336-17.744zM785.44 651.568v-82.864h48.592c48.88 0 97.776-0.048 146.656 0.016 15.968 0.032 20.816 4.832 20.944 20.464 0.096 13.28 0.064 26.544 0.032 39.808-0.064 18.4-4.288 22.56-23.056 22.576-60.752 0.016-121.504 0-182.256 0h-10.912zM785.312 237.84c1.088-0.464 1.712-0.976 2.336-0.976 66.064-0.080 132.16-0.224 198.256-0.064 9.872 0.016 15.312 5.776 15.6 15.968 0.368 14.672 0.16 29.376 0.128 44.048-0.032 18.304-3.872 22.16-22.128 22.192-61.184 0.032-122.368 0.016-183.6-0.032-3.376 0-6.752-0.32-10.592-0.48v-80.656z" />
<glyph unicode="&#xe909;" glyph-name="apartment" d="M688.928 11.968c22.928 0 44.464 0 68.208 0 0-27.088 0-50.576 0-75.968-139.664 0-279.264 0-419.008 0v76.528c15.376 0 29.632 0 46.336 0 0 306.24 0 611.664 0 922.736 58.624-35.088 112.128-67.040 165.584-99.088 38.064-22.816 75.424-46.944 114.352-68.176 18.512-10.096 25.104-21.6 25.008-42.816-0.8-225.952-0.48-451.92-0.48-677.872 0-10.544 0-21.104 0-35.344zM425.168 152.96c30.848 0 59.92 0 89.664 0 0 30.608 0 59.024 0 88.448-30.736 0-59.808 0-89.664 0 0-30.528 0-58.848 0-88.448zM424.816 314.64c31.92 0 60.432 0 89.76 0 0 30.512 0 58.96 0 87.888-31.056 0-60.128 0-89.76 0 0-30.352 0-58.032 0-87.888zM514.112 729.168c-30.832 0-59.232 0-89.136 0 0-29.808 0-57.504 0-87.696 31.264 0 60.336 0 89.136 0 0 30.96 0 59.328 0 87.696zM515.168 568.336c-30.64 0-59.84 0-90.336 0 0-30.592 0-59.024 0-89.424 30.608 0 59.808 0 90.336 0 0 29.696 0 57.392 0 89.424zM557.888 152.256c30.208 0 58.592 0 88.976 0 0 31.792 0 60.256 0 88.928-30.88 0-59.92 0-88.976 0 0-30.816 0-59.152 0-88.928zM646.096 728.8c-30.896 0-59.264 0-87.968 0 0-30.832 0-59.088 0-88.176 30.608 0 59.152 0 87.968 0 0 30.864 0 60.016 0 88.176zM647.104 568.784c-29.952 0-58.4 0-89.488 0 0-31.392 0-59.904 0-89.616 30.752 0 59.936 0 89.488 0 0 30.832 0 59.408 0 89.616zM647.152 403.12c-31.76 0-60.032 0-89.632 0 0-30.352 0-58.576 0-88.608 30.496 0 59.52 0 89.632 0 0 30.24 0 58.544 0 88.608z" />
<glyph unicode="&#xe90a;" glyph-name="bulk-units" d="M898.272 37.328c0-23.216 0-42.16 0-64.24-8.768-0.464-16.992-1.296-25.232-1.296-261.040-0.064-522.112-0.080-783.168-0.032-31.776 0-49.328 29.2-31.632 55.344 4.656 6.864 19.2 9.744 29.232 9.792 133.984 0.64 267.968 0.416 401.968 0.416 126.208 0 252.416 0 378.624 0 9.28 0.016 18.576 0.016 30.208 0.016zM330.8 556.464c0-27.568 0-53.088 0-80.16 32.96 0 62.8 0 95.76 0 0 25.472 0 50.848 0 79.872 24.192 0 45.6 1.728 66.416-1.024 6.352-0.848 15.664-13.888 15.856-21.52 1.296-60.432 0.624-120.912 0.784-181.376 0.032-16.256-7.712-23.52-23.808-23.472-70.832 0.16-141.648 0.176-212.464-0.016-16.128-0.032-23.552 6.928-23.456 23.456 0.336 60.464 0.304 120.928 0.016 181.392-0.048 14.896 6 22.832 21.216 22.864 18.848 0.016 37.696-0.016 59.68-0.016zM477.504 296.88c0-28.848 0-53.648 0-80.080 32.032 0 61.84 0 95.008 0 0 25.344 0 50.672 0 79.776 24.352 0 45.712 1.712 66.512-1.024 6.256-0.832 15.392-13.952 15.568-21.616 1.28-60.432 0.544-120.912 0.816-181.376 0.080-16.496-7.664-23.424-23.664-23.392-70.832 0.144-141.664 0.16-212.48 0-16.096-0.048-23.664 6.992-23.6 23.44 0.272 60.448 0.24 120.928 0.016 181.392-0.064 14.848 6.272 22.8 21.392 22.848 18.848 0.080 37.728 0.032 60.432 0.032zM184.928 296.912c0-28.64 0-53.472 0-80.016 32.752 0 63.28 0 96.64 0 0 26.16 0 51.632 0 75.584 4.24 2.272 5.68 3.664 7.168 3.696 88.448 1.712 73.92 8.208 74.912-70 0.544-43.216-0.336-86.432 0.256-129.648 0.288-19.936-8.032-27.744-27.968-27.568-68.272 0.624-136.56 0.656-204.832 0-20.16-0.192-27.52 7.712-27.248 27.728 0.8 57.888 0.672 115.808 0.064 173.68-0.192 18.384 6.096 27.568 25.472 26.688 17.056-0.752 34.208-0.144 55.536-0.144zM606.848 556.48c0-28.272 0-53.12 0-78.784 6.928-1.232 12.096-3.616 16.64-2.736 41.392 7.904 64.544-9.712 79.264-48.496 12.336-32.512 31.568-62.4 49.872-97.552-67.2 0-129.12-0.688-190.992 0.96-6.896 0.176-19.056 13.376-19.248 20.8-1.568 61.344-1.664 122.752 0.128 184.080 0.224 7.456 13.056 18.096 22.016 20.848 11.808 3.616 25.552 0.88 42.32 0.88zM769.248 296.928c0-28.256 0-53.712 0-83.36 44.336 15.216 53.072-17.472 66.656-43.792 16.48-32 33.056-63.952 52.016-100.56-51.024 0-97.888 0.064-144.736-0.016-58.912-0.112-56.16-4.896-55.904 56.112 0.208 47.456 0.544 94.896-0.192 142.336-0.32 20.496 6.688 30.832 28.512 29.488 16.304-1.024 32.736-0.208 53.648-0.208zM394.384 591.952c30.496 56.32 60.496 111.504 90.272 166.816 8.912 16.56 16.224 30.048 11.008 53.472-8.016 36.192-2.112 75.472-2.112 115.52 20.848 0 40.176 0 64.176 0-5.744-42.624 10.288-86.016-7.92-128.96-2.24-5.264 2.208-14.416 5.488-20.768 27.28-52.944 55.056-105.632 82.576-158.464 4.688-8.992 8.832-18.256 13.6-28.192-23.12-7.28-36.208-2.096-46.528 19.392-24.192 50.352-51.184 99.36-79.632 153.856-18.576-33.872-34.944-63.584-51.216-93.36-10.752-19.696-22.64-38.896-31.712-59.344-9.216-20.8-22.272-29.616-48-19.968zM700.592 556.48c30.976 0 54.4 1.584 77.44-0.848 8.176-0.88 21.728-11.392 21.888-17.792 1.616-63.904 1.056-127.856 0.656-191.824-0.032-4.336-3.824-8.64-7.312-16-5.328 6.416-9.664 10.16-12.128 14.88-23.728 45.040-49.52 89.248-69.632 135.888-9.264 21.52-7.296 47.888-10.912 75.696zM852.080 208.992c29.616 24.192 5.088 57.36 19.568 87.76 16.912 0 37.456 1.696 57.408-0.976 6.704-0.896 16.88-12.848 17.008-19.92 1.344-62.112 1.168-124.256 0.208-186.368-0.096-6.576-8.224-13.040-12.624-19.584-5.424 4.512-12.864 7.952-15.952 13.696-22.432 41.68-44 83.84-65.616 125.392zM932.704 41.824c22.352-5.008 44.736-4.816 59.216-15.392 7.552-5.52 7.344-38.752-0.256-44.176-14.608-10.384-36.944-9.856-58.976-14.464 0.016 26.256 0.016 46.272 0.016 74.032z" />
<glyph unicode="&#xe90b;" d="M528.912 783.76c38.576 6.224 38.64 6.224 37.424 41.472-1.28 37.12-2.336 74.256-4.272 111.328-0.576 10.96 1.648 15.408 13.712 15.168 35.312-0.72 70.656-0.272 107.424-0.272 0-22.176 0-45.264 0-70.128 19.216-0.768 37.232-0.784 55.056-2.592 6.496-0.656 14.208-4.048 18.608-8.768 82-87.68 163.296-176 245.536-263.456 11.632-12.352 1.792-21.184 0.064-31.616-1.632-9.68-9.44-8.32-16.224-8.528-10.784-0.352-21.584-0.928-32.352-0.864-7.472 0.048-10.864-2.32-10.8-10.48 0.336-34.112 0.304-68.24 0.048-102.352-0.064-7.568 3.088-9.6 10.144-9.408 14.976 0.4 29.952 0.128 43.008 0.128 0-26.032 0.576-50.944-0.16-75.808-1.008-34.976-3.488-69.872-4.32-104.848-0.272-11.28-4.016-14.56-15.008-15.056-81.968-3.744-163.92-7.872-245.84-12.464-10.032-0.592-20.624-3.024-29.68-7.312-197.056-93.232-394-186.768-590.784-280.608-9.568-4.56-15.104-4.72-20.992 4.784-6.304 10.192-14.128 19.408-22.336 30.464 5.12 2.816 9.008 5.12 13.040 7.184 33.136 16.72 66.192 33.632 99.536 49.968 7.472 3.664 10.992 7.664 10.912 16.528-0.416 56.16-0.496 112.32 0.032 168.432 0.096 10.752-3.84 12.976-13.536 12.976-37.568-0.064-75.136 0.56-112.704 0.912-4.24 0.064-8.48 0-13.696 0-0.256 4.32-0.768 7.6-0.608 10.848 2.896 57.776 6.080 115.568 8.624 173.376 0.416 9.408 4.304 11.68 12.656 11.536 18.48-0.32 36.976-0.096 56.288-0.096 0 45.152 0 88.8 0 135.312-14.672-15.392-27.616-28.944-41.376-43.36-15.952 17.232-31.344 33.808-47.92 51.696 9.056 10.336 20 22.992 31.088 35.488 80.592 90.704 161.264 181.344 241.696 272.192 5.6 6.336 11.12 9.392 19.888 9.008 57.808-2.528 115.648-4.784 173.488-6.464 10.944-0.32 14.608-3.632 15.408-14.8 2.080-29.632 5.776-59.136 8.928-89.52zM429.824 439.984c54.96 0 108.512 0 162.896 0 0 43.104 0.208 84.080-0.272 125.056-0.064 4-3.408 8.688-6.48 11.824-74.128 76.064-148.416 151.952-222.736 227.824-2.304 2.336-5.040 4.224-7.84 6.528-2.208-1.984-3.92-3.28-5.36-4.832-51.152-54.416-102.384-108.752-153.216-163.488-3.312-3.552-4.992-9.984-4.944-15.056 0.592-59.984 1.952-120 2.336-180 0.080-10.88 4.144-12.976 13.712-12.688 31.504 0.88 63.008 1.024 94.512 1.632 3.28 0.032 6.528 0.912 10.224 1.472-2.848 53.328-5.664 105.696-8.528 159.344 43.552-3.216 84.784-6.352 126.032-9.28 8.56-0.624 7.664-6.288 7.328-12.048-1.856-31.024-3.696-62.064-5.488-93.088-0.816-14.512-1.472-29.040-2.176-43.2zM540.48 280.448c0.336 5.28 0.752 9.056 0.752 12.848 0.064 28.496-0.528 57.008 0.336 85.472 0.336 11.84-3.76 14.32-14.848 14.288-131.264-0.336-262.56-0.224-393.824-0.256-4.608 0-9.2-0.4-15.184-0.688 1.408-32.784 2.512-64.224 4.608-95.536 0.16-2.4 7.296-6.128 11.28-6.224 131.648-3.536 263.296-6.688 394.944-9.904 3.728-0.096 7.472 0 11.936 0zM262 81.264c19.456 9.712 36.144 18.464 53.2 26.368 7.456 3.472 9.616 8.4 9.488 16.224-0.368 24.128-0.112 48.256-0.112 72.336 0 12.848 0 25.664 0 39.024-22.448 0-43.216 0-62.576 0 0-51.264 0-101.392 0-153.952zM559.232 230.48c-0.192 1.152-0.352 2.336-0.544 3.504-56.272 0-112.544 0-170.208 0 1.92-28.192 3.808-56.16 5.872-86.336 56.576 28.4 110.72 55.616 164.88 82.832zM687.024 442.112c24.336 0 48.528 0 70.656 0 0 31.824 0.144 62.304-0.256 92.784-0.032 2.416-3.52 6.752-5.648 6.912-21.312 1.536-42.688 2.368-64.768 3.472 0.016-35.28 0.016-68.768 0.016-103.168zM814.832 442.8c21.040 0 40.336-0.192 59.584 0.288 2.112 0.064 5.888 4.032 5.92 6.256 0.432 26.272 0.448 52.56 0.080 78.848-0.048 2.464-3.296 6.864-5.344 7.024-18.224 1.552-36.48 2.336-56.112 3.44-1.424-33.088-2.752-63.84-4.128-95.856z" />
<glyph unicode="&#xe90c;" d="M429.824 439.984c0.704 14.16 1.36 28.688 2.192 43.216 1.776 31.024 3.632 62.064 5.488 93.088 0.336 5.76 1.232 11.424-7.328 12.048-41.248 2.928-82.48 6.064-126.032 9.28 2.864-53.664 5.68-106.016 8.528-159.344-3.68-0.56-6.944-1.44-10.224-1.472-31.504-0.592-63.008-0.752-94.512-1.632-9.568-0.288-13.632 1.808-13.712 12.688-0.384 60-1.744 120-2.336 180-0.048 5.072 1.632 11.52 4.944 15.056 50.832 54.736 102.048 109.056 153.216 163.488 1.456 1.552 3.152 2.848 5.36 4.832 2.784-2.32 5.536-4.192 7.84-6.528 74.32-75.872 148.608-151.76 222.736-227.824 3.072-3.136 6.416-7.824 6.48-11.824 0.464-40.976 0.272-81.952 0.272-125.056-54.4-0.016-107.952-0.016-162.912-0.016z" />
<glyph unicode="&#xe90d;" d="M540.48 280.448c-4.464 0-8.224-0.096-11.952 0-131.664 3.216-263.312 6.368-394.944 9.904-3.984 0.096-11.12 3.808-11.28 6.224-2.096 31.312-3.184 62.752-4.608 95.536 5.984 0.288 10.576 0.688 15.184 0.688 131.28 0.032 262.56-0.096 393.824 0.256 11.072 0.032 15.184-2.432 14.848-14.288-0.864-28.464-0.272-56.976-0.336-85.472 0.016-3.776-0.4-7.568-0.736-12.848z" />
<glyph unicode="&#xe90e;" d="M262 81.264c0 52.56 0 102.688 0 153.968 19.36 0 40.128 0 62.576 0 0-13.376 0-26.192 0-39.024 0-24.096-0.272-48.224 0.112-72.336 0.128-7.808-2.032-12.752-9.488-16.224-17.072-7.92-33.744-16.656-53.2-26.384z" />
<glyph unicode="&#xe90f;" d="M559.232 230.48c-54.16-27.216-108.32-54.432-164.88-82.848-2.064 30.192-3.952 58.16-5.872 86.336 57.664 0 113.936 0 170.208 0 0.192-1.136 0.352-2.32 0.544-3.488z" />
<glyph unicode="&#xe910;" d="M687.024 442.112c0 34.4 0 67.888 0 103.168 22.080-1.088 43.456-1.936 64.768-3.472 2.128-0.16 5.616-4.48 5.648-6.912 0.384-30.48 0.256-60.976 0.256-92.784-22.128 0-46.32 0-70.672 0z" />
<glyph unicode="&#xe911;" d="M814.832 442.8c1.376 32.016 2.704 62.768 4.128 95.856 19.632-1.088 37.888-1.888 56.112-3.44 2.048-0.176 5.296-4.56 5.344-7.024 0.368-26.304 0.352-52.576-0.080-78.848-0.032-2.224-3.808-6.192-5.92-6.256-19.264-0.48-38.544-0.288-59.584-0.288z" />
<glyph unicode="&#xe912;" d="M4.87 1.438c0 13.236 0 25.393 0 38.611 23.71 0 47.090 0 71.358 0 0 272.587 0 544.119 0 816.55 255.609 0 510.312 0 766.593 0 0-6.537 0.004-13.226-0.002-19.917-0.020-29.694 0.172-59.392-0.215-89.082-0.1-7.737 1.671-11.1 10.183-10.66 13.216 0.684 26.495 0.18 40.987 0.18 0 10.883 0 20.906 0 31.683 41.97 0 82.694 0 124.084 0 0-113.234 0-226.372 0-340.24-40.792 0-81.523 0-123.427 0 0 12.339 0 24.449 0 37.218-17.381 0-33.61 0-50.766 0 0-141.404 0-282.78 0-425.314 31.478 0 62.675 0 94.319 0 0-13.582 0-26.003 0-39.029-311.044 0-621.484 0-933.114 0zM239.108 462.973c9.871-23.779 27.789-40.847 56.121-40.628 28.189 0.219 45.799 17.619 56.394 43.317 10.396-25.807 27.707-42.629 55.14-43.295 29.016-0.705 47.084 16.857 58.309 43.436 10.158-26.042 27.693-42.625 55.032-43.442 28.766-0.86 46.858 16.486 58.327 42.865 11.444-26.313 29.266-43.446 57.706-42.836 28.418 0.612 45.89 18.041 55.878 44.212 1.298-3.248 2.314-6.132 3.582-8.901 9.945-21.713 34.038-37.229 55.259-35.647 24.771 1.843 46.895 18.946 53.238 42.531 1.626 6.050 1.665 13.992-0.928 19.479-21.815 46.17-44.501 91.931-66.648 137.945-2.443 5.081-5.308 6.803-10.856 6.799-171.6-0.135-343.2-0.137-514.8 0.008-5.888 0.004-9.066-1.796-11.842-7.121-24.074-46.213-48.534-92.226-72.651-138.418-1.767-3.385-3.029-7.944-2.349-11.547 4.17-22.161 17.277-37.687 38.027-45.857 19.704-7.756 38.732-4.375 54.43 9.587 8.817 7.842 15.249 18.358 22.63 27.513zM344.381 35.94c0.213 3.14 0.508 5.462 0.508 7.782 0.023 80.126 0.096 160.254-0.127 240.378-0.020 7.045-1.255 14.301-3.211 21.090-11.885 41.206-53.080 65.485-99.527 59.032-41.148-5.718-71.543-40.483-71.631-82.606-0.166-78.762-0.045-157.524-0.008-236.288 0-2.97 0.371-5.939 0.6-9.388 57.823 0 114.991 0 173.396 0zM420.975 127.072c122.657 0 244.21 0 365.715 0 0 77.212 0 153.698 0 229.88-122.431 0-243.964 0-365.715 0 0-76.923 0-152.912 0-229.88zM197.624 671.699c181.092 0 361.017 0 540.998 0 0 49.232 0 97.749 0 146.217-180.908 0-360.819 0-540.998 0 0-49.078 0-97.389 0-146.217zM893.68 705.939c-14.615 0-27.89-0.393-41.128 0.154-7.547 0.311-10.127-1.954-9.968-9.732 0.469-22.833 0.184-45.685 0.193-68.528 0.014-40.233-0.082-80.468 0.256-120.699 0.027-3.078 2.978-8.706 4.776-8.79 15.178-0.711 30.405-0.406 45.871-0.406 0 69.888 0 138.285 0 208.001z" />
<glyph unicode="&#xe913;" d="M239.108 462.973c-7.381-9.155-13.814-19.669-22.628-27.511-15.698-13.959-34.726-17.342-54.43-9.587-20.75 8.169-33.858 23.695-38.027 45.857-0.68 3.602 0.584 8.161 2.349 11.547 24.117 46.193 48.577 92.205 72.651 138.418 2.773 5.325 5.954 7.125 11.842 7.121 171.6-0.145 343.2-0.143 514.8-0.008 5.548 0.004 8.411-1.718 10.856-6.799 22.147-46.014 44.833-91.775 66.648-137.945 2.593-5.487 2.554-13.429 0.928-19.479-6.343-23.585-28.467-40.688-53.238-42.531-21.221-1.579-45.314 13.937-55.259 35.647-1.268 2.769-2.284 5.652-3.582 8.901-9.988-26.171-27.46-43.6-55.878-44.212-28.441-0.612-46.262 16.521-57.706 42.836-11.471-26.378-29.563-43.725-58.327-42.865-27.339 0.817-44.874 17.4-55.032 43.442-11.223-26.579-29.293-44.141-58.309-43.436-27.433 0.664-44.745 17.488-55.14 43.295-10.594-25.7-28.205-43.098-56.394-43.317-28.334-0.223-46.252 16.845-56.123 40.626z" />
<glyph unicode="&#xe914;" d="M344.381 35.94c-58.407 0-115.573 0-173.396 0-0.229 3.449-0.6 6.418-0.6 9.388-0.037 78.764-0.156 157.526 0.008 236.288 0.088 42.123 30.48 76.888 71.631 82.606 46.447 6.451 87.642-17.826 99.527-59.032 1.956-6.787 3.193-14.043 3.211-21.090 0.221-80.124 0.147-160.252 0.127-240.378 0-2.32-0.295-4.643-0.508-7.782z" />
<glyph unicode="&#xe915;" d="M420.975 127.072c0 76.968 0 152.959 0 229.88 121.752 0 243.284 0 365.715 0 0-76.182 0-152.668 0-229.88-121.506 0-243.061 0-365.715 0zM503.294 144.515c18.174 0 34.177 0.395 50.147-0.176 7.467-0.266 11.448 2.046 14.979 8.856 29.794 57.426 60.035 114.618 90.124 171.895 1.536 2.927 2.886 5.949 4.973 10.277-17.953 0-34.558-0.389-51.132 0.186-6.865 0.238-10.199-2.204-13.261-8.102-24.789-47.747-49.914-95.316-74.926-142.948-6.609-12.591-13.177-25.205-20.904-39.987zM765.501 335.21c-7.442-2.427-100.004-173.908-103.541-190.114 34.318 0 68.618 0 103.541 0 0 63.482 0 126.355 0 190.114zM447.527 155.531c0.623-0.104 1.241-0.211 1.864-0.313 31.306 59.566 62.614 119.132 94.337 179.491-32.825 0-64.289 0-96.201 0 0-60.195 0-119.687 0-179.177zM580.659 145.871c18.725-3.402 18.643-3.359 26.696 11.971 28.801 54.819 57.67 109.603 86.497 164.407 2.017 3.838 3.916 7.739 5.986 11.846-18.686 3.244-18.815 3.174-26.776-11.973-25.178-47.884-50.375-95.758-75.532-143.653-5.65-10.758-11.174-21.584-16.871-32.598z" />
<glyph unicode="&#xe916;" d="M197.624 671.699c0 48.828 0 97.139 0 146.217 180.181 0 360.090 0 540.998 0 0-48.468 0-96.983 0-146.217-179.98 0-359.905 0-540.998 0zM725.342 803.865c-171.717 0-342.489 0-513.554 0 0-39.924 0-79.18 0-118.52 171.79 0 342.526 0 513.554 0 0 39.743 0 78.592 0 118.52z" />
<glyph unicode="&#xe917;" d="M893.68 705.939c0-69.716 0-138.113 0-208.001-15.469 0-30.693-0.305-45.871 0.406-1.798 0.084-4.749 5.712-4.776 8.79-0.338 40.231-0.242 80.466-0.256 120.699-0.008 22.843 0.279 45.695-0.193 68.528-0.16 7.778 2.423 10.043 9.968 9.732 13.238-0.547 26.513-0.154 41.128-0.154z" />
<glyph unicode="&#xe918;" d="M503.294 144.515c7.727 14.782 14.295 27.396 20.906 39.985 25.012 47.632 50.137 95.199 74.926 142.948 3.060 5.898 6.396 8.339 13.261 8.102 16.574-0.575 33.18-0.186 51.132-0.186-2.087-4.325-3.437-7.35-4.973-10.277-30.087-57.276-60.33-114.469-90.124-171.895-3.533-6.81-7.514-9.122-14.979-8.856-15.97 0.575-31.975 0.178-50.149 0.178z" />
<glyph unicode="&#xe919;" d="M765.501 335.21c0-63.758 0-126.632 0-190.114-34.922 0-69.222 0-103.541 0 3.537 16.206 96.098 187.687 103.541 190.114z" />
<glyph unicode="&#xe91a;" d="M447.527 155.531c0 59.49 0 118.983 0 179.175 31.912 0 63.373 0 96.201 0-31.721-60.359-63.029-119.925-94.337-179.491-0.623 0.106-1.243 0.213-1.864 0.315z" />
<glyph unicode="&#xe91b;" d="M580.659 145.871c5.695 11.014 11.221 21.84 16.871 32.6 25.158 47.895 50.354 95.769 75.532 143.653 7.963 15.147 8.090 15.217 26.776 11.973-2.071-4.106-3.969-8.008-5.986-11.846-28.828-54.807-57.696-109.591-86.497-164.407-8.053-15.331-7.971-15.376-26.696-11.973z" />
<glyph unicode="&#xe91c;" d="M725.342 803.865c0-39.93 0-78.776 0-118.52-171.031 0-341.764 0-513.554 0 0 39.34 0 78.596 0 118.52 171.063 0 341.838 0 513.554 0z" />
<glyph unicode="&#xe91d;" glyph-name="compound" d="M338.928 329.344c2.208 0.048 4.4-0.016 6.608-0.016 54.48 0 108.976 0 163.456 0 60.112 0 120.24 0 180.352 0.016 5.040 0 8.464 3.68 8.336 9.184-122.528 0-244.8 0-367.040 0-0.192-5.536 3.312-9.28 8.288-9.184zM702.352 322.336c-1.68-3.424-4.528-4.512-8.16-4.368-2.88 0.112-5.744 0.016-8.544 0.016 0-108.656 0-216.752 0-324.88 87.568 0 174.864 0 262.56 0 0 195.552 0 390.816 0 586.256-87.648 0-175.12 0-262.672 0 0-76.512 0-152.784 0-229.408 5.744 0 11.344 0.016 16.96-0.016 3.616-0.016 6.256-2.064 6.384-5.184 0.336-6.976 0.768-14.032-4.736-19.648-0.752-0.768-1.296-1.792-1.792-2.768zM758.64 90.288c-12.432 0-24.736 0-37.344 0 0 42.256 0 84.304 0 126.592 12.416 0 24.72 0 37.344 0 0-42.144 0-84.272 0-126.592zM811.552 227.424c-14.096 0-28 0-42.16 0 0 19.312 0 38.464 0 57.824 14 0 27.904 0 42.16 0 0-19.104 0-38.24 0-57.824zM864.592 227.632c-13.968 0-27.968 0-42.288 0 0 19.056 0 38.208 0 57.664 14.256 0 28.16 0 42.288 0 0-19.264 0-38.32 0-57.664zM912.368 90.336c-12.4 0-24.688 0-37.184 0 0 42.144 0 84.208 0 126.56 12.592 0 24.784 0 37.184 0 0-42.224 0-84.288 0-126.56zM912.496 227.28c-12.48 0-24.704 0-37.184 0 0 19.376 0 38.528 0 57.968 12.496 0 24.688 0 37.184 0 0-19.376 0-38.528 0-57.968zM875.152 521.056c12.368 0 24.656 0 37.296 0 0-38.464 0-76.848 0-115.632-12.56 0-24.752 0-37.296 0 0 38.56 0 76.944 0 115.632zM822.288 521.056c14.032 0 28.032 0 42.448 0 0-38.56 0-76.896 0-115.536-14.144 0-28.16 0-42.448 0 0 38.416 0 76.832 0 115.536zM822.176 216.832c14.096 0 28.096 0 42.384 0 0-42.048 0-84.112 0-126.432-13.968 0-27.968 0-42.384 0 0 42.192 0 84.176 0 126.432zM769.344 521.056c14.032 0 28.016 0 42.272 0 0-38.464 0-76.848 0-115.632-14.192 0-28.112 0-42.272 0 0 38.56 0 76.96 0 115.632zM769.344 216.912c14.048 0 27.968 0 42.192 0 0-42.080 0-84.144 0-126.624-14.096 0-28 0-42.192 0 0 42.24 0 84.304 0 126.624zM721.072 521.12c12.64 0 25.008 0 37.648 0 0-38.576 0-76.944 0-115.68-12.624 0-24.928 0-37.648 0 0 38.592 0 76.96 0 115.68zM721.024 285.28c12.704 0 25.072 0 37.664 0 0-19.264 0-38.32 0-57.648-12.384 0-24.784 0-37.664 0 0 19.264 0 38.272 0 57.648zM673.984-6.864c0 108.304 0 216.368 0 324.592-106.656 0-213.12 0-319.664 0 0-108.368 0-216.48 0-324.608 13.472 0 26.656 0 40.224 0 0 9.248 0 18.288 0 27.328 0 5.44 1.84 7.232 7.264 7.2 5.712-0.032 11.424 0 17.44 0 0 2 0 3.456 0 4.912 0 58.32-0.16 116.64 0.16 174.96 0.048 8.688 1.328 17.68 3.872 25.984 15.168 49.648 65.232 77.376 115.472 64.496 40.592-10.4 70.4-49.232 70.32-91.136-0.128-52.688-0.032-105.376-0.032-158.064 0-6.928 0-13.84 0-21.136 6.032 0 11.52-0.016 17.008 0 6 0.032 7.696-1.632 7.68-7.52 0-8.928 0-17.84 0-27.008 13.824 0 26.992 0 40.256 0zM53.552-31.248c307.12 0 614.016 0 921.168 0 0 4.304 0 8.416 0 12.944-307.12 0-614.096 0-921.168 0 0-4.432 0-8.656 0-12.944zM358.304 590.928c104.096 0 207.728 0 311.68 0-51.984 89.808-103.776 179.28-155.824 269.2-52.112-90-103.872-179.424-155.856-269.2zM520.176 830.912c36.32-62.768 72.656-125.52 109.008-188.272 6.48-11.216 13.024-22.4 19.568-33.6 2.8-4.784 0.224-8.864-5.664-8.88-34.416-0.016-68.848 0-103.264 0-8.576 0-17.136 0-25.712 0v0c-42.512 0-85.008 0.128-127.504-0.144-6.56-0.048-9.824 4.24-6.032 10.72 34.896 59.92 69.552 119.984 104.288 179.984 7.776 13.44 15.6 26.864 23.344 40.336 1.408 2.432 2.832 4.544 6.064 4.528 3.232-0.032 4.512-2.272 5.904-4.672zM354.32 350.144c106.752 0 213.2 0 319.664 0 0 76.544 0 152.784 0 229.248-106.768 0-213.152 0-319.664 0 0-76.544 0-152.912 0-229.248zM519.472 533.232c24.544-2.608 45.824-11.36 63.744-27.76 1.024-0.944 1.888-2.672 1.904-4.032 0.096-35.264 0.048-70.528 0.032-105.792 0-0.832-0.192-1.664-0.32-2.656-21.776 0-43.392 0-65.376 0 0.016 46.688 0.016 93.248 0.016 140.24zM443.136 501.488c0 1.344 0.912 3.040 1.936 3.984 15.344 14.096 33.44 22.656 53.872 26.336 3.104 0.576 6.256 0.912 9.936 1.44 0-47.024 0-93.488 0-140.192-21.856 0-43.472 0-65.52 0-0.080 1.088-0.256 2.256-0.256 3.408-0.016 35.024-0.048 70.016 0.032 105.024zM634.336 611.568c-40.112 69.296-79.984 138.16-120.192 207.6-40.272-69.568-80.16-138.496-120.16-207.6 80.384 0 160.144 0 240.352 0zM519.52 707.696c7.024 0 13.824 0 21.104 0 0-19.808 0-39.456 0-59.408-6.832 0-13.84 0-21.104 0 0 19.536 0 39.168 0 59.408zM508.832 707.424c0-19.808 0-39.44 0-59.456-6.992 0-13.856 0-21.344 0 0 19.776 0 39.488 0 59.456 6.88 0 14.016 0 21.344 0zM249.6 916.896c-22.432 0-44.624 0-66.928 0 0-3.632 0-7.008 0-10.608 22.496 0 44.592 0 66.928 0 0 3.696 0 7.152 0 10.608zM583.312 27.92c4.976 0 9.68 0 14.688 0 0 1.312 0 2.4 0 3.488 0 57.952 0.032 115.92-0.064 173.872-0.016 5.472-0.528 11.008-1.488 16.4-9.328 52.928-67.68 83.744-116.496 60.96-32.528-15.184-49.328-41.6-49.552-77.568-0.368-57.824-0.096-115.664-0.096-173.504 0-1.168 0.096-2.352 0.16-3.648 4.992 0 9.712 0 14.704 0 0 1.568 0 2.896 0 4.224 0 58.080-0.112 116.16 0.064 174.224 0.064 23.984 10.592 43.136 29.904 56.8 14.944 10.528 32.16 14.192 50.336 11.008 33.936-5.92 57.648-34.496 57.648-69.072 0.016-57.952 0-115.92 0-173.872-0.016-1.056 0.112-2.128 0.192-3.312zM239.024 723.824c0 56.864 0 113.504 0 170.608-15.424 0-30.528 0-45.856 0 0-56.848 0-113.696 0-170.608 15.472 0 30.688 0 45.856 0zM244.288 590.704c32.592 0 65.168 0 97.76-0.112 2.56 0 3.872 0.848 5.072 2.992 4.304 7.68 8.816 15.248 13.232 22.864 33.376 57.696 66.752 115.392 100.128 173.104 3.776 6.512 7.52 13.024 11.52 19.952-74.032 0-147.456 0-221.312 0 0-3.328 0-6.464 0-9.616 0-26.592 0-53.168 0.016-79.76 0-5.696-1.76-7.584-7.328-7.584-18-0.016-36-0.032-53.984 0-5.936 0-7.568 1.712-7.568 7.664 0 28.56 0.032 57.104 0.032 85.664 0 1.152-0.096 2.304-0.208 4.608-54.128-73.664-107.616-146.432-161.52-219.792 13.28 0 25.744 0 38.208 0 61.968-0.016 123.968 0.016 185.952 0.016zM1006.112 593.488c-7.088 9.664-14.208 19.328-21.312 28.992-22.080 30.064-44.16 60.112-66.24 90.192-23.104 31.472-46.224 62.928-69.28 94.432-1.456 2-3.088 2.672-5.52 2.656-9.312-0.128-18.624-0.064-27.936-0.064-85.12 0-170.272 0-255.408 0-1.168 0-2.336 0-4.032 0 0.752-1.472 1.2-2.416 1.712-3.328 5.568-9.648 11.104-19.28 16.704-28.912 35.6-61.488 71.184-122.992 106.896-184.416 0.672-1.152 2.592-2.192 3.952-2.224 9.184-0.192 18.368-0.080 27.568-0.080 96.784-0.016 193.552-0.032 290.336-0.048 1.296 0 2.592 0 4.448 0-0.848 1.248-1.328 2.048-1.888 2.8zM519.44 27.904c17.728 0 35.312 0 53.184 0 0 53.872 0 107.456 0 160.992-17.888 0-35.568 0-53.184 0 0-53.792 0-107.264 0-160.992zM519.52 263.888c0-21.36 0-42.72 0-64.256 17.792 0 35.36 0 53.152 0 2.992 41.472-30.016 63.936-53.152 64.256zM508.848 264.128c-32.288-2.688-56.928-32.816-52.96-64.336 17.664 0 35.296 0 52.96 0 0 21.568 0 42.848 0 64.336zM405.952-6.896c72.288 0 144.208 0 216.32 0 0 7.84 0 15.472 0 23.28-72.16 0-144.176 0-216.32 0 0-7.808 0-15.36 0-23.28zM455.568 27.92c17.808 0 35.488 0 53.248 0 0 53.792 0 107.376 0 160.992-17.872 0-35.536 0-53.248 0 0-53.776 0-107.248 0-160.992zM327.696 349.904c4.976 0 9.936 0 15.040 0 0 76.768 0 153.024 0 229.408-87.664 0-175.136 0-262.608 0 0-195.568 0-390.848 0-586.272 87.584 0 174.88 0 262.56 0 0 108.4 0 216.512 0 324.928-3.392 0-6.576-0.256-9.696 0.096-1.92 0.224-4.464 0.848-5.472 2.224-4.672 6.336-9.52 12.528-8.32 21.504 0.864 6.416 1.84 8.128 8.496 8.112zM163.872 521.2c14.144 0 28.048 0 42.304 0 0-38.608 0-77.072 0-115.776-13.984 0-28 0-42.304 0 0 38.528 0 76.912 0 115.776zM206.176 285.136c0-19.168 0-38.224 0-57.664-14.224 0-28.128 0-42.288 0 0 19.184 0 38.24 0 57.664 13.968 0 28.048 0 42.288 0zM115.952 521.168c12.432 0 24.64 0 37.088 0 0-38.56 0-76.96 0-115.616-12.24 0-24.528 0-37.088 0 0 38.384 0 76.784 0 115.616zM115.936 285.152c12.272 0 24.56 0 37.216 0 0-19.248 0-38.336 0-57.648-12.448 0-24.72 0-37.216 0 0 19.232 0 38.288 0 57.648zM153.216 90.384c-12.384 0-24.672 0-37.248 0 0 42.048 0 84.096 0 126.432 12.256 0 24.528 0 37.248 0 0-42.208 0-84.176 0-126.432zM206.256 90.4c-14.144 0-28.144 0-42.416 0 0 42.112 0 84.192 0 126.464 14.080 0 28 0 42.416 0 0-42.208 0-84.192 0-126.464zM259.312 90.256c-14.256 0-28.176 0-42.672 0 0 42.336 0 84.368 0 126.72 14.32 0 28.32 0 42.672 0 0-42.272 0-84.432 0-126.72zM259.472 227.472c-14.272 0-28.256 0-42.64 0-0.096 1.072-0.272 2.112-0.272 3.152 0 17.136 0.048 34.288-0.064 51.424-0.016 2.736 0.688 3.52 3.504 3.488 12.96-0.176 25.936-0.080 39.456-0.080 0.016-19.536 0.016-38.56 0.016-57.984zM259.472 405.52c-14.464 0-28.496 0-42.752 0 0 38.528 0 76.848 0 115.504 14.128 0 28.24 0 42.752 0 0-38.48 0-76.832 0-115.504zM269.712 285.312c12.512 0 24.688 0 37.168 0 0-19.168 0-38.336 0-57.856-12.368 0-24.576 0-37.168 0 0 19.312 0 38.416 0 57.856zM306.944 90.272c-12.432 0-24.624 0-37.12 0 0 42.224 0 84.304 0 126.752 12.512 0 24.624 0 37.12 0 0-42.224 0-84.384 0-126.752zM307.040 405.424c-12.48 0-24.688 0-37.312 0 0 38.624 0 77.104 0 115.744 12.64 0 24.832 0 37.312 0 0-38.576 0-76.976 0-115.744z" />
<glyph unicode="&#xe91e;" d="M443.92 415.296c-23.44 0-43.392 0-64.272 0-0.896-12.768-1.632-23.104-2.528-35.904-86.832-15.856-173.424-31.68-262.832-48.032-0.528 9.552-1.36 17.888-1.376 26.224-0.080 103.488 0.384 206.992-0.48 310.464-0.144 17.168 5.28 27.12 19.328 36.592 43.984 29.632 87.232 60.4 130.048 91.68 11.808 8.64 20.096 9.696 32.464 0.656 44.24-32.352 89.712-63.008 133.888-95.44 7.344-5.392 14.976-16.32 15.072-24.784 1.104-85.744 0.688-171.472 0.688-261.456zM408.944 516.672c0 55.808 0 109.152 0 161.952-88.752 0-175.584 0-261.968 0 0-55.072 0-107.792 0-161.952 87.728 0 173.968 0 261.968 0z" />
<glyph unicode="&#xe91f;" d="M377.376 262.544c0-104.976 0-206.464 0-310.064-98.256 0-195.824 0-296.144 0-0.496 9.568-1.344 18.912-1.376 28.256-0.112 65.424 0.752 130.848-0.528 196.24-0.4 21.152 4.176 30.432 27.28 34.4 89.504 15.36 178.56 33.504 270.768 51.168zM308.816-14.208c0 56.48 0 109.68 0 162.144-55.648 0-108.88 0-161.104 0 0-55.488 0-108.736 0-162.144 54.88 0 107.504 0 161.104 0z" />
<glyph unicode="&#xe920;" d="M827.216 581.472c48.576 0 95.984 0 146.464 0 0-12.512 0-21.136 0-31.488-164.736 0-328.768 0-494.24 0 0 9.984 0 19.12 0 30.928 104.384 0 207.456 0 311.84 0z" />
<glyph unicode="&#xe921;" d="M479.488 151.92c0 32.272 0 63.504 0 96.32 153.888 0 306.208 0 460.352 0 0-32.032 0-63.264 0-96.32-153.008 0-306 0-460.352 0z" />
<glyph unicode="&#xe922;" d="M411.76 350.48c0 10.896 0 19.552 0 32.032 9.344 0 17.84 0 26.336 0 181.088 0 362.176-0.336 543.264 0.4 24.064 0.096 33.040-6.8 24.368-32.432-196.72 0-394.064 0-593.968 0z" />
<glyph unicode="&#xe923;" d="M507.712 686.672c-69.248 48.784-137.552 95.616-204.224 144.672-18.928 13.92-30.992 14.208-49.968 0.112-58.784-43.712-119.344-85.056-179.264-127.264-7.76-5.456-15.776-10.544-25.136-16.784-8.224 27.648-2.4 45.232 21.424 61.296 63.68 42.912 125.856 88.112 187.616 133.792 15.728 11.648 26.016 10.624 41.12-0.496 60.432-44.48 121.184-88.64 183.296-130.736 23.408-15.872 35.472-32.848 25.136-64.592z" />
<glyph unicode="&#xe924;" d="M412.064 284.352c0 11.040 0 19.632 0 29.632 198.48 0 395.808 0 594.88 0 0-9.872 0-18.992 0-29.632-198.272 0-395.584 0-594.88 0z" />
<glyph unicode="&#xe925;" d="M377.232 345.584c0-17.888 0-31.84 0-49.264-109.088-20.784-218.56-41.648-329.504-62.768-0.864 9.792-1.104 15.872-1.968 21.856-3.248 22.288 4.24 31.696 28.608 35.664 100.16 16.384 199.824 35.696 302.864 54.512z" />
<glyph unicode="&#xe926;" d="M976.784 248.64c10.656 0 19.232 0 29.888 0 0-98.704 0-196.336 0-296.768-9.376-0.416-18.56-0.848-29.888-1.344 0 99.744 0 197.36 0 298.112z" />
<glyph unicode="&#xe927;" d="M441.984-48.352c-10.512 0-18.992 0-29.296 0 0 98.736 0 196.336 0 296.032 9.072 0 18.176 0 29.296 0 0-97.872 0-195.504 0-296.032z" />
<glyph unicode="&#xe928;" d="M808.976 509.696c3.568 2.912 4.192 3.872 4.944 3.984 62.128 8.576 62.128 8.56 62.128-52.544 0-14 0-28 0-45.568-12.576 0-22.832 0-33.056 0-10.384 0-20.8 0-34 0 0 23.504 0 44.48 0 65.456-0.016 10.352-0.016 20.704-0.016 28.672z" />
<glyph unicode="&#xe929;" d="M542.464 512c0-30.832 0-61.408 0-94.208-20.208 0-40.592 0-62.8 0 0 30.32 0 60.656 0 94.208 19.424 0 39.472 0 62.8 0z" />
<glyph unicode="&#xe92a;" d="M645.072 514.016c21.92 0 40.976 0 62.128 0 0-32.224 0-63.344 0-96.48-19.808 0-40.24 0-62.128 0 0 31.776 0 62.976 0 96.48z" />
<glyph unicode="&#xe92b;" d="M578.656 514.016c10.608 0 19.184 0 29.872 0 0-32.256 0-63.52 0-96.64-9.344 0-18.576 0-29.872 0 0 31.056 0 62.256 0 96.64z" />
<glyph unicode="&#xe92c;" d="M774.688 416.624c-10.72 0-19.312 0-29.648 0 0 32.224 0 63.472 0 96.624 9.68 0 18.8 0 29.648 0 0-31.856 0-63.056 0-96.624z" />
<glyph unicode="&#xe92d;" d="M939.76 416.512c-9.872 0-18.464 0-28.88 0 0 31.664 0 63.024 0 96.512 8.688 0 17.76 0 28.88 0 0-30.96 0-62.224 0-96.512z" />
<glyph unicode="&#xe92e;" d="M642.784 113.968c0-9.216 0-17.824 0-28.656-20.96 0-41.328 0-61.696 0.032-8.336 29.44-6.848 31.616 22.416 31.728 10.496 0.048 21.008-0.24 31.504-0.528 1.632-0.048 3.248-1.040 7.776-2.576z" />
<glyph unicode="&#xe92f;" d="M740.32 84.48c-21.472 0-41.28 0-62.544 0 0 10.608 0 19.872 0 29.056 54.752 12.064 67.936 6.416 62.544-29.056z" />
<glyph unicode="&#xe930;" d="M642.752-15.6c0-12.176 0-20.784 0-31.696-20.816 0-41.152 0-61.6 0-8.608 29.040-6.928 31.504 22.144 31.68 12.144 0.080 24.288 0.016 39.456 0.016z" />
<glyph unicode="&#xe931;" d="M677.2-49.6c0 12.16 0 20.768 0 31.68 20.816 0 41.152 0 61.6 0 8.592-29.024 6.928-31.488-22.16-31.68-12.128-0.064-24.272 0-39.44 0z" />
<glyph unicode="&#xe932;" d="M542.304 115.088c0-10.448 0-19.776 0-30.544-21.040 0-40.832 0-62.48 0 0 10.224 0 19.376 0 30.544 20.768 0 41.184 0 62.48 0z" />
<glyph unicode="&#xe933;" d="M778.368 115.712c20.752 0 40.544 0 61.952 0 0-10.608 0-19.808 0-30.832-20.48 0-40.224 0-61.952 0 0 9.968 0 19.744 0 30.832z" />
<glyph unicode="&#xe934;" d="M877.696 84.512c0 10.592 0 19.792 0 30.816 20.528 0 40.272 0 61.984 0 0-10.016 0-19.792 0-30.816-20.768 0-40.576 0-61.984 0z" />
<glyph unicode="&#xe935;" d="M542.064-18.544c0-9.92 0-19.184 0-29.648-21.28 0-41.088 0-62.816 0-0.48 9.744-0.896 18.192-1.456 29.648 21.52 0 41.648 0 64.272 0z" />
<glyph unicode="&#xe936;" d="M777.632-47.424c0 10.080 0 19.408 0 30.288 20.736 0 40.512 0 62.336 0 0-9.872 0-18.976 0-30.288-20.368 0-40.736 0-62.336 0z" />
<glyph unicode="&#xe937;" d="M877.2-48.016c0 10.896 0 19.392 0 30.176 21.168 0 41.52 0 63.152 0 0-9.92 0-19.248 0-30.176-20.544 0-40.32 0-63.152 0z" />
<glyph unicode="&#xe938;" d="M642.464 18.96c-22.176 0-42.64 0-64.432 0 0 9.872 0 18.304 0 28.928 21.056 0 42.16 0 64.432 0 0-9.248 0-17.728 0-28.928z" />
<glyph unicode="&#xe939;" d="M677.376 19.536c0 9.52 0 18 0 28.512 20.48 0 41.008 0 64.608 0 0.4-8.224 0.848-17.248 1.392-28.512-22.048 0-42.464 0-66 0z" />
<glyph unicode="&#xe93a;" d="M542.576 48.016c0-10.336 0-18.896 0-28.992-21.376 0-41.808 0-63.424 0 0 9.92 0 18.432 0 28.992 20.448 0 40.832 0 63.424 0z" />
<glyph unicode="&#xe93b;" d="M777.44 19.456c0 10.528 0 19.072 0 29.088 20.736 0 40.48 0 63.056 0 0.496-8.96 1.008-18.032 1.632-29.088-22.608 0-43.696 0-64.688 0z" />
<glyph unicode="&#xe93c;" d="M877.872 48.64c22.032 0 41.776 0 62.624 0 0-9.92 0-18.416 0-29.056-20.096 0-40.432 0-62.624 0 0 8.992 0 18.048 0 29.056z" />
<glyph unicode="&#xe93d;" d="M408.944 516.672c-88 0-174.24 0-261.968 0 0 54.144 0 106.88 0 161.952 86.384 0 173.216 0 261.968 0 0-52.8 0-106.144 0-161.952zM260.416 647.84c-23.168 0-45.040 0.864-66.752-0.624-5.28-0.352-14.096-8.24-14.336-13.008-1.36-27.856-0.672-55.824-0.672-84.4 29.216 0 55.136 0 81.776 0-0.016 32.816-0.016 64.048-0.016 98.032zM295.84 549.92c28.24 0 54.208 0 80.72 0 0 32.88 0 64.080 0 96.080-27.664 0-53.568 0-80.72 0 0-32.448 0-62.992 0-96.080z" />
<glyph unicode="&#xe93e;" d="M308.816-14.208c-53.616 0-106.224 0-161.104 0 0 53.408 0 106.656 0 162.144 52.24 0 105.472 0 161.104 0 0-52.448 0-105.648 0-162.144zM276.208 18.416c0 34.080 0 65.296 0 98.576-29.12 0-56.352 0.576-83.504-0.528-4.8-0.192-13.152-7.232-13.328-11.392-1.168-28.672-0.624-57.424-0.624-86.656 34.64 0 65.296 0 97.456 0z" />
<glyph unicode="&#xe93f;" d="M260.416 647.84c0-33.984 0-65.216 0-98.016-26.64 0-52.56 0-81.776 0 0 28.576-0.688 56.544 0.672 84.4 0.24 4.752 9.056 12.64 14.336 13.008 21.728 1.472 43.6 0.608 66.768 0.608z" />
<glyph unicode="&#xe940;" d="M295.84 549.92c0 33.088 0 63.632 0 96.080 27.152 0 53.056 0 80.72 0 0-32 0-63.2 0-96.080-26.512 0-52.48 0-80.72 0z" />
<glyph unicode="&#xe941;" d="M276.208 18.416c-32.16 0-62.816 0-97.456 0 0 29.232-0.56 57.984 0.624 86.656 0.176 4.16 8.528 11.2 13.328 11.392 27.152 1.104 54.384 0.528 83.504 0.528 0-33.28 0-64.496 0-98.576z" />
<glyph unicode="&#xe942;" d="M505.12 577.76c110.864 0 221.744 0.048 332.608-0.128 6.112-0.016 7.968 1.36 7.952 7.76-0.272 61.072-0.256 122.144-0.048 183.216 0.032 5.952-1.104 8.016-7.664 8-222.16-0.192-444.32-0.176-666.448-0.032-5.808 0-7.616-1.408-7.6-7.424 0.224-61.072 0.144-122.144 0.144-183.216 0-8.16 0-8.16 8.448-8.16 110.864-0.032 221.744-0.016 332.608-0.016zM455.872 415.968c-1.84 0.16-3.040 0.336-4.256 0.336-53.904 0.016-107.824-0.048-161.728 0.128-4.848 0-5.728-1.744-5.712-6.096 0.096-82.608 0.064-165.2 0.096-247.808 0-1.744 0.304-3.52 0.464-5.376 57.28 0 113.968 0 171.12 0 0.016 86.288 0.016 172.272 0.016 258.816zM713.824 416.336c-2.464 0-4.48 0-6.496 0-52.672 0-105.344-0.096-158 0.144-5.808 0.032-7.152-1.744-7.136-7.28 0.16-81.76 0.096-163.536 0.128-245.296 0-2.176 0.24-4.336 0.384-6.752 57.344 0 114.048 0 171.12 0 0 86.352 0 172.512 0 259.184zM926.688 415.904c-65.104 0-129.744 0-194.384 0 0-86.544 0-172.64 0-258.784 65.040 0 129.536 0 194.384 0 0 86.448 0 172.56 0 258.784zM0.224 61.68c341.504 0 682.256 0 1023.632 0 0 8.16-0.352 15.92 0.128 23.664 0.336 5.52-1.536 6.864-6.912 6.848-336.752-0.112-673.504-0.112-1010.272-0.128-2.144 0-4.288-0.256-6.576-0.384 0-10.352 0-19.952 0-30zM965.008 480.672c0 8.832-0.336 17.216 0.112 25.552 0.32 5.84-1.44 7.664-7.488 7.664-301.888-0.144-603.808-0.128-905.712-0.144-2.16 0-4.32-0.256-6.736-0.4 0-11.216 0-21.776 0-32.672 306.464 0 612.56 0 919.824 0zM266.848 157.088c0.112 2.656 0.288 4.656 0.288 6.672 0.016 81.952-0.032 163.904 0.128 245.856 0.016 5.44-1.472 6.848-6.88 6.832-56.96-0.208-113.904-0.24-170.864 0.032-6.064 0.016-6.96-2.144-6.96-7.424 0.128-81.744 0.096-163.488 0.112-245.232 0-2.176 0.224-4.352 0.352-6.736 61.456 0 122.24 0 183.824 0zM37.072 109.488c316.928 0 633.072 0 949.984 0 0 8.080-0.368 15.824 0.112 23.552 0.368 5.664-1.744 6.736-6.992 6.72-312.144-0.112-624.288-0.096-936.432-0.112-2.176 0-4.336-0.208-6.672-0.32 0-10.272 0-19.824 0-29.84zM44.864 531.328c307.136 0 613.232 0 919.296 0 0.336 0.944 0.688 1.504 0.688 2.064 0.080 5.952 0.128 11.888 0.144 17.824 0.016 9.408 0 9.408-9.104 9.408-300.88 0-601.712 0-902.592 0-1.648 0-3.424 0.4-4.864-0.144-1.376-0.512-3.376-1.968-3.408-3.056-0.288-8.56-0.16-17.12-0.16-26.096zM44.896 433.536c3.648 0 6.464 0 9.312 0 300.272 0 600.528 0 900.8 0 1.456 0 2.896 0.144 4.32-0.032 4.144-0.48 6.016 1.008 5.744 5.456-0.32 4.896-0.064 9.84-0.064 14.752-0.016 9.376-0.016 9.392-9.184 9.392-300.672 0-601.344 0-902.032 0-1.84 0-3.776 0.32-5.504-0.144-1.264-0.336-3.216-1.664-3.232-2.592-0.256-8.752-0.16-17.488-0.16-26.832zM524.848 157.056c0 86.624 0 172.592 0 258.912-17.104 0-33.792 0-50.784 0 0-86.416 0-172.56 0-258.912 16.992 0 33.584 0 50.784 0z" />
<glyph unicode="&#xe943;" d="M505.12 577.76c-110.88 0-221.744 0-332.624 0-8.448 0-8.448 0-8.448 8.16 0 61.072 0.080 122.144-0.144 183.216-0.016 6.016 1.776 7.44 7.6 7.424 222.144-0.144 444.304-0.144 666.448 0.032 6.56 0 7.696-2.048 7.664-8-0.208-61.056-0.224-122.144 0.048-183.216 0.016-6.4-1.84-7.776-7.952-7.76-110.832 0.192-221.728 0.144-332.592 0.144z" />
<glyph unicode="&#xe944;" d="M455.872 415.968c0-86.544 0-172.528 0-258.816-57.152 0-113.84 0-171.12 0-0.16 1.856-0.464 3.632-0.464 5.376-0.032 82.608 0 165.2-0.096 247.808 0 4.336 0.864 6.096 5.712 6.096 53.904-0.176 107.824-0.112 161.728-0.128 1.2 0.016 2.4-0.176 4.24-0.336zM436.992 296.512c0 9.648 0.096 19.28-0.016 28.912-0.064 6.128-3.424 9.84-8.56 9.776-4.832-0.064-8.368-3.664-8.416-9.44-0.16-19.488-0.16-38.944 0-58.416 0.048-5.808 3.584-9.392 8.368-9.488 5.136-0.080 8.544 3.648 8.608 9.76 0.096 9.648 0.016 19.28 0.016 28.896z" />
<glyph unicode="&#xe945;" d="M713.824 416.336c0-86.672 0-172.832 0-259.184-57.072 0-113.776 0-171.12 0-0.16 2.416-0.384 4.576-0.384 6.752-0.032 81.76 0.032 163.536-0.128 245.296-0.016 5.536 1.328 7.312 7.136 7.28 52.656-0.24 105.328-0.144 158-0.144 2.016 0 4.032 0 6.496 0zM561.552 297.136c0-9.424-0.064-18.864 0.016-28.288 0.064-7.056 3.376-11.104 8.768-11.008 5.168 0.112 8.368 4.016 8.4 10.752 0.064 18.64 0.064 37.28 0 55.936-0.032 6.688-3.28 10.64-8.432 10.704-5.264 0.048-8.624-3.824-8.72-10.416-0.112-9.232-0.032-18.464-0.032-27.68z" />
<glyph unicode="&#xe946;" d="M926.688 415.904c0-86.224 0-172.336 0-258.784-64.864 0-129.344 0-194.384 0 0 86.144 0 172.24 0 258.784 64.64 0 129.28 0 194.384 0zM887.216 316.304c0 22.144 0.016 44.256-0.032 66.384 0 9.072-2.672 11.776-11.632 11.776-30.528 0.032-61.040 0.032-91.6 0-9.312 0-11.904-2.4-11.904-11.536-0.064-44.272-0.064-88.512 0-132.784 0.032-8.56 2.928-11.264 11.664-11.28 30.528-0.048 61.040-0.048 91.6 0 9.2 0.016 11.872 2.832 11.888 12.288 0.032 21.712 0.016 43.424 0.016 65.152z" />
<glyph unicode="&#xe947;" d="M0.224 61.68c0 10.048 0 19.648 0 29.984 2.288 0.144 4.432 0.384 6.576 0.384 336.768 0.016 673.52 0.016 1010.272 0.128 5.376 0.016 7.232-1.328 6.912-6.848-0.48-7.728-0.128-15.504-0.128-23.664-341.392 0.016-682.128 0.016-1023.632 0.016z" />
<glyph unicode="&#xe948;" d="M965.008 480.672c-307.248 0-613.36 0-919.824 0 0 10.896 0 21.456 0 32.672 2.416 0.144 4.576 0.4 6.736 0.4 301.904 0.016 603.824 0 905.712 0.144 6.048 0 7.792-1.84 7.488-7.664-0.464-8.336-0.112-16.72-0.112-25.552z" />
<glyph unicode="&#xe949;" d="M266.848 157.088c-61.584 0-122.368 0-183.824 0-0.144 2.368-0.352 4.56-0.352 6.736-0.016 81.744 0.016 163.488-0.112 245.232 0 5.28 0.88 7.44 6.96 7.424 56.96-0.272 113.92-0.24 170.864-0.032 5.408 0.016 6.896-1.392 6.88-6.832-0.16-81.952-0.112-163.904-0.128-245.856-0.016-2.016-0.176-4.016-0.288-6.672zM114.176 317.008c0-22.112-0.032-44.256 0-66.384 0.016-9.056 2.672-11.728 11.696-11.744 30.528-0.048 61.056-0.048 91.584 0 8.896 0.016 11.744 2.912 11.744 11.792 0.016 44.064 0.016 88.096 0 132.16 0 8.992-2.72 11.648-11.776 11.648-30.32 0.032-60.64 0.032-90.976 0-10.032 0-12.272-2.224-12.304-12.288 0-21.728 0.016-43.456 0.032-65.184z" />
<glyph unicode="&#xe94a;" d="M37.072 109.488c0 10.016 0 19.584 0 29.84 2.336 0.112 4.496 0.32 6.672 0.32 312.144 0.016 624.288 0 936.432 0.112 5.232 0.016 7.36-1.056 6.992-6.72-0.48-7.712-0.112-15.472-0.112-23.552-316.912 0-633.056 0-949.984 0z" />
<glyph unicode="&#xe94b;" d="M44.864 531.328c0 8.976-0.128 17.552 0.144 26.096 0.032 1.088 2.032 2.544 3.408 3.056 1.44 0.544 3.232 0.144 4.864 0.144 300.864 0 601.712 0 902.592 0 9.104 0 9.12 0 9.104-9.408-0.016-5.952-0.064-11.888-0.144-17.824 0-0.56-0.352-1.12-0.688-2.064-306.048 0-612.144 0-919.28 0z" />
<glyph unicode="&#xe94c;" d="M44.896 433.536c0 9.344-0.096 18.080 0.144 26.832 0.016 0.928 1.968 2.272 3.232 2.592 1.728 0.464 3.664 0.144 5.504 0.144 300.688 0 601.36 0 902.032 0 9.168 0 9.168 0 9.184-9.392 0-4.928-0.256-9.872 0.064-14.752 0.272-4.448-1.616-5.936-5.744-5.456-1.424 0.176-2.864 0.032-4.32 0.032-300.272 0-600.528 0-900.8 0-2.832 0-5.648 0-9.296 0z" />
<glyph unicode="&#xe94d;" d="M524.848 157.056c-17.2 0-33.776 0-50.784 0 0 86.336 0 172.48 0 258.912 16.992 0 33.664 0 50.784 0 0-86.304 0-172.288 0-258.912z" />
<glyph unicode="&#xe94e;" d="M436.992 296.512c0-9.632 0.096-19.248-0.016-28.896-0.064-6.128-3.472-9.84-8.608-9.76-4.8 0.096-8.336 3.664-8.368 9.488-0.16 19.488-0.16 38.944 0 58.416 0.048 5.776 3.6 9.376 8.416 9.44 5.136 0.064 8.496-3.664 8.56-9.776 0.096-9.632 0.016-19.264 0.016-28.912z" />
<glyph unicode="&#xe94f;" d="M561.552 297.136c0 9.216-0.080 18.432 0.032 27.664 0.096 6.592 3.456 10.464 8.72 10.416 5.152-0.064 8.4-4.016 8.432-10.704 0.064-18.656 0.064-37.296 0-55.936-0.032-6.736-3.232-10.64-8.4-10.752-5.392-0.096-8.704 3.952-8.768 11.008-0.080 9.456-0.016 18.88-0.016 28.304z" />
<glyph unicode="&#xe950;" d="M887.216 316.304c0-21.712 0.016-43.44-0.016-65.136-0.016-9.456-2.688-12.272-11.888-12.288-30.544-0.048-61.056-0.048-91.6 0-8.736 0.016-11.632 2.72-11.664 11.28-0.064 44.272-0.064 88.512 0 132.784 0 9.12 2.592 11.536 11.904 11.536 30.544 0.032 61.056 0.032 91.6 0 8.96 0 11.632-2.704 11.632-11.776 0.048-22.16 0.032-44.272 0.032-66.4zM869.488 256.448c0.208 1.392 0.432 2.176 0.432 2.96 0.032 37.68-0.032 75.392 0.128 113.088 0 4.432-2.144 4.912-5.696 4.912-23.136-0.080-46.304-0.032-69.44-0.064-1.616 0-3.2-0.288-5.088-0.464 0-40.272 0-80.224 0-120.416 26.752-0.016 52.928-0.016 79.664-0.016z" />
<glyph unicode="&#xe951;" d="M114.176 317.008c0 21.712-0.032 43.456 0 65.168 0.016 10.064 2.256 12.288 12.304 12.288 30.336 0.032 60.656 0.032 90.976 0 9.056 0 11.776-2.656 11.776-11.648 0.016-44.064 0.016-88.096 0-132.16 0-8.896-2.864-11.776-11.744-11.792-30.528-0.048-61.056-0.048-91.584 0-9.024 0.016-11.68 2.688-11.696 11.744-0.064 22.16-0.032 44.304-0.032 66.4zM211.584 256.512c0.192 1.52 0.384 2.32 0.384 3.088 0.016 37.536-0.032 75.040 0.128 112.544 0.016 4.72-2.192 5.28-6.016 5.248-22.56-0.096-45.104-0.272-67.648 0.096-6.16 0.128-7.424-2-7.392-7.712 0.24-35.472 0.128-70.928 0.128-106.384 0-2.192 0-4.384 0-6.88 27.2 0 53.568 0 80.416 0z" />
<glyph unicode="&#xe952;" d="M869.488 256.448c-26.736 0-52.912 0-79.664 0 0 40.208 0 80.16 0 120.416 1.888 0.192 3.488 0.464 5.088 0.464 23.136 0.032 46.304-0.016 69.44 0.064 3.568 0 5.696-0.464 5.696-4.912-0.16-37.696-0.096-75.408-0.128-113.088 0-0.768-0.24-1.552-0.432-2.944z" />
<glyph unicode="&#xe953;" d="M211.584 256.512c-26.848 0-53.2 0-80.416 0 0 2.48 0 4.688 0 6.88 0 35.472 0.112 70.928-0.128 106.384-0.032 5.712 1.232 7.84 7.392 7.712 22.544-0.352 45.088-0.192 67.648-0.096 3.824 0.032 6.032-0.528 6.016-5.248-0.16-37.504-0.096-75.008-0.128-112.544 0-0.768-0.192-1.568-0.384-3.088z" />
<glyph unicode="&#xe954;" d="M741.472 229.568c-51.184 0-100.656 0-151.312 0 0 100.8 0 201.376 0 302.656-124.208 0-247.28 0-371.104 0 0-100.544 0-200.864 0-302.032-50.752 0-100.736 0-152.16 0 0 3.488 0 7.216 0 10.928 0 71.312 0.080 142.608-0.096 213.936-0.016 10.224 1.76 18.496 8.368 27.536 48.256 66.048 96.672 132.032 142.48 199.776 18.992 28.096 41.344 47.024 73.6 57.616 35.568 11.68 69.744 27.6 104.784 41.040 4.928 1.888 11.84 1.888 16.752-0.016 47.36-18.464 94.56-37.376 141.632-56.64 5.088-2.096 9.968-6.496 13.216-11.040 54.912-76.416 109.28-153.216 164.496-229.392 7.024-9.712 9.632-18.784 9.536-30.32-0.368-70.608-0.192-141.216-0.192-211.808 0-3.824 0-7.6 0-12.24zM504.64 567.104c0 50.816 0 100.8 0 150.48-67.584 0-134.4 0-201.072 0 0-50.576 0-100.304 0-150.48 67.12 0 133.696 0 201.072 0z" />
<glyph unicode="&#xe955;" d="M842.368 94.64c12.064 0 22.224 0 33.536 0 0 10.8 0 21.488 0 32.832 11.808 0 22.432 0 33.904 0 0-10.624 0-21.024 0-32.256 11.408 0 22.064 0 33.872 0 0 10.528 0 21.216 0 32.4 11.536 0 21.936 0 33.504 0 0-10.56 0-21.232 0-33.040 11.744 0 22.432 0 33.632 0 0-11.552 0-21.936 0-33.52-10.624 0-21.312 0-32.592 0 0-11.776 0-22.432 0-33.856 10.784 0 21.184 0 32.368 0 0-11.424 0-22.080 0-33.536-10.464 0-20.88 0-32.432 0 0-11.376 0-22.048 0-33.44-11.776 0-22.432 0-33.872 0 0 10.48 0 20.912 0 32.16-11.376 0-22.032 0-33.872 0 0-10.4 0-21.072 0-32.32-11.536 0-21.936 0-33.504 0 0 10.432 0 21.104 0 32.448-11.808 0-22.432 0-33.904 0 0-10.624 0-21.040 0-32.24-11.408 0-22.064 0-33.872 0 0 10.544 0 21.216 0 32.384-11.568 0-21.968 0-33.536 0 0-10.592 0-21.264 0-32.544-11.776 0-22.4 0-33.84 0 0 10.752 0 21.168 0 32.336-11.44 0-22.096 0-33.904 0 0-10.672 0-21.344 0-32.464-11.536 0-21.936 0-33.504 0 0 10.704 0 21.36 0 32.624-11.536 0-21.936 0-33.504 0 0-10.336 0-21.024 0-32.4-11.776 0-22.432 0-33.872 0 0 10.528 0 20.944 0 32.496-11.408 0-22.096 0-33.44 0 0 11.792 0 22.432 0 33.888 10.592 0 21.008 0 32.224 0 0 11.408 0 22.032 0 33.856-10.464 0-21.152 0-32.368 0 0 11.552 0 21.952 0 33.52 10.496 0 21.184 0 33.008 0 0 11.744 0 22.432 0 33.632 11.536 0 21.936 0 33.472 0 0-10.528 0-21.2 0-32.528 11.808 0 22.464 0 33.904 0 0 10.688 0 21.104 0 32.32 11.376 0 22.032 0 33.872 0 0-10.624 0-21.296 0-32.448 11.536 0 21.936 0 33.504 0 0 10.64 0 21.312 0 32.576 11.776 0 22.432 0 33.872 0 0-10.8 0-21.216 0-32.336 11.408 0 22.064 0 33.504 0 0 10.448 0 20.864 0 32.128 11.408 0 22.064 0 33.872 0-0.032-10.384-0.032-21.056-0.032-32.672zM673.536 60.096c-11.632 0-22.032 0-32.56 0 0-11.216 0-21.824 0-32.336 11.312 0 21.968 0 32.56 0 0 11.136 0 21.52 0 32.336zM741.088 59.84c-11.744 0-22.368 0-32.784 0 0-11.232 0-21.6 0-32.24 11.184 0 21.808 0 32.784 0 0 11.040 0 21.408 0 32.24zM808.432 59.968c-11.408 0-22.032 0-32.4 0 0-11.376 0-22.016 0-32.448 11.184 0 21.568 0 32.4 0 0 10.912 0 21.28 0 32.448zM843.248 60.208c0-11.632 0-22 0-32.56 11.248 0 21.872 0 32.368 0 0 11.328 0 21.936 0 32.56-11.184 0-21.52 0-32.368 0zM943.376 27.376c0 11.536 0 21.904 0 32.72-11.12 0-21.744 0-32.56 0 0-11.232 0-21.84 0-32.72 11.056 0 21.44 0 32.56 0z" />
<glyph unicode="&#xe956;" d="M775.504 230.064c0 87.744 0 174.736 0 263.552 67.504-19.264 134.288-38.32 201.504-57.504 0-68.704 0-137.008 0-206.048-66.816 0-133.632 0-201.504 0zM809.408 297.552c45.184 0 89.536 0 133.632 0 0 33.84 0 66.96 0 99.888-44.944 0-89.024 0-133.632 0 0-33.408 0-66.272 0-99.888z" />
<glyph unicode="&#xe957;" d="M64.928 525.728c-8.848 9.104-16.88 17.376-25.808 26.544 1.44 2.128 3.264 4.976 5.232 7.728 48.56 68 97.024 136.064 145.856 203.872 3.408 4.752 8.88 9.072 14.32 11.2 63.68 24.88 127.488 49.44 191.44 73.616 4.976 1.872 11.872 1.84 16.848-0.032 63.952-24.176 127.744-48.8 191.456-73.552 4.32-1.68 9.056-4.464 11.68-8.112 50.4-70.128 100.56-140.432 150.72-210.736 1.008-1.376 1.744-2.928 2.56-4.272-8.944-8.496-17.472-16.592-26.432-25.136-2.128 2.8-4.688 6.016-7.088 9.376-48.752 68.272-97.44 136.64-146.496 204.704-3.6 5.008-9.408 9.44-15.152 11.792-53.216 21.744-106.608 43.168-160.16 64.080-5.504 2.16-13.28 2.288-18.752 0.16-54.224-21.152-108.224-42.864-162.128-64.832-5.136-2.080-10.256-6.128-13.488-10.64-49.008-68.112-97.696-136.448-146.464-204.72-2.448-3.376-4.96-6.72-8.144-11.040z" />
<glyph unicode="&#xe958;" d="M926.88 671.488c0 32.256 0 64.4 0 97.008-11.312 0-21.68 0-33.088 0 0-32.112 0-64.224 0-98.896-7.776 3.552-14.336 5.6-19.872 9.216-19.84 12.992-30.848 31.648-31.088 55.392-0.432 45.616-0.464 91.248-0.032 136.864 0.368 37.296 30.592 66.608 67.536 66.544 36.88-0.064 66.848-29.504 67.152-66.928 0.4-45.28 0.336-90.544 0-135.824-0.208-31.056-22.608-59.088-50.608-63.376z" />
<glyph unicode="&#xe959;" d="M100.688-39.936c0 11.008 0 21.44 0 32.48-11.424 0-22.064 0-33.52 0 0-10.672 0-21.088 0-32.288-11.408 0-22.064 0-33.888 0 0 10.624 0 21.312 0 32.736-11.536 0-21.968 0-33.104 0 0 11.424 0 22.064 0 33.52 10.448 0 20.864 0 32.128 0 0 11.392 0 22.048 0 33.888-10.4 0-21.072 0-32.304 0 0 11.552 0 21.968 0 33.568 10.448 0 21.136 0 32.96 0 0 11.776 0 22.448 0 33.664 11.568 0 21.968 0 33.552 0 0-10.592 0-21.248 0-32.56 11.808 0 22.448 0 33.888 0 0 10.8 0 21.2 0 32.352 11.408 0 22.064 0 33.504 0 0-10.464 0-20.896 0-32.16 11.392 0 22.048 0 33.904 0 0 10.4 0 21.072 0 32.32 11.536 0 21.952 0 33.52 0 0-10.432 0-21.12 0-32.944 11.776 0 22.464 0 33.664 0 0-11.536 0-21.952 0-33.52-10.528 0-21.184 0-32.512 0 0-11.808 0-22.448 0-33.904 10.72 0 21.152 0 32.32 0 0-11.424 0-22.080 0-33.536-10.432 0-20.832 0-32.4 0 0-11.392 0-22.064 0-33.472-11.792 0-22.448 0-33.904 0 0 10.512 0 20.944 0 32.192-11.392 0-22.048 0-33.888 0 0-10.448 0-21.136 0-32.336-11.568 0-21.968 0-33.92 0zM67.344 27.712c11.504 0 22.128 0 32.416 0 0 11.408 0 22.032 0 32.384-11.232 0-21.6 0-32.416 0 0-10.928 0-21.296 0-32.384zM134.8 27.536c11.6 0 21.968 0 32.624 0 0 11.168 0 21.792 0 32.4-11.28 0-21.904 0-32.624 0 0-11.104 0-21.488 0-32.4z" />
<glyph unicode="&#xe95a;" d="M926.528 667.248c0-67.12 0-133.664 0-201.024-10.656 0-21.312 0-32.624 0 0 66.8 0 133.632 0 201.024 10.592 0 21.008 0 32.624 0z" />
<glyph unicode="&#xe95b;" d="M264.432 498.768c37.344 0 73.056 0 110.768 0-18.288-33.008-36.16-65.248-55.28-99.712-18.864 33.936-36.896 66.304-55.488 99.712z" />
<glyph unicode="&#xe95c;" d="M433.056 498.848c37.712 0 73.456 0 110.88 0-18.464-33.296-36.416-65.568-55.408-99.776-18.864 33.92-36.784 66.176-55.472 99.776z" />
<glyph unicode="&#xe95d;" d="M264.544 229.984c18.512 33.264 36.432 65.488 55.328 99.456 18.896-33.984 36.8-66.192 55.312-99.456-37.184 0-73.024 0-110.64 0z" />
<glyph unicode="&#xe95e;" d="M433.2 229.984c18.512 33.264 36.416 65.472 55.312 99.456 18.88-33.968 36.8-66.192 55.296-99.456-37.136 0-72.992 0-110.608 0z" />
<glyph unicode="&#xe95f;" d="M252.688 282.16c0 54.72 0 109.424 0 164.624 1.056-0.512 2.208-0.688 2.576-1.344 14.24-25.392 28.512-50.768 42.464-76.304 1.28-2.352 1.744-6.416 0.576-8.576-14.352-26.464-29.088-52.704-43.712-79.008-0.64 0.192-1.264 0.4-1.904 0.608z" />
<glyph unicode="&#xe960;" d="M386.56 279.024c-16.016 28.8-30.688 55.008-45.088 81.392-1.104 2.016-1.12 5.664-0.032 7.648 14.4 26.384 29.104 52.624 45.12 81.392 0-57.664 0-112.448 0-170.432z" />
<glyph unicode="&#xe961;" d="M421.792 449.504c16.016-28.768 30.72-54.992 45.12-81.392 1.104-2 1.104-5.664 0-7.664-14.4-26.384-29.104-52.64-45.136-81.44 0.016 57.696 0.016 112.512 0.016 170.496z" />
<glyph unicode="&#xe962;" d="M555.68 446.288c0-54.704 0-109.376 0-166.864-2.976 4.768-4.784 7.408-6.336 10.208-12.656 22.672-25.344 45.28-37.68 68.112-1.616 2.944-2.8 7.824-1.456 10.336 14.224 26.48 29.008 52.64 43.632 78.896 0.624-0.24 1.216-0.48 1.84-0.688z" />
<glyph unicode="&#xe963;" d="M504.64 567.104c-67.36 0-133.936 0-201.072 0 0 50.176 0 99.904 0 150.48 66.672 0 133.488 0 201.072 0 0-49.68 0-99.664 0-150.48zM374.8 642.56c-13.456 9.36-25.056 17.44-37.44 26.064 0-18.16 0-34.4 0-52.288 12.816 8.976 24.416 17.104 37.44 26.224zM433.68 642.512c13.312-9.28 24.896-17.328 37.408-26.048 0 18.080 0 34.288 0 52.208-12.752-8.944-24.304-17.008-37.408-26.16zM374.208 684.224c10.208-7.152 18.032-12.928 26.208-18.144 1.808-1.168 5.504-1.376 7.216-0.272 8.368 5.328 16.352 11.264 26.528 18.416-20.8 0-38.864 0-59.952 0zM434.288 600.896c-10.32 7.2-18.416 13.008-26.72 18.512-1.44 0.944-4.32 1.488-5.52 0.688-8.752-5.712-17.28-11.84-27.808-19.2 21.136 0 39.184 0 60.048 0z" />
<glyph unicode="&#xe964;" d="M673.536 60.096c0-10.816 0-21.2 0-32.336-10.592 0-21.248 0-32.56 0 0 10.512 0 21.12 0 32.336 10.528 0 20.928 0 32.56 0z" />
<glyph unicode="&#xe965;" d="M741.088 59.84c0-10.832 0-21.2 0-32.24-10.976 0-21.6 0-32.784 0 0 10.64 0 21.008 0 32.24 10.416 0 21.040 0 32.784 0z" />
<glyph unicode="&#xe966;" d="M808.432 59.968c0-11.168 0-21.536 0-32.448-10.848 0-21.216 0-32.4 0 0 10.432 0 21.072 0 32.448 10.368 0 20.992 0 32.4 0z" />
<glyph unicode="&#xe967;" d="M843.248 60.208c10.848 0 21.184 0 32.368 0 0-10.624 0-21.232 0-32.56-10.496 0-21.12 0-32.368 0 0 10.56 0 20.928 0 32.56z" />
<glyph unicode="&#xe968;" d="M943.376 27.376c-11.12 0-21.504 0-32.56 0 0 10.88 0 21.488 0 32.72 10.816 0 21.44 0 32.56 0 0-10.816 0-21.184 0-32.72z" />
<glyph unicode="&#xe969;" d="M809.408 297.552c0 33.632 0 66.48 0 99.888 44.592 0 88.688 0 133.632 0 0-32.944 0-66.048 0-99.888-44.096 0-88.448 0-133.632 0zM843.504 363.872c0-11.696 0-22.336 0-32.832 22.432 0 44.032 0 66 0 0 11.184 0 21.808 0 32.832-22.256 0-43.84 0-66 0z" />
<glyph unicode="&#xe96a;" d="M67.344 27.712c0 11.072 0 21.456 0 32.384 10.816 0 21.184 0 32.416 0 0-10.352 0-20.992 0-32.384-10.272 0-20.896 0-32.416 0z" />
<glyph unicode="&#xe96b;" d="M134.8 27.536c0 10.928 0 21.296 0 32.4 10.72 0 21.344 0 32.624 0 0-10.608 0-21.232 0-32.4-10.656 0-21.024 0-32.624 0z" />
<glyph unicode="&#xe96c;" d="M374.8 642.56c-13.024-9.12-24.624-17.248-37.44-26.224 0 17.872 0 34.128 0 52.288 12.384-8.624 23.984-16.688 37.44-26.064z" />
<glyph unicode="&#xe96d;" d="M433.68 642.512c13.088 9.152 24.656 17.232 37.408 26.144 0-17.92 0-34.128 0-52.208-12.512 8.72-24.080 16.784-37.408 26.064z" />
<glyph unicode="&#xe96e;" d="M374.208 684.224c21.088 0 39.152 0 59.952 0-10.16-7.152-18.16-13.088-26.528-18.416-1.712-1.104-5.408-0.896-7.216 0.272-8.176 5.216-16 10.992-26.208 18.144z" />
<glyph unicode="&#xe96f;" d="M434.288 600.896c-20.864 0-38.912 0-60.064 0 10.544 7.36 19.056 13.472 27.808 19.2 1.216 0.8 4.080 0.256 5.52-0.688 8.32-5.504 16.432-11.312 26.736-18.512z" />
<glyph unicode="&#xe970;" d="M843.504 363.872c22.16 0 43.744 0 66 0 0-11.008 0-21.648 0-32.832-21.968 0-43.568 0-66 0 0 10.496 0 21.136 0 32.832z" />
<glyph unicode="&#xe971;" glyph-name="floor" d="M5.76 371.936c39.056 23.536 75.792 45.728 112.576 67.808 37.696 22.64 75.296 45.44 113.376 67.392 5.712 3.296 15.808 5.744 20.576 2.96 76.4-44.864 152.288-90.672 231.344-138.064-50.256-30.128-97.808-58.624-145.376-87.12-26.928-16.16-53.632-32.72-80.976-48.112-5.728-3.232-15.792-5.568-20.576-2.752-76.416 44.912-152.32 90.704-230.944 137.888zM547.6 372.064c79.264 47.52 155.2 93.232 231.504 138.336 4.096 2.432 12.384 1.808 16.736-0.752 75.568-44.848 150.816-90.192 228.176-136.688-6.208-4.528-10.592-8.32-15.488-11.248-68.64-41.216-137.2-82.576-206.24-123.136-6.88-4.048-19.040-7.232-24.736-3.904-75.84 44.32-150.96 89.888-229.952 137.392zM276.464 624.176c79.248 47.488 154.368 92.704 229.92 137.264 4.72 2.8 14 2.704 18.752-0.096 75.488-44.576 150.576-89.792 229.28-136.992-22.336-13.536-42.048-25.536-61.824-37.408-53.76-32.288-107.392-64.816-161.584-96.384-6.784-3.952-18.896-6.592-24.672-3.232-75.712 44.144-150.752 89.472-229.872 136.848zM754.624 209.648c-59.712-35.92-115.824-69.888-172.176-103.456-22.128-13.184-44.816-35.472-67.168-35.408-22.4 0.080-44.976 22.512-67.104 35.728-55.856 33.328-111.52 66.976-169.28 101.696 4.944 4.016 8.448 7.664 12.656 10.208 69.168 41.632 138.272 83.392 207.936 124.208 7.248 4.256 20.336 6.752 26.656 3.072 75.136-43.728 149.552-88.752 228.48-136.048zM279.376 532.928c35.328 29.888 35.376 29.984 71.328 8.496 49.792-29.728 99.744-59.216 149.072-89.68 11.664-7.2 20.128-7.12 31.776 0.064 50 30.896 100.608 60.784 151.072 90.912 34.048 20.336 34.112 20.224 69.136-9.84-58.736-35.328-119.28-66.992-174.32-106.336-44.48-31.808-79.12-32.384-123.84-0.016-54.72 39.632-115.456 71.056-174.224 106.4z" />
<glyph unicode="&#xe972;" d="M27.472 165.952c0 3.808 0 7.6 0 11.408 0.656 1.696 1.552 3.376 1.968 5.136 9.584 42.032 42.16 68.224 85.12 68.288 39.616 0.064 79.232 0 118.832 0.032 3.392 0.016 6.784 0.416 10 0.608 0 5.184 0 9.36 0 14.464-53.104-1.856-105.584 2.576-158.224-2.928-0.080 1.6-0.256 3.2-0.256 4.8-0.016 153.84 0 307.664-0.176 461.504 0 5.712 2.272 8.032 7.040 10.080 15.92 6.864 31.664 14.112 47.472 21.248 51.856 23.36 103.696 46.768 155.6 70.016 2.8 1.264 6.32 2.336 9.2 1.824 22.928-4.064 45.776-8.512 68.656-12.88 54.528-10.416 109.008-20.96 163.568-31.264 48.16-9.104 96.4-17.888 144.592-27.008 48.96-9.264 97.824-18.816 146.752-28.144 44.192-8.416 88.336-16.912 132.608-24.848 6.992-1.248 8.544-3.968 8.544-10.528-0.176-222.208-0.16-444.416-0.144-666.624 0-2.336 0.224-4.72 0.384-8.464 12.032 0 23.616 0 35.2 0 0-13.584 0-27.136 0-40.704-318.528 0-637.056 0-955.6 0 0 13.456 0 26.912 0 41.104 10.704 0 19.872 0.208 29.024-0.096 5.568-0.176 7.424 1.68 7.392 7.488-0.256 42.528-0.16 85.088-0.224 127.648 0 2.32-0.416 4.64-0.72 7.808-19.328 0.032-37.968 0.032-56.608 0.032zM251.536 23.6c0 52.064 0 103.168 0 154.528-2.608 0-4.736 0.192-6.816-0.032-34.72-3.904-69.424-8.032-104.176-11.664-5.936-0.608-7.632-2.352-7.6-8.336 0.272-42.016 0.128-84.048 0.128-126.096 0-2.624 0-5.264 0-8.416 39.824 0.016 78.736 0.016 118.464 0.016zM624.688 607.488c0 38.496 0 76.256 0 114.224-29.344 5.152-58.048 10.208-86.992 15.296-0.512-1.904-1.024-2.912-1.024-3.904-0.016-35.808-0.096-71.616 0.24-107.408 0.032-2.112 3.168-5.408 5.456-6.016 5.696-1.536 11.76-1.808 17.664-2.672 21.36-3.136 42.768-6.304 64.656-9.52zM536.688 388.464c0-38.16 0.064-74.96-0.064-111.76-0.016-4.512 2.24-5.312 5.984-5.536 24.624-1.408 49.232-3.008 73.84-4.464 2.832-0.176 5.664-0.016 8.864-0.016 0 36.704 0.064 72.208-0.192 107.68-0.016 2.096-2.464 5.84-4.112 6.016-27.696 2.928-55.424 5.408-84.32 8.080zM625.376 94.88c0 37.296-0.032 73.296 0.064 109.312 0.016 5.12-3.248 5.584-6.944 5.728-13.792 0.672-27.616 1.2-41.408 1.936-13.168 0.688-26.304 1.6-39.968 2.432 0-39.28 0-77.6 0-116.656 29.248-0.896 58.128-1.792 88.256-2.752zM624.832 436.464c0.176 3.312 0.416 6.208 0.416 9.104 0.048 32.256-0.192 64.528 0.272 96.768 0.096 7.296-2.72 9.216-9.152 9.952-15.328 1.728-30.544 4.112-45.84 6.128-10.912 1.44-21.84 2.72-32.16 4-0.88-1.008-1.2-1.216-1.2-1.424-0.208-36.848-0.448-73.696-0.336-110.544 0-1.568 3.056-4.256 4.944-4.496 27.12-3.296 54.272-6.272 83.056-9.488zM684.736 261.792c29.6-1.888 58.528-3.712 88.048-5.616 0 35.888-0.048 70.272 0.080 104.624 0 4.704-2.176 5.936-6.336 6.288-12.672 1.024-25.328 2.4-38 3.552-14.448 1.28-28.912 2.464-43.776 3.728-0.016-38-0.016-74.928-0.016-112.576zM772.64 585.504c0 36.368 0.080 71.296-0.24 106.208-0.016 1.664-3.44 4.32-5.632 4.752-15.376 3.056-30.816 5.744-46.272 8.4-11.84 2.048-23.68 3.904-35.28 5.792-0.64-1.744-1.008-2.256-1.008-2.752 0-34.688 0.112-69.36-0.032-104.032-0.032-5.36 2.976-6.112 7.056-6.688 14.736-2.064 29.408-4.368 44.128-6.48 12.032-1.744 24.048-3.36 37.28-5.2zM684.864 206.208c0-38.176 0-74.864 0-111.968 3.168-0.256 5.824-0.576 8.496-0.656 23.808-0.768 47.648-1.28 71.44-2.4 6.72-0.304 8.144 1.952 8.064 8.224-0.304 31.152-0.112 62.304-0.144 93.456 0 2.848-0.24 5.696-0.368 8.784-29.6 1.52-58.208 3.008-87.488 4.56zM685.424 542.736c-0.688-2.048-1.008-2.544-1.008-3.056-0.096-34.688-0.096-69.376-0.32-104.064-0.032-4.976 2.72-5.68 6.592-6.080 14.528-1.568 29.024-3.36 43.552-4.896 12.496-1.328 25.056-2.4 38.144-3.648 0 37.088 0 73.040 0 109.872-29.104 3.984-57.952 7.92-86.96 11.872zM832.096 198.528c-0.272-2.56-0.576-4.144-0.576-5.696-0.032-32.304 0.064-64.576-0.128-96.848-0.032-5.104 2.016-6.464 6.736-6.544 17.632-0.24 35.248-0.88 52.88-1.2 9.408-0.176 18.8-0.032 28.496-0.032 0 35.472 0 70.288 0 105.632-29.264 1.568-57.904 3.104-87.408 4.688zM832.016 576.56c29.36-4.432 58.304-8.8 88.016-13.296 0 35.152 0.064 68.736-0.176 102.32 0 1.584-2.352 4.24-3.984 4.544-24.768 4.592-49.584 8.912-74.4 13.2-3.024 0.528-6.16 0.608-9.456 0.928 0-36.432 0-71.824 0-107.696zM832.096 522.816c0-36.352 0-72.16 0-108.544 29.44-3.152 58.32-6.256 87.568-9.376 0 36.096 0 70.848 0 106-29.36 3.984-58.224 7.92-87.568 11.92zM920.080 246.352c0 4.336 0 7.008 0 9.664 0.016 28.736-0.304 57.472 0.288 86.176 0.16 8.080-2.128 10.848-10.16 11.44-22.928 1.664-45.824 4.176-68.736 6.272-3.088 0.272-6.24 0.032-9.376 0.032 0-36.32 0-71.696 0-108 29.2-1.824 58-3.68 87.984-5.584zM459.12 550.272c-0.448 18.784-9.696 39.52-31.472 53.344-27.2 17.296-63.12 10.448-75.168-14.832-11.824-24.816-10.144-49.792 4.688-72.864 14.944-23.248 42.912-32.736 68.24-24.752 21.696 6.848 33.44 25.2 33.712 59.104zM448.784 633.952c0.816 1.376 1.088 1.616 1.088 1.856 0.16 37.408 0.352 74.816 0.288 112.224 0 1.76-2.16 4.736-3.76 5.072-8.384 1.824-16.912 2.992-26.496 4.56 0-14.72 0-28.416 0-43.12-10.672 1.696-20.224 3.424-29.824 4.64-4.416 0.56-5.952 2.304-5.84 6.736 0.272 10.576 0.24 21.168-0.032 31.728-0.064 2.32-1.28 6.272-2.656 6.608-8.544 2.096-17.296 3.344-26.512 4.976 0-41.312 0-81.264 0-121.808 9.808-1.232 19.056-2.416 29.504-3.744 0 16.88 0 32.4 0 48.608 9.92-1.52 18.672-3.232 27.52-4.048 6.16-0.576 8.16-3.024 7.968-9.2-0.448-13.488-0.144-26.992-0.144-40.944 10.368-1.488 19.888-2.848 28.896-4.144zM224.032 582.464c-21.488-4.32-42.224-8.496-62.64-12.608 0-36.752 0-72.4 0-108.832 21.296 1.264 41.952 2.464 62.64 3.68 0 39.632 0 78 0 117.76zM224.032 402.448c-21.424 0-42.096 0-63.2 0 0-30.688-0.016-61.024 0-91.376 0.016-16 0-16.288 15.536-18.976 15.632-2.72 31.376-4.784 47.664-7.216 0 39.344 0 77.744 0 117.568zM223.92 644.656c0 39.408 0 78 0 117.664-19.328-7.936-37.712-15.728-56.336-22.96-5.136-2-6.976-4.48-6.912-10.048 0.32-26.032 0.144-52.080 0.144-78.112 0-7.552 0-15.104 0-23.728 21.792 5.92 42.56 11.584 63.104 17.184zM437.488 309.616c-24.384 1.808-48.48 3.632-72.432 5.424-0.512-2.112-0.848-2.864-0.848-3.648-0.048-37.408-0.032-74.816-0.192-112.208-0.016-4.848 2.24-5.792 6.448-5.968 18.4-0.704 36.8-1.712 55.2-2.512 4.528-0.208 9.072-0.032 14.8-0.032 0 6.32-0.352 12.24 0.080 18.096 0.496 6.592-1.856 9.008-8.64 8.992-12.416-0.032-24.816 0.88-37.424 1.376 0 7.808 0 14.656 0 22.16 13.792-0.64 26.944-1.28 41.248-1.968 0 7.184-0.272 13.632 0.080 20.032 0.288 5.296-1.744 7.104-6.976 7.2-11.328 0.24-22.64 1.040-34.288 1.648 0 6.336 0 11.808 0 17.584 14.592-0.992 28.512-1.92 42.944-2.912 0 9.296 0 17.552 0 26.736zM449.408 429.088c0 9.712 0 17.968 0 26.56-31.696 3.44-62.8 6.8-94.896 10.272 0-7.968 0.16-14.96-0.048-21.92-0.144-4.496 1.68-6.24 6.144-6.464 8.576-0.448 17.12-1.392 26.432-2.192 0-31.344 0-62.112 0-93.488 10.256-0.96 19.76-1.824 30.272-2.816 0 31.488 0 61.712 0 92.656 11.056-0.896 21.2-1.728 32.096-2.608zM365.040 164.512c-0.256-1.104-0.592-1.872-0.592-2.64-0.080-37.424-0.032-74.864-0.256-112.272-0.016-5.616 2.912-5.92 7.168-5.952 16.272-0.16 32.528-0.384 48.784-0.832 19.696-0.512 19.488-0.592 20.192 19.216 0.208 5.952-1.296 8.24-7.584 8.032-12.624-0.432-25.264-0.144-38.832-0.144 0 32.688 0 63.184 0 94.576-10.016 0.016-19.104 0.016-28.88 0.016z" />
<glyph unicode="&#xe973;" d="M310.72 905.024c7.504-1.84 14.928-4.048 22.512-5.488 48.704-9.184 97.472-18.112 146.176-27.296 48.144-9.088 96.24-18.448 144.368-27.552 55.088-10.416 110.208-20.704 165.312-31.040 40.944-7.664 81.904-15.376 122.88-22.976 6.448-1.184 9.6-3.712 9.104-11.152-0.768-12.112-0.208-24.32-0.208-37.648-8.4 1.408-16.048 2.528-23.616 3.952-51.888 9.744-103.76 19.472-155.632 29.328-60.64 11.536-121.232 23.232-181.856 34.768-62.8 11.968-125.6 23.856-188.416 35.744-21.536 4.080-43.040 8.496-64.688 11.872-5.12 0.8-11.216-0.944-16.144-3.136-50.208-22.368-100.272-45.072-150.384-67.664-1.936-0.88-3.936-1.6-7.36-2.992 0 14.224-0.304 27.6 0.336 40.912 0.080 1.952 4.448 4.192 7.216 5.44 31.056 14.128 62.192 28.112 93.328 42.080 20.256 9.104 40.56 18.096 60.784 27.264 3.408 1.552 6.528 3.696 9.776 5.568 2.176 0.016 4.352 0.016 6.512 0.016z" />
<glyph unicode="&#xe974;" d="M27.472 165.952c18.656 0 37.296 0 56.64 0 0.304-3.168 0.704-5.504 0.72-7.808 0.064-42.544-0.032-85.104 0.224-127.648 0.032-5.792-1.824-7.664-7.392-7.488-9.152 0.304-18.32 0.096-29.024 0.096 0-14.208 0-27.664 0-41.104-7.056 0-14.096 0-21.152 0-0.016 61.328-0.016 122.64-0.016 183.952z" />
<glyph unicode="&#xe975;" d="M251.536 23.6c-39.728 0-78.64 0-118.464 0 0 3.152 0 5.792 0 8.416 0 42.048 0.144 84.080-0.128 126.096-0.032 5.968 1.664 7.712 7.6 8.336 34.752 3.632 69.44 7.744 104.176 11.664 2.080 0.224 4.224 0.032 6.816 0.032 0-51.376 0-102.48 0-154.544z" />
<glyph unicode="&#xe976;" d="M624.688 607.488c-21.888 3.216-43.296 6.384-64.672 9.52-5.888 0.864-11.952 1.12-17.664 2.672-2.288 0.624-5.424 3.92-5.456 6.016-0.336 35.792-0.256 71.6-0.24 107.408 0 1.008 0.512 2 1.024 3.904 28.944-5.088 57.648-10.144 86.992-15.296 0.016-37.984 0.016-75.728 0.016-114.224z" />
<glyph unicode="&#xe977;" d="M536.688 388.464c28.896-2.672 56.624-5.152 84.336-8.080 1.648-0.176 4.096-3.92 4.112-6.016 0.256-35.488 0.192-70.992 0.192-107.68-3.184 0-6.032-0.16-8.864 0.016-24.608 1.472-49.216 3.056-73.84 4.464-3.744 0.224-6 1.008-5.984 5.536 0.112 36.816 0.048 73.616 0.048 111.76z" />
<glyph unicode="&#xe978;" d="M625.376 94.88c-30.128 0.976-59.008 1.856-88.256 2.768 0 39.056 0 77.376 0 116.656 13.664-0.848 26.8-1.744 39.968-2.432 13.792-0.736 27.616-1.264 41.408-1.936 3.68-0.16 6.96-0.608 6.944-5.728-0.096-36.032-0.064-72.032-0.064-109.328z" />
<glyph unicode="&#xe979;" d="M624.832 436.464c-28.784 3.216-55.936 6.192-83.072 9.488-1.872 0.256-4.944 2.944-4.944 4.496-0.112 36.848 0.144 73.696 0.336 110.544 0 0.208 0.336 0.416 1.2 1.424 10.32-1.28 21.248-2.56 32.16-4 15.296-2.016 30.512-4.4 45.84-6.128 6.432-0.736 9.248-2.656 9.152-9.952-0.448-32.256-0.224-64.512-0.272-96.768 0.016-2.896-0.224-5.792-0.4-9.104z" />
<glyph unicode="&#xe97a;" d="M684.736 261.792c0 37.648 0 74.576 0 112.576 14.88-1.264 29.328-2.448 43.776-3.728 12.672-1.136 25.328-2.512 38-3.552 4.176-0.336 6.336-1.584 6.336-6.288-0.128-34.352-0.080-68.736-0.080-104.624-29.504 1.904-58.432 3.728-88.032 5.616z" />
<glyph unicode="&#xe97b;" d="M772.64 585.504c-13.232 1.84-25.248 3.456-37.248 5.184-14.72 2.112-29.392 4.416-44.128 6.48-4.096 0.576-7.088 1.328-7.056 6.688 0.144 34.672 0.032 69.344 0.032 104.032 0 0.496 0.352 1.008 1.008 2.752 11.6-1.888 23.44-3.744 35.28-5.792 15.456-2.672 30.896-5.344 46.272-8.4 2.192-0.432 5.616-3.088 5.632-4.752 0.288-34.896 0.208-69.808 0.208-106.192z" />
<glyph unicode="&#xe97c;" d="M684.864 206.208c29.28-1.552 57.888-3.024 87.488-4.576 0.144-3.072 0.368-5.936 0.368-8.784 0.032-31.152-0.16-62.304 0.144-93.456 0.080-6.272-1.344-8.512-8.064-8.224-23.792 1.12-47.632 1.648-71.44 2.4-2.672 0.080-5.328 0.4-8.496 0.656 0 37.12 0 73.808 0 111.984z" />
<glyph unicode="&#xe97d;" d="M685.424 542.736c29.008-3.968 57.856-7.888 86.96-11.856 0-36.832 0-72.784 0-109.872-13.072 1.232-25.648 2.32-38.144 3.648-14.512 1.536-29.008 3.328-43.552 4.896-3.872 0.384-6.624 1.104-6.592 6.080 0.224 34.672 0.224 69.36 0.32 104.064 0 0.496 0.32 0.992 1.008 3.040z" />
<glyph unicode="&#xe97e;" d="M832.096 198.528c29.504-1.6 58.144-3.12 87.408-4.704 0-35.344 0-70.16 0-105.632-9.696 0-19.088-0.144-28.496 0.032-17.632 0.336-35.248 0.976-52.88 1.2-4.72 0.080-6.768 1.44-6.736 6.544 0.192 32.272 0.096 64.544 0.128 96.848 0 1.568 0.304 3.152 0.576 5.712z" />
<glyph unicode="&#xe97f;" d="M832.016 576.56c0 35.872 0 71.264 0 107.696 3.296-0.32 6.416-0.4 9.456-0.928 24.832-4.304 49.648-8.608 74.4-13.2 1.632-0.304 3.984-2.96 3.984-4.544 0.24-33.584 0.176-67.168 0.176-102.32-29.712 4.496-58.656 8.864-88.016 13.296z" />
<glyph unicode="&#xe980;" d="M832.096 522.816c29.344-4 58.208-7.936 87.568-11.92 0-35.152 0-69.904 0-106-29.248 3.12-58.128 6.224-87.568 9.376 0 36.384 0 72.192 0 108.544z" />
<glyph unicode="&#xe981;" d="M920.080 246.352c-29.984 1.888-58.784 3.744-87.984 5.584 0 36.304 0 71.68 0 108 3.136 0 6.288 0.24 9.376-0.032 22.912-2.096 45.808-4.592 68.736-6.272 8.032-0.592 10.32-3.36 10.16-11.44-0.576-28.704-0.272-57.44-0.288-86.176 0-2.656 0-5.312 0-9.664z" />
<glyph unicode="&#xe982;" d="M459.12 550.272c-0.288-33.904-12.016-52.256-33.696-59.104-25.328-7.984-53.296 1.52-68.24 24.752-14.832 23.072-16.512 48.032-4.688 72.864 12.048 25.28 47.968 32.128 75.168 14.832 21.76-13.824 31.008-34.56 31.456-53.344zM429.424 547.216c-1.104 12.688-4.032 21.632-10.72 29.712-11.776 14.208-32.768 11.76-39.312-5.264-6.288-16.352-4.96-32.608 6.080-46.896 11.040-14.304 31.488-12.656 38.624 3.136 2.736 6.016 3.616 12.848 5.328 19.312z" />
<glyph unicode="&#xe983;" d="M448.784 633.952c-9.008 1.296-18.528 2.672-28.928 4.16 0 13.952-0.304 27.456 0.144 40.944 0.192 6.176-1.792 8.624-7.968 9.2-8.848 0.816-17.616 2.544-27.52 4.048 0-16.208 0-31.728 0-48.608-10.432 1.328-19.68 2.512-29.504 3.744 0 40.544 0 80.496 0 121.808 9.216-1.632 17.968-2.88 26.512-4.976 1.376-0.336 2.592-4.288 2.656-6.608 0.288-10.576 0.304-21.168 0.032-31.728-0.112-4.432 1.424-6.192 5.84-6.736 9.616-1.216 19.152-2.944 29.824-4.64 0 14.688 0 28.4 0 43.12 9.584-1.568 18.112-2.736 26.496-4.56 1.6-0.336 3.744-3.328 3.76-5.072 0.064-37.408-0.128-74.816-0.288-112.224 0.032-0.272-0.24-0.496-1.056-1.872z" />
<glyph unicode="&#xe984;" d="M224.032 582.464c0-39.76 0-78.128 0-117.76-20.688-1.216-41.344-2.416-62.64-3.68 0 36.432 0 72.080 0 108.832 20.416 4.128 41.168 8.288 62.64 12.608z" />
<glyph unicode="&#xe985;" d="M224.032 402.448c0-39.824 0-78.24 0-117.568-16.288 2.432-32.032 4.496-47.664 7.216-15.536 2.688-15.52 2.976-15.536 18.976-0.016 30.336 0 60.688 0 91.376 21.12 0 41.792 0 63.2 0z" />
<glyph unicode="&#xe986;" d="M223.92 644.656c-20.544-5.6-41.328-11.264-63.088-17.168 0 8.624 0 16.176 0 23.728 0 26.032 0.16 52.080-0.144 78.112-0.064 5.568 1.776 8.048 6.912 10.048 18.608 7.232 37.008 15.024 56.336 22.96-0.016-39.664-0.016-78.272-0.016-117.68z" />
<glyph unicode="&#xe987;" d="M437.488 309.616c0-9.168 0-17.44 0-26.752-14.432 0.992-28.352 1.92-42.944 2.912 0-5.76 0-11.248 0-17.584 11.648-0.592 22.96-1.408 34.288-1.648 5.232-0.096 7.264-1.904 6.976-7.2-0.336-6.4-0.080-12.848-0.080-20.032-14.32 0.688-27.456 1.328-41.264 1.968 0-7.504 0-14.336 0-22.16 12.624-0.496 25.008-1.408 37.424-1.376 6.784 0.032 9.136-2.384 8.64-8.992-0.448-5.856-0.080-11.776-0.080-18.096-5.712 0-10.272-0.176-14.8 0.032-18.4 0.8-36.8 1.808-55.2 2.512-4.208 0.176-6.464 1.12-6.448 5.968 0.16 37.392 0.144 74.8 0.192 112.208 0 0.784 0.336 1.536 0.848 3.648 23.968-1.792 48.064-3.6 72.448-5.408z" />
<glyph unicode="&#xe988;" d="M449.408 429.088c-10.896 0.88-21.040 1.696-32.112 2.608 0-30.944 0-61.168 0-92.656-10.512 0.992-20 1.856-30.272 2.816 0 31.376 0 62.144 0 93.488-9.312 0.8-17.856 1.728-26.432 2.192-4.448 0.24-6.288 1.968-6.144 6.464 0.208 6.96 0.048 13.952 0.048 21.92 32.096-3.472 63.2-6.832 94.896-10.272 0.016-8.592 0.016-16.832 0.016-26.56z" />
<glyph unicode="&#xe989;" d="M365.040 164.512c9.76 0 18.848 0 28.896 0 0-31.392 0-61.888 0-94.576 13.568 0 26.208-0.304 38.832 0.144 6.288 0.208 7.792-2.080 7.584-8.032-0.704-19.808-0.496-19.728-20.192-19.216-16.256 0.432-32.528 0.672-48.784 0.832-4.256 0.032-7.184 0.336-7.168 5.952 0.224 37.408 0.176 74.848 0.256 112.272 0 0.752 0.32 1.52 0.576 2.624z" />
<glyph unicode="&#xe98a;" d="M429.424 547.216c-1.712-6.464-2.592-13.312-5.312-19.312-7.136-15.792-27.584-17.44-38.624-3.136s-12.368 30.544-6.080 46.896c6.544 17.024 27.52 19.472 39.312 5.264 6.672-8.080 9.6-17.008 10.704-29.712z" />
<glyph unicode="&#xe98b;" d="M611.68 401.136c-2.176 1.92-3.104 2.688-3.984 3.52-52.96 51.6-106.064 103.088-158.768 154.96-6.352 6.256-12.464 9.296-21.408 8.192-10.496-1.296-18.128-8.368-18.848-18.752-0.288-4.192-0.704-8.384-0.736-12.592-0.288-43.264-0.64-86.512-0.64-129.792 0-5.68-1.456-7.392-7.44-7.392-104.32-0.064-208.656-0.272-312.976-0.672-22.32-0.096-44.656-0.944-66.976-1.776-15.664-0.592-20.528-5.824-20.896-21.184-0.192-7.792-0.88-15.616-0.864-23.408 0.208-133.408 0.48-266.8 0.768-400.224 0.032-8.144 8.336-16.016 16.8-16.016 330.432 0 660.864 0 991.28 0 8.704 0 17.008 8.048 17.008 16.528-0.080 144.624-0.256 289.232-0.144 433.824 0 8.512-2.672 14.752-8.784 20.64-38.448 37.184-76.56 74.72-115.056 111.856-15.712 15.184-32.144 29.712-48.304 44.48-5.904 5.408-13.312 6.576-19.856 2.736-6.864-4.048-13.888-8.336-13.792-18.656 0.432-47.664 0.208-95.344 0.192-143.040 0-2.064-0.192-4.16-0.336-7.168-2.336 2.208-3.968 3.648-5.52 5.152-54.256 52.928-108.64 105.712-162.512 159.008-6.352 6.272-12.688 7.104-20.336 6.24-8.592-0.976-17.872-11.392-17.872-19.76 0-46.464 0-92.944 0-139.424 0-1.904 0-3.856 0-7.28zM160.576 414.88c1.52 35.936 2.992 70.768 4.464 105.568 34.832 0 68.976 0 104.336 0 1.328-35.216 2.64-70.080 3.936-105.152 2.432-0.112 4.032-0.256 5.664-0.256 11.792-0.064 11.984-0.048 11.568 11.552-1.472 42.592-3.040 85.2-4.672 127.808-2.72 71.6-5.488 143.216-8.32 214.816-0.192 4.576-0.672 9.216-1.68 13.68-1.584 6.976-10.944 16.448-16.128 16.416-27.44-0.224-54.88-0.32-82.32-1.056-12.368-0.336-18.992-7.456-19.552-19.552-2.496-52.992-5.12-105.968-7.264-158.976-2.624-65.2-4.8-130.416-7.152-195.648-0.080-2.528 0-5.056 0-7.936 5.664-0.432 10.704-0.8 17.12-1.264zM345.408 880.496c-0.304 0.224-0.688 0.4-0.912 0.688-0.832 1.136-1.648 2.304-2.416 3.472-11.168 16.72-27.568 22.336-46.832 19.312-18.080-2.848-29.056-15.056-34.944-31.152-2.32-6.368-5.008-8.976-11.872-9.12-8.736-0.176-17.968-9.008-19.984-17.824-1.776-7.728 3.088-16.96 11.664-22.096 7.92-4.752 17.184-4.304 24.336 2.352 4.256 3.984 6.848 2.992 10.688-0.144 10.992-8.992 23.776-12.528 37.824-9.408 6.48 1.44 12.592 4.496 19.12 6.896 0.336-0.784 0.832-1.648 1.072-2.56 12-47.088 69.424-67.584 109.68-39.184 11.312 7.984 19.472 18.304 24.144 31.072 1.952 5.296 4.064 7.664 10.592 6.224 5.808-1.296 12.24-0.896 18.272-0.176 24.896 2.944 41.68 26.88 36.832 51.968-4.768 24.512-30.192 40.816-54.208 34.784-11.344-2.832-21.392-7.712-28.256-17.296-44.512 26.144-62.56 24.752-104.8-7.808z" />
<glyph unicode="&#xe98c;" d="M611.68 401.136c0 3.424 0 5.376 0 7.28 0 46.496 0 92.976 0 139.424 0 8.368 9.28 18.784 17.872 19.76 7.648 0.88 13.968 0.032 20.336-6.24 53.872-53.296 108.272-106.064 162.512-159.008 1.552-1.52 3.168-2.96 5.52-5.152 0.144 3.008 0.336 5.104 0.336 7.168 0.016 47.696 0.256 95.36-0.192 143.040-0.096 10.304 6.944 14.592 13.792 18.656 6.544 3.84 13.952 2.672 19.856-2.736 16.16-14.768 32.576-29.296 48.304-44.48 38.496-37.136 76.608-74.672 115.056-111.856 6.112-5.888 8.784-12.128 8.784-20.64-0.112-144.592 0.064-289.2 0.144-433.824 0.016-8.48-8.304-16.528-16.992-16.528-330.416 0-660.848 0-991.28 0-8.48 0-16.768 7.872-16.8 16.016-0.288 133.424-0.576 266.816-0.768 400.224-0.016 7.792 0.672 15.616 0.864 23.408 0.368 15.36 5.248 20.592 20.896 21.184 22.32 0.848 44.656 1.68 66.976 1.776 104.32 0.4 208.656 0.608 312.976 0.672 5.984 0 7.44 1.696 7.44 7.392 0 43.28 0.352 86.528 0.64 129.792 0.032 4.208 0.448 8.4 0.736 12.592 0.72 10.384 8.352 17.456 18.848 18.752 8.944 1.088 15.056-1.936 21.408-8.192 52.704-51.872 105.808-103.36 158.768-154.96 0.864-0.832 1.808-1.6 3.968-3.52zM908.688 227.408c0 2.48 0 4.432 0 6.4 0.032 22.032-0.16 44.064 0.224 66.080 0.112 5.968-1.344 7.696-7.728 7.68-91.168-0.224-182.336-0.176-273.504-0.192-2.384 0-4.784 0-7.392 0 0-27.136 0-53.44 0-79.984 96.048 0.016 191.664 0.016 288.4 0.016zM114.688 307.392c0-27.104 0-53.408 0-79.84 96.256 0 192 0 288.432 0 0 2.784 0 5.136 0 7.488 0 21.408 0 42.848 0 64.272 0 8.128 0 8.128-8.272 8.128-91.152 0-182.32-0.016-273.472-0.032-2.016-0.016-4.032-0.016-6.688-0.016z" />
<glyph unicode="&#xe98d;" d="M160.576 414.88c-6.416 0.464-11.44 0.848-17.136 1.28 0 2.88-0.080 5.408 0 7.936 2.352 65.232 4.544 130.448 7.152 195.648 2.144 53.008 4.768 105.984 7.264 158.976 0.576 12.096 7.184 19.216 19.552 19.552 27.44 0.736 54.88 0.848 82.32 1.056 5.184 0.032 14.544-9.44 16.128-16.416 1.008-4.464 1.488-9.104 1.68-13.68 2.832-71.6 5.6-143.216 8.32-214.816 1.632-42.608 3.2-85.216 4.672-127.808 0.4-11.6 0.224-11.616-11.568-11.552-1.616 0-3.232 0.144-5.664 0.256-1.312 35.056-2.624 69.936-3.936 105.152-35.376 0-69.504 0-104.336 0-1.456-34.816-2.944-69.664-4.448-105.584zM168.896 602.224c31.824 0 63.872 0 96.032 0 0.272 1.584 0.528 2.336 0.496 3.088-1.040 33.808-2.192 67.6-3.072 101.408-0.128 4.72-2.88 4.384-6.048 4.384-26.016-0.016-52.016-0.112-78.032 0.096-4.656 0.032-5.888-1.504-6.048-5.792-0.96-23.184-2.352-46.368-3.248-69.552-0.432-11.168-0.080-22.352-0.080-33.632z" />
<glyph unicode="&#xe98e;" d="M345.408 880.512c42.224 32.56 60.288 33.936 104.784 7.792 6.848 9.584 16.912 14.464 28.256 17.296 24.016 6.032 49.44-10.272 54.208-34.784 4.864-25.088-11.936-49.008-36.832-51.968-6.016-0.72-12.448-1.104-18.272 0.176-6.528 1.44-8.656-0.928-10.592-6.224-4.672-12.768-12.832-23.088-24.144-31.072-40.256-28.4-97.68-7.904-109.68 39.184-0.24 0.928-0.752 1.776-1.072 2.56-6.528-2.4-12.64-5.456-19.12-6.896-14.048-3.12-26.832 0.416-37.824 9.408-3.84 3.136-6.432 4.128-10.688 0.144-7.152-6.656-16.416-7.104-24.336-2.352-8.56 5.136-13.424 14.352-11.664 22.096 2.016 8.8 11.248 17.648 19.984 17.824 6.88 0.144 9.552 2.736 11.872 9.12 5.872 16.096 16.848 28.32 34.944 31.152 19.264 3.024 35.664-2.576 46.832-19.312 0.784-1.168 1.584-2.336 2.416-3.472 0.24-0.272 0.624-0.464 0.928-0.672z" />
<glyph unicode="&#xe98f;" d="M908.688 227.408c-96.736 0-192.336 0-288.4 0 0 26.544 0 52.848 0 79.984 2.608 0 5.008 0 7.392 0 91.168 0.016 182.336-0.032 273.504 0.192 6.384 0.016 7.84-1.712 7.728-7.68-0.368-22.016-0.192-44.048-0.224-66.080 0-1.984 0-3.936 0-6.416z" />
<glyph unicode="&#xe990;" d="M114.688 307.392c2.672 0 4.672 0 6.688 0 91.168 0.016 182.32 0.032 273.472 0.032 8.256 0 8.256 0 8.272-8.128 0-21.424 0-42.864 0-64.272 0-2.336 0-4.704 0-7.488-96.416 0-192.176 0-288.432 0 0 26.448 0 52.752 0 79.856z" />
<glyph unicode="&#xe991;" d="M168.896 602.224c0 11.28-0.352 22.464 0.080 33.632 0.896 23.184 2.304 46.368 3.248 69.552 0.176 4.304 1.408 5.84 6.048 5.792 26.016-0.224 52.016-0.112 78.032-0.096 3.168 0 5.92 0.336 6.048-4.384 0.896-33.808 2.032-67.6 3.072-101.408 0.016-0.736-0.24-1.504-0.496-3.088-32.16 0-64.208 0-96.032 0z" />
<glyph unicode="&#xe992;" d="M1018.736 229.824c-45.44-0.016-90.832-0.048-136.272-0.064-87.296 0-174.576 0-261.888 0-2.176 0-4.336 0-7.232 0 0 2.288 0 4.224 0 6.192 0 51.84-0.048 103.664 0.080 155.488 0 3.728-1.008 6.192-3.936 8.544-21.792 17.52-46.768 27.424-74.272 30.96-37.264 4.768-72.688-0.912-105.328-20.288-5.488-3.248-10.432-7.424-15.728-11.008-2.864-1.92-3.568-4.368-3.568-7.696 0.096-51.824 0.064-103.664 0.064-155.504 0-2 0-4 0-6.304-1.632-0.16-2.928-0.352-4.208-0.352-133.216-0.032-266.448-0.032-399.664-0.016-0.496 0-1.008 0.048-1.52 0.048 0 71.952 0 143.92 0 215.872 2-0.16 4-0.464 6-0.464 333.824-0.016 667.648-0.016 1001.472 0 2 0 4 0.32 6 0.464 0-71.952 0-143.92 0-215.872zM918.912 351.568c7.536 0 14.8 0 22.112 0 0 7.488 0 14.576 0 21.632-7.6 0-14.72 0-22.112 0 0-7.36 0-14.352 0-21.632zM108.208 351.472c7.52 0 14.672 0 22.128 0 0 7.376 0 14.464 0 21.808-7.504 0-14.64 0-22.128 0 0-7.232 0-14.24 0-21.808zM231.696 351.472c0 7.6 0 14.576 0 21.664-7.584 0-14.864 0-22.16 0 0-7.44 0-14.416 0-21.664 7.488 0 14.656 0 22.16 0zM310.832 351.584c7.536 0 14.8 0 22.096 0 0 7.472 0 14.592 0 21.616-7.6 0-14.736 0-22.096 0 0-7.392 0-14.352 0-21.616zM738.496 373.232c-7.68 0-14.848 0-22.16 0 0-7.456 0-14.544 0-21.696 7.568 0 14.72 0 22.16 0 0 7.28 0 14.272 0 21.696zM839.936 373.12c-7.744 0-15.008 0-22.32 0 0-7.424 0-14.4 0-21.504 7.6 0 14.88 0 22.32 0 0 7.328 0 14.16 0 21.504zM690.88 351.568c7.616 0 14.592 0 21.6 0 0 7.456 0 14.544 0 21.648-7.424 0-14.368 0-21.6 0 0-7.376 0-14.352 0-21.648zM184.176 351.6c7.408 0 14.512 0 21.728 0 0 7.36 0 14.336 0 21.584-7.408 0-14.512 0-21.728 0 0-7.424 0-14.4 0-21.584zM104.48 351.488c0 7.616 0 14.608 0 21.776-7.344 0-14.32 0-21.6 0 0-7.392 0-14.512 0-21.776 7.36 0 14.352 0 21.6 0zM915.312 373.248c-7.456 0-14.416 0-21.632 0 0-7.424 0-14.528 0-21.744 7.36 0 14.352 0 21.632 0 0 7.28 0 14.272 0 21.744zM307.344 373.264c-7.52 0-14.496 0-21.76 0 0-7.408 0-14.512 0-21.616 7.472 0 14.592 0 21.76 0 0 7.344 0 14.192 0 21.616zM792.144 351.632c7.6 0 14.72 0 21.776 0 0 7.424 0 14.416 0 21.488-7.44 0-14.528 0-21.776 0 0-7.312 0-14.16 0-21.488zM738.352 327.536c0 6.912 0 13.2 0 19.456-7.6 0-14.752 0-22.080 0 0-6.64 0-12.928 0-19.456 7.504 0 14.672 0 22.080 0zM839.84 346.976c-7.744 0-14.912 0-22.176 0 0-6.64 0-12.928 0-19.248 7.632 0 14.896 0 22.176 0 0 6.608 0 12.752 0 19.248zM941.136 327.456c0 6.8 0 13.072 0 19.44-7.632 0-14.896 0-22.064 0 0-6.736 0-13.024 0-19.44 7.456 0 14.512 0 22.064 0zM130.288 327.536c0 6.912 0 13.2 0 19.456-7.6 0-14.752 0-22.064 0 0-6.64 0-12.928 0-19.456 7.472 0 14.64 0 22.064 0zM209.456 327.6c7.744 0 14.896 0 22.256 0 0 6.608 0 12.896 0 19.296-7.6 0-14.848 0-22.256 0 0-6.56 0-12.72 0-19.296zM333.088 346.928c-7.584 0-14.848 0-22.128 0 0-6.688 0-12.992 0-19.344 7.552 0 14.704 0 22.128 0 0 6.592 0 12.88 0 19.344zM691.008 347.008c0-6.736 0-13.024 0-19.44 7.344 0 14.336 0 21.632 0 0 6.56 0 12.864 0 19.44-7.264 0-14.272 0-21.632 0zM814 346.896c-7.488 0-14.576 0-21.632 0 0-6.704 0-13.008 0-19.296 7.392 0 14.384 0 21.632 0 0 6.48 0 12.656 0 19.296zM893.616 327.648c7.392 0 14.496 0 21.632 0 0 6.672 0 12.976 0 19.376-7.376 0-14.336 0-21.632 0 0-6.576 0-12.864 0-19.376zM285.552 347.136c0-6.8 0-13.072 0-19.44 7.456 0 14.56 0 21.536 0 0 6.72 0 13.008 0 19.44-7.296 0-14.16 0-21.536 0zM104.528 346.96c-7.584 0-14.56 0-21.648 0 0-6.64 0-12.928 0-19.408 7.344 0 14.336 0 21.648 0 0 6.56 0 12.848 0 19.408zM205.872 327.456c0 6.736 0 13.008 0 19.456-7.424 0-14.512 0-21.6 0 0-6.72 0-13.008 0-19.456 7.264 0 14.112 0 21.6 0zM918.96 377.808c7.536 0 14.8 0 22.144 0 0 6.192 0 11.968 0 17.664-7.664 0-14.928 0-22.144 0 0-6.128 0-11.792 0-17.664zM332.992 377.68c0 6.352 0 12.128 0 17.968-7.552 0-14.704 0-22.128 0 0-6.080 0-11.888 0-17.968 7.456 0 14.608 0 22.128 0zM738.544 395.664c-7.68 0-14.848 0-22.304 0 0-6.080 0-11.872 0-17.856 7.552 0 14.816 0 22.304 0 0 6.064 0 11.744 0 17.856zM130.416 395.536c-7.632 0-14.912 0-22.128 0 0-6.192 0-11.952 0-17.776 7.552 0 14.688 0 22.128 0 0 5.968 0 11.616 0 17.776zM839.872 395.648c-7.712 0-14.864 0-22.272 0 0-6.096 0-11.872 0-17.792 7.584 0 14.848 0 22.272 0 0 6.080 0 11.728 0 17.792zM209.472 377.744c7.744 0 14.896 0 22.224 0 0 6.144 0 11.92 0 17.776-7.6 0-14.864 0-22.224 0 0-6.064 0-11.728 0-17.776zM184.144 377.84c7.52 0 14.608 0 21.616 0 0 6.224 0 11.984 0 17.76-7.408 0-14.384 0-21.616 0 0-5.952 0-11.616 0-17.76zM893.632 395.648c0-6.096 0-11.872 0-17.824 7.408 0 14.512 0 21.584 0 0 6.224 0 11.984 0 17.824-7.392 0-14.368 0-21.584 0zM792.336 395.648c0-6.24 0-12 0-17.968 7.344 0 14.336 0 21.616 0 0 6.080 0 11.872 0 17.968-7.2 0-14.208 0-21.616 0zM690.864 377.744c7.6 0 14.56 0 21.728 0 0 6.128 0 11.888 0 17.776-7.408 0-14.496 0-21.728 0 0-6.032 0-11.712 0-17.776zM104.544 377.68c0 6.096 0 11.888 0 17.888-7.376 0-14.48 0-21.632 0 0-6.176 0-11.936 0-17.888 7.376 0 14.352 0 21.632 0zM307.328 395.664c-7.536 0-14.512 0-21.792 0 0-6.064 0-11.856 0-17.872 7.392 0 14.48 0 21.792 0 0 6.080 0 11.744 0 17.872z" />
<glyph unicode="&#xe993;" d="M5.264 533.888c28.032 0.032 56.064 0.080 84.096 0.080 88 0 176 0 264 0 1.984 0 3.984 0 6.288 0 0 65.888 0 131.328 0 197.344-2.672 0-5.44 0-8.192 0-0.208 0.4-0.384 0.8-0.592 1.2 53.616 50.208 107.216 100.416 161.136 150.896 53.888-50.448 107.456-100.608 161.872-151.584-3.792-0.192-6.528-0.336-9.568-0.48 0-65.648 0-131.104 0-197.36 2.096 0 4.224 0 6.336 0 113.824 0 227.664 0 341.52 0 2.192 0 4.368-0.048 6.576-0.080 0-27.36 0-54.72 0-82.080-2.032-0.032-4.048-0.112-6.080-0.112-333.776-0.016-667.552-0.016-1001.328 0-2.016 0-4.048 0.080-6.064 0.112 0 27.328 0 54.704 0 82.064zM507.44 695.664c-9.424 0-18.272 0-27.2 0 0-6.416 0-12.496 0-18.544 9.296 0 18.112 0 27.2 0 0 6.288 0 12.256 0 18.544zM516.64 695.76c0-6.592 0-12.576 0-18.544 9.296 0 18.272 0 27.2 0 0 6.384 0 12.352 0 18.544-9.184 0-18.048 0-27.2 0zM553.216 695.808c0-6.56 0-12.672 0-18.592 9.472 0 18.464 0 27.376 0 0 6.4 0 12.4 0 18.592-9.184 0-18.112 0-27.376 0zM397.472 695.616c-9.392 0-18.24 0-27.040 0 0-6.368 0-12.336 0-18.528 9.136 0 17.968 0 27.040 0 0 6.272 0 12.272 0 18.528zM433.808 677.072c0 6.368 0 12.464 0 18.56-9.232 0-18.048 0-26.944 0 0-6.352 0-12.336 0-18.56 9.12 0 17.952 0 26.944 0zM443.344 695.808c0-6.528 0-12.512 0-18.72 9.104 0 17.952 0 26.944 0 0 6.368 0 12.464 0 18.72-9.136 0-17.84 0-26.944 0zM589.936 677.12c9.392 0 18.208 0 27.040 0 0 6.432 0 12.544 0 18.48-9.248 0-18.080 0-27.040 0 0-6.288 0-12.176 0-18.48zM653.696 695.568c-8.96 0-17.92 0-27.040 0 0-6.224 0-12.32 0-18.384 9.216 0 18.064 0 27.040 0 0 6.208 0 12.080 0 18.384zM553.072 673.376c0-6.176 0-11.824 0-17.76 9.296 0 18.32 0 27.488 0 0 6 0 11.792 0 17.76-9.216 0-18.112 0-27.488 0zM543.888 673.2c-9.28 0-18.224 0-27.296 0 0-6.032 0-11.664 0-17.504 9.232 0 18.192 0 27.296 0 0 6.016 0 11.632 0 17.504zM507.52 673.152c-9.424 0-18.368 0-27.36 0 0-6.080 0-11.712 0-17.424 9.264 0 18.224 0 27.36 0 0 5.936 0 11.44 0 17.424zM397.44 673.28c-9.104 0-17.952 0-26.992 0 0-6.048 0-11.84 0-17.6 9.184 0 18.016 0 26.992 0 0 6.016 0 11.664 0 17.6zM434.032 673.232c-9.392 0-18.224 0-27.024 0 0-6.128 0-11.92 0-17.488 9.28 0 18.128 0 27.024 0 0 5.968 0 11.52 0 17.488zM470.416 673.2c-9.392 0-18.24 0-27.072 0 0-6.048 0-11.712 0-17.584 9.12 0 17.952 0 27.072 0 0 5.936 0 11.584 0 17.584zM617.136 673.28c-9.088 0-17.936 0-26.976 0 0-6.032 0-11.808 0-17.6 9.2 0 18.032 0 26.976 0 0 6.016 0 11.664 0 17.6zM626.656 673.28c0-6.048 0-11.808 0-17.6 9.2 0 18.048 0 26.96 0 0 6.016 0 11.664 0 17.6-9.104 0-17.936 0-26.96 0zM480.208 716.208c0-5.584 0-11.008 0-16.528 9.28 0 18.224 0 27.072 0 0 5.776 0 11.088 0 16.528-9.152 0-17.92 0-27.072 0zM543.936 716c-9.456 0-18.32 0-27.296 0 0-5.664 0-10.976 0-16.304 9.28 0 18.272 0 27.296 0 0 5.632 0 10.832 0 16.304zM580.528 699.456c0 5.76 0 11.2 0 16.512-9.376 0-18.352 0-27.408 0 0-5.68 0-10.992 0-16.512 9.216 0 18.064 0 27.408 0zM433.776 699.456c0 5.776 0 11.2 0 16.512-9.248 0-18.064 0-26.88 0 0-5.68 0-10.976 0-16.512 8.992 0 17.696 0 26.88 0zM470.272 699.536c0 5.728 0 11.12 0 16.448-9.248 0-18.064 0-26.912 0 0-5.68 0-10.992 0-16.448 9.12 0 17.952 0 26.912 0zM617.264 716.064c-9.296 0-18.128 0-27.024 0 0-5.696 0-11.104 0-16.448 9.248 0 18.064 0 27.024 0 0 5.552 0 10.736 0 16.448zM626.528 699.632c9.472 0 18.272 0 27.008 0 0 5.712 0 11.008 0 16.416-9.152 0-17.968 0-27.008 0 0-5.6 0-10.896 0-16.416zM370.352 699.616c9.392 0 18.208 0 27.040 0 0 5.68 0 10.992 0 16.464-9.152 0-17.984 0-27.040 0 0-5.584 0-10.88 0-16.464zM432.608 528.144c4.096 0 7.856 0 11.568 0 1.312 14.208 2.176 13.328-11.568 11.888 0-3.904 0-7.808 0-11.888zM594.816 540.304c0-4.272 0-8.192 0-12.096 4.144 0 7.888 0 11.616 0 1.072 14.56 2.064 12.848-11.616 12.096zM429.136 540.144c-12.080 2.016-14.576-0.752-11.2-12.032 3.648 0 7.296 0 11.2 0 0 4.208 0 8.144 0 12.032zM591.36 540.192c-12.048 1.776-12.912 0.992-12.096-10.368 0.032-0.48 0.304-0.944 0.544-1.664 3.744 0 7.504 0 11.552 0 0 4.080 0 7.904 0 12.032zM429.168 525.344c-4.096 0-7.84 0-11.648 0 0-3.552 0-6.752 0-9.904 4.176 0 7.92 0 11.648 0 0 3.568 0 6.688 0 9.904zM432.704 525.44c0-3.632 0-6.832 0-10.016 4.208 0 7.968 0 11.728 0 0 3.552 0 6.672 0 10.016-3.968 0-7.616 0-11.728 0zM591.376 525.424c-4.24 0-7.872 0-11.776 0 0-3.456 0-6.672 0-10.048 4.096 0 7.824 0 11.776 0 0 3.472 0 6.576 0 10.048zM606.624 525.312c-4.224 0-8 0-11.888 0 0-3.488 0-6.592 0-10 4.064 0 7.824 0 11.888 0 0 3.408 0 6.512 0 10zM444.512 552.416c-4.208 0-7.952 0-11.888 0 0-3.296 0-6.208 0-9.216 4.112 0 7.872 0 11.888 0 0 3.12 0 5.904 0 9.216zM591.312 543.12c0 3.28 0 6.176 0 9.328-4.080 0-7.824 0-11.744 0 0-3.264 0-6.176 0-9.328 3.92 0 7.568 0 11.744 0zM594.768 543.152c4.032 0 7.792 0 11.856 0 0 3.168 0 6.080 0 9.312-4.064 0-7.792 0-11.856 0 0-3.216 0-6.128 0-9.312zM428.912 543.136c1.152 10.16 2.64 10.672-11.52 8.944 0-2.88 0-5.792 0-8.944 3.936 0 7.568 0 11.52 0z" />
<glyph unicode="&#xe994;" d="M5.264-15.424c132.048 0 264.112-0.032 396.16-0.032 1.152 0 2.304 0.144 3.824 0.272 10.176 80.304 20.32 160.4 30.544 241.008-6.368 0-12.384 0-18.944 0-0.144 2-0.352 3.616-0.352 5.184-0.016 25.68 0.080 51.36-0.128 77.024-0.016 3.904 1.424 5.584 4.832 6.944 23.008 9.2 47.040 13.216 71.6 14.656 33.44 1.936 66.464-0.464 98.624-10.576 16.128-5.088 16.096-5.184 16.096-21.712 0-21.792 0-43.584 0-65.36 0-1.808 0-3.648 0-6.048-6.72 0-12.88 0-19.328 0 10.224-80.608 20.352-160.576 30.544-240.96 1.264-0.16 2.56-0.432 3.84-0.432 132.048 0 264.096 0.032 396.16 0.032zM508.72 322.16c-27.888-0.64-54.752-3.664-80.592-13.184-2.624-0.96-3.616-2.224-3.6-5.072 0.128-22.128 0.064-44.24 0.080-66.352 0-0.976 0.208-1.936 0.352-3.168 27.968 0 55.712 0 83.744 0 0.016 29.216 0.016 58.16 0.016 87.776zM515.2 234.4c28.24 0 55.984 0 83.84 0 0.144 1.136 0.336 1.968 0.336 2.768 0.016 22.304-0.064 44.592 0.080 66.88 0.032 3.056-1.392 4.032-3.808 4.928-18.64 6.96-38.016 10.432-57.744 12.032-7.504 0.608-15.008 0.864-22.704 1.264 0-29.744 0-58.576 0-87.872zM596.016 3.2c-56.336 0-112.080 0-168.048 0-0.784-6.32-1.536-12.24-2.288-18.272 57.856 0 115.104 0 172.688 0-0.816 6.256-1.552 12.096-2.352 18.272zM430.672 23.68c54.4 0 108.288 0 162.672 0-0.448 3.696-1.152 7.024-1.12 10.336 0.048 4.8-1.808 6.16-6.624 6.128-49.104-0.192-98.208-0.096-147.312-0.112-1.008 0-2.176 0.32-2.992-0.096-1.152-0.56-2.768-1.536-2.944-2.528-0.784-4.416-1.12-8.944-1.68-13.728zM435.312 57.616c51.328 0 102.368 0 153.776 0-0.336 2.992-1.056 5.664-0.912 8.288 0.272 5.296-2.272 6.192-7.024 6.176-44.064-0.176-88.080-0.112-132.112-0.112-13.424 0-13.424 0-13.92-13.52-0.032-0.144 0.048-0.288 0.192-0.832zM583.664 100.832c-47.92 0-95.408 0-143.312 0-0.528-4.288-1.008-8.336-1.52-12.496 49.088 0 97.568 0 146.384 0-0.528 4.256-0.992 8.080-1.552 12.496zM442.176 115.68c46.816 0 93.104 0 139.648 0-0.592 4.384-1.136 8.368-1.68 12.528-45.552 0-90.704 0-136.24 0-0.576-4.128-1.136-8.112-1.728-12.528zM578.496 141.664c-0.544 4.096-1.008 7.568-1.488 11.008-43.616 0-86.704 0-130.112 0-0.448-3.744-0.848-7.2-1.296-11.008 44.4 0 88.336 0 132.896 0zM448.624 164.992c42.384 0 84.448 0 126.528 0-0.336 10.064-0.336 10.064-9.824 10.064-35.424 0-70.832 0-106.272 0-9.488-0.016-9.488-0.016-10.432-10.064zM571.76 194.064c-40.144 0-79.76 0-119.584 0-0.368-2.992-0.704-5.776-1.072-8.72 40.848 0 81.2 0 121.888 0-0.448 3.088-0.816 5.744-1.232 8.72zM453.216 203.056c39.488 0 78.352 0 117.6 0-0.448 2.736-0.848 4.976-1.2 7.152-38.672 0-76.928 0-115.312 0-0.368-2.384-0.688-4.544-1.088-7.152zM455.152 218.256c38.24 0 75.776 0 113.712 0-0.416 2.752-0.8 5.008-1.184 7.488-37.216 0-74.128 0-111.344 0-0.384-2.464-0.768-4.752-1.184-7.488z" />
<glyph unicode="&#xe995;" d="M5.264 451.792c2.016-0.032 4.048-0.112 6.064-0.112 333.776-0.016 667.536-0.016 1001.328 0 2.032 0 4.048 0.080 6.080 0.112 0-2.032 0-4.064 0-6.096-2-0.16-4-0.464-6-0.464-333.824-0.016-667.648-0.016-1001.472 0-2 0-4 0.32-6 0.464 0 2.032 0 4.064 0 6.096z" />
<glyph unicode="&#xe996;" d="M918.912 351.568c0 7.28 0 14.288 0 21.632 7.392 0 14.512 0 22.112 0 0-7.040 0-14.144 0-21.632-7.328 0-14.592 0-22.112 0z" />
<glyph unicode="&#xe997;" d="M108.208 351.472c0 7.584 0 14.576 0 21.808 7.488 0 14.624 0 22.128 0 0-7.344 0-14.432 0-21.808-7.456 0-14.624 0-22.128 0z" />
<glyph unicode="&#xe998;" d="M231.696 351.472c-7.504 0-14.672 0-22.16 0 0 7.232 0 14.224 0 21.664 7.296 0 14.576 0 22.16 0 0-7.088 0-14.080 0-21.664z" />
<glyph unicode="&#xe999;" d="M310.832 351.584c0 7.264 0 14.24 0 21.616 7.344 0 14.496 0 22.096 0 0-7.008 0-14.144 0-21.616-7.296 0-14.56 0-22.096 0z" />
<glyph unicode="&#xe99a;" d="M738.496 373.232c0-7.424 0-14.416 0-21.696-7.44 0-14.592 0-22.16 0 0 7.152 0 14.256 0 21.696 7.328 0 14.48 0 22.16 0z" />
<glyph unicode="&#xe99b;" d="M839.936 373.12c0-7.344 0-14.192 0-21.504-7.44 0-14.72 0-22.32 0 0 7.088 0 14.080 0 21.504 7.328 0 14.576 0 22.32 0z" />
<glyph unicode="&#xe99c;" d="M690.88 351.568c0 7.296 0 14.288 0 21.648 7.216 0 14.176 0 21.6 0 0-7.088 0-14.192 0-21.648-7.008 0-14 0-21.6 0z" />
<glyph unicode="&#xe99d;" d="M184.176 351.6c0 7.184 0 14.176 0 21.584 7.216 0 14.32 0 21.728 0 0-7.232 0-14.224 0-21.584-7.232 0-14.32 0-21.728 0z" />
<glyph unicode="&#xe99e;" d="M104.48 351.488c-7.248 0-14.24 0-21.6 0 0 7.264 0 14.384 0 21.776 7.28 0 14.256 0 21.6 0 0-7.168 0-14.176 0-21.776z" />
<glyph unicode="&#xe99f;" d="M915.312 373.248c0-7.472 0-14.464 0-21.744-7.264 0-14.272 0-21.632 0 0 7.216 0 14.336 0 21.744 7.216 0 14.176 0 21.632 0z" />
<glyph unicode="&#xe9a0;" d="M307.344 373.264c0-7.424 0-14.288 0-21.616-7.168 0-14.288 0-21.76 0 0 7.088 0 14.208 0 21.616 7.264 0 14.24 0 21.76 0z" />
<glyph unicode="&#xe9a1;" d="M792.144 351.632c0 7.328 0 14.192 0 21.488 7.248 0 14.336 0 21.776 0 0-7.056 0-14.064 0-21.488-7.056 0-14.192 0-21.776 0z" />
<glyph unicode="&#xe9a2;" d="M738.352 327.536c-7.424 0-14.576 0-22.080 0 0 6.528 0 12.816 0 19.456 7.328 0 14.48 0 22.080 0 0-6.256 0-12.56 0-19.456z" />
<glyph unicode="&#xe9a3;" d="M839.84 346.976c0-6.48 0-12.64 0-19.248-7.28 0-14.544 0-22.176 0 0 6.336 0 12.608 0 19.248 7.28 0 14.432 0 22.176 0z" />
<glyph unicode="&#xe9a4;" d="M941.136 327.456c-7.568 0-14.608 0-22.064 0 0 6.4 0 12.704 0 19.44 7.168 0 14.432 0 22.064 0 0-6.368 0-12.64 0-19.44z" />
<glyph unicode="&#xe9a5;" d="M130.288 327.536c-7.424 0-14.576 0-22.064 0 0 6.528 0 12.816 0 19.456 7.312 0 14.48 0 22.064 0 0-6.256 0-12.56 0-19.456z" />
</font>
</defs>
</svg>
