<?xml version="1.0" encoding="utf-8"?>
<!-- Generator: Adobe Illustrator 19.1.0, SVG Export Plug-In . SVG Version: 6.00 Build 0)  -->
<svg version="1.1" id="Layer_1" xmlns="http://www.w3.org/2000/svg" xmlns:xlink="http://www.w3.org/1999/xlink" x="0px" y="0px"
	 viewBox="0 0 1552.7 1552.7" style="enable-background:new 0 0 1552.7 1552.7;" xml:space="preserve">
<style type="text/css">
	.st0{fill:#EBEBEB;}
	.st1{fill:none;stroke:#EBEBEB;stroke-miterlimit:10;}
	.st2{fill:none;}
</style>
<g>
	<circle class="st0" cx="776.3" cy="1541.3" r="11.3"/>
	<circle class="st0" cx="776.3" cy="1388.3" r="11.3"/>
	<circle class="st0" cx="776.3" cy="1235.3" r="11.3"/>
	<path class="st0" d="M776.3,940.7"/>
	<circle class="st0" cx="776.3" cy="317.3" r="11.3"/>
	<circle class="st0" cx="776.3" cy="164.3" r="11.3"/>
	<circle class="st0" cx="776.3" cy="11.3" r="11.3"/>
</g>
<g>
	<circle class="st0" cx="974.3" cy="1515.3" r="11.3"/>
	<circle class="st0" cx="934.7" cy="1367.5" r="11.3"/>
	<circle class="st0" cx="895.1" cy="1219.7" r="11.3"/>
	<circle class="st0" cx="657.5" cy="333" r="11.3"/>
	<circle class="st0" cx="617.9" cy="185.2" r="11.3"/>
	<circle class="st0" cx="578.3" cy="37.4" r="11.3"/>
</g>
<g>
	<circle class="st0" cx="1158.8" cy="1438.8" r="11.3"/>
	<circle class="st0" cx="1082.3" cy="1306.3" r="11.3"/>
	<circle class="st0" cx="1005.8" cy="1173.8" r="11.3"/>
	<circle class="st0" cx="546.8" cy="378.8" r="11.3"/>
	<circle class="st0" cx="470.3" cy="246.3" r="11.3"/>
	<circle class="st0" cx="393.8" cy="113.8" r="11.3"/>
</g>
<g>
	<circle class="st0" cx="1317.3" cy="1317.3" r="11.3"/>
	<circle class="st0" cx="1209.1" cy="1209.1" r="11.3"/>
	<circle class="st0" cx="1100.9" cy="1100.9" r="11.3"/>
	<circle class="st0" cx="451.8" cy="451.8" r="11.3"/>
	<circle class="st0" cx="343.6" cy="343.6" r="11.3"/>
	<circle class="st0" cx="235.4" cy="235.4" r="11.3"/>
</g>
<g>
	<circle class="st0" cx="1438.8" cy="1158.8" r="11.3"/>
	<circle class="st0" cx="1306.3" cy="1082.3" r="11.3"/>
	<circle class="st0" cx="1173.8" cy="1005.8" r="11.3"/>
	<circle class="st0" cx="378.8" cy="546.8" r="11.3"/>
	<circle class="st0" cx="246.3" cy="470.3" r="11.3"/>
	<circle class="st0" cx="113.8" cy="393.8" r="11.3"/>
</g>
<g>
	<circle class="st0" cx="1515.3" cy="974.3" r="11.3"/>
	<circle class="st0" cx="1367.5" cy="934.7" r="11.3"/>
	<circle class="st0" cx="1219.7" cy="895.1" r="11.3"/>
	<circle class="st0" cx="333" cy="657.5" r="11.3"/>
	<circle class="st0" cx="185.2" cy="617.9" r="11.3"/>
	<circle class="st0" cx="37.4" cy="578.3" r="11.3"/>
</g>
<g>
	<circle class="st0" cx="1541.3" cy="776.3" r="11.3"/>
	<circle class="st0" cx="1388.3" cy="776.3" r="11.3"/>
	<circle class="st0" cx="1235.3" cy="776.3" r="11.3"/>
	<path class="st0" d="M459,776.3"/>
	<circle class="st0" cx="317.3" cy="776.3" r="11.3"/>
	<circle class="st0" cx="164.3" cy="776.3" r="11.3"/>
	<circle class="st0" cx="11.3" cy="776.3" r="11.3"/>
</g>
<g>
	<circle class="st0" cx="1515.3" cy="578.3" r="11.3"/>
	<circle class="st0" cx="1367.5" cy="617.9" r="11.3"/>
	<circle class="st0" cx="1219.7" cy="657.5" r="11.3"/>
	<circle class="st0" cx="333" cy="895.1" r="11.3"/>
	<circle class="st0" cx="185.2" cy="934.7" r="11.3"/>
	<circle class="st0" cx="37.4" cy="974.3" r="11.3"/>
</g>
<g>
	<circle class="st0" cx="1438.8" cy="393.8" r="11.3"/>
	<circle class="st0" cx="1306.3" cy="470.3" r="11.3"/>
	<circle class="st0" cx="1173.8" cy="546.8" r="11.3"/>
	<circle class="st0" cx="378.8" cy="1005.8" r="11.3"/>
	<circle class="st0" cx="246.3" cy="1082.3" r="11.3"/>
	<circle class="st0" cx="113.8" cy="1158.8" r="11.3"/>
</g>
<g>
	<circle class="st0" cx="1317.3" cy="235.4" r="11.3"/>
	<circle class="st0" cx="1209.1" cy="343.6" r="11.3"/>
	<circle class="st0" cx="1100.9" cy="451.8" r="11.3"/>
	<circle class="st0" cx="451.8" cy="1100.9" r="11.3"/>
	<circle class="st0" cx="343.6" cy="1209.1" r="11.3"/>
	<circle class="st0" cx="235.4" cy="1317.3" r="11.3"/>
</g>
<g>
	<circle class="st0" cx="1158.8" cy="113.8" r="11.3"/>
	<circle class="st0" cx="1082.3" cy="246.3" r="11.3"/>
	<circle class="st0" cx="1005.8" cy="378.8" r="11.3"/>
	<circle class="st0" cx="546.8" cy="1173.8" r="11.3"/>
	<circle class="st0" cx="470.3" cy="1306.3" r="11.3"/>
	<circle class="st0" cx="393.8" cy="1438.8" r="11.3"/>
</g>
<g>
	<circle class="st0" cx="974.3" cy="37.4" r="11.3"/>
	<circle class="st0" cx="934.7" cy="185.2" r="11.3"/>
	<circle class="st0" cx="895.1" cy="333" r="11.3"/>
	<circle class="st0" cx="657.5" cy="1219.7" r="11.3"/>
	<circle class="st0" cx="617.9" cy="1367.5" r="11.3"/>
	<circle class="st0" cx="578.3" cy="1515.3" r="11.3"/>
</g>
<polyline class="st1" points="1438.8,394 1173.8,546.9 1219.7,657.6 1367.5,618 1541.3,776.5 317.3,776.5 37.4,974.3 378.8,1005.8 
	235.4,1317.3 343.6,1209.1 545.1,1176.9 470.3,1306.3 393.8,1438.8 "/>
<polyline class="st1" points="775.8,1388 775.8,10.8 895.3,333 1158.9,113.8 378.9,1005.8 578.4,1515.3 617.9,1367.5 895.1,1219.7 
	934.7,1367.5 1005.8,1173.8 1173.8,546.8 1306.3,470.3 1100.9,451.8 1082.3,246.3 895.1,333 974.3,37.4 776.3,164.3 578.3,37.4 
	546.8,378.8 343.6,343.6 378.8,546.8 185.4,618.1 "/>
<polyline class="st1" points="378.8,1005.8 235.4,1317.3 343.6,1209.1 546.8,1173.8 470.3,1306.3 393.8,1438.8 "/>
<path class="st1" d="M37.4,984.3"/>
<path class="st1" d="M317.3,776.5"/>
<polyline class="st1" points="1438.8,394 1173.8,546.9 1219.7,657.6 1367.5,618 1541.3,776.5 "/>
<polyline class="st1" points="1158.8,1438.8 1005.8,1173.8 895.1,1219.7 934.7,1367.5 775.8,1544 775.8,318.3 578.1,37.4 
	546.8,378.8 235.4,235.4 344.4,343.7 378.8,546.8 246.3,470.3 113.8,393.8 "/>
<g>
	<circle class="st2" cx="11.3" cy="776.3" r="11.3"/>
	<circle class="st2" cx="164.3" cy="776.3" r="11.3"/>
	<circle class="st2" cx="317.3" cy="776.3" r="11.3"/>
	<path class="st2" d="M612,776.3"/>
	<circle class="st2" cx="1235.3" cy="776.3" r="11.3"/>
	<circle class="st2" cx="1388.3" cy="776.3" r="11.3"/>
	<circle class="st2" cx="1541.3" cy="776.3" r="11.3"/>
</g>
<g>
	<circle class="st2" cx="235.4" cy="1317.3" r="11.3"/>
	<circle class="st2" cx="343.6" cy="1209.1" r="11.3"/>
	<circle class="st2" cx="451.8" cy="1100.9" r="11.3"/>
	<circle class="st2" cx="1100.9" cy="451.8" r="11.3"/>
	<circle class="st2" cx="1209.1" cy="343.6" r="11.3"/>
	<circle class="st2" cx="1317.3" cy="235.4" r="11.3"/>
</g>
<g>
	<circle class="st2" cx="393.8" cy="1438.8" r="11.3"/>
	<circle class="st2" cx="470.3" cy="1306.3" r="11.3"/>
	<circle class="st2" cx="546.8" cy="1173.8" r="11.3"/>
	<circle class="st2" cx="1005.8" cy="378.8" r="11.3"/>
	<circle class="st2" cx="1082.3" cy="246.3" r="11.3"/>
	<circle class="st2" cx="1158.8" cy="113.8" r="11.3"/>
</g>
<g>
	<circle class="st2" cx="776.3" cy="1541.3" r="11.3"/>
	<circle class="st2" cx="776.3" cy="1388.3" r="11.3"/>
	<circle class="st2" cx="776.3" cy="1235.3" r="11.3"/>
	<path class="st2" d="M776.3,459"/>
	<circle class="st2" cx="776.3" cy="317.3" r="11.3"/>
	<circle class="st2" cx="776.3" cy="164.3" r="11.3"/>
	<circle class="st2" cx="776.3" cy="11.3" r="11.3"/>
</g>
<polyline class="st1" points="1219.7,895.1 1438.8,1158.8 546.8,378.8 37.4,578.3 185.2,617.9 333,895.1 185.2,934.7 378.9,1005.8 
	1005.8,1173.8 1082.3,1306.3 1100.9,1100.9 1306.3,1082.3 1219.7,895.1 1515.3,974.3 1388.3,776.3 1545.3,578.3 1203.8,546.8 
	1209.1,344.3 1005.8,378.8 934.7,185.2 "/>
<path class="st1" d="M164.3,776.3"/>
</svg>
