<?xml version="1.0"?>
<svg xmlns="http://www.w3.org/2000/svg" xmlns:xlink="http://www.w3.org/1999/xlink" xmlns:svgjs="http://svgjs.com/svgjs" version="1.1" width="512" height="512" x="0" y="0" viewBox="0 0 64 64" style="enable-background:new 0 0 512 512" xml:space="preserve"><g><g xmlns="http://www.w3.org/2000/svg" id="Outline"><g><path d="M61,14H43.575L37.742,4H38.8l18.814,7.922a1,1,0,1,0,.776-1.844l-19-8A.992.992,0,0,0,39,2H25a.992.992,0,0,0-.388.078l-19,8A1,1,0,0,0,5,11v3H3a1,1,0,0,0-1,1v4a1,1,0,0,0,1,1v5a4.985,4.985,0,0,0,9,2.969,4.954,4.954,0,0,0,8,0,4.954,4.954,0,0,0,8,0,4.954,4.954,0,0,0,8,0,4.954,4.954,0,0,0,8,0,4.954,4.954,0,0,0,8,0A4.982,4.982,0,0,0,56,30V60H29.5V39a1,1,0,0,0-1-1H12a1,1,0,0,0-1,1V60H8V32.858a1,1,0,1,0-2,0V61a1,1,0,0,0,1,1H57a1,1,0,0,0,1-1V29.576A5,5,0,0,0,61,25V23a1,1,0,0,0-2,0v2a3,3,0,0,1-6,0V20h8a1,1,0,0,0,1-1V15A1,1,0,0,0,61,14ZM13,60V40H27.5V60ZM35.426,4l5.833,10H22.741L28.574,4ZM7,11.664,25.2,4h1.056L20.425,14H7ZM8,28a3,3,0,0,1-3-3V20h6v5A3,3,0,0,1,8,28Zm8,0a3,3,0,0,1-3-3V20h6v5A3,3,0,0,1,16,28Zm8,0a3,3,0,0,1-3-3V20h6v5A3,3,0,0,1,24,28Zm8,0a3,3,0,0,1-3-3V20h6v5A3,3,0,0,1,32,28Zm8,0a3,3,0,0,1-3-3V20h6v5A3,3,0,0,1,40,28Zm11-3a3,3,0,0,1-6,0V20h6Zm9-7H4V16H60Z" fill="#00699e" data-original="#000000" style=""/><path d="M43,32a5.006,5.006,0,0,0-5,5v1H35a1,1,0,0,0-1,.944l-1,18A1,1,0,0,0,34,58H52a1,1,0,0,0,1-1.056l-.333-6a1,1,0,0,0-2,.112L50.943,56H35.057l.889-16H38v3a1,1,0,0,0,2,0V40h6v3a1,1,0,0,0,2,0V40h2.054l.392,7.056a1,1,0,1,0,2-.112l-.444-8A1,1,0,0,0,51,38H48V37A5.006,5.006,0,0,0,43,32Zm-3,6V37a3,3,0,0,1,6,0v1Z" fill="#00699e" data-original="#000000" style=""/><path d="M43,45a4,4,0,1,0,4,4A4,4,0,0,0,43,45Zm0,6a2,2,0,1,1,2-2A2,2,0,0,1,43,51Z" fill="#00699e" data-original="#000000" style=""/><path d="M24,46a1,1,0,0,0-1,1v4a1,1,0,0,0,2,0V47A1,1,0,0,0,24,46Z" fill="#00699e" data-original="#000000" style=""/></g></g></g></svg>
