<?xml version="1.0"?>
<svg xmlns="http://www.w3.org/2000/svg" xmlns:xlink="http://www.w3.org/1999/xlink" xmlns:svgjs="http://svgjs.com/svgjs" version="1.1" width="512" height="512" x="0" y="0" viewBox="0 0 449.644 449" style="enable-background:new 0 0 512 512" xml:space="preserve"><g><path xmlns="http://www.w3.org/2000/svg" d="m443.644531 66.398438h-372.871093v-60.078126c0-3.3125-2.6875-6-6-6s-6 2.6875-6 6v60.078126h-52.773438c-3.3125 0-6 2.683593-6 6 0 3.3125 2.6875 6 6 6h52.773438v337.921874c0 3.316407 2.6875 6 6 6s6-2.683593 6-6v-337.921874h97.6875v28.632812c-11.917969 2.375-21.355469 11.472656-24.167969 23.289062h-19.472657c-14.351562.019532-25.980468 11.648438-26 26v180c.019532 14.355469 11.648438 25.984376 26 26h280c14.355469-.015624 25.984376-11.644531 26-26v-180c-.015624-14.351562-11.644531-25.980468-26-26h-19.46875c-2.8125-11.816406-12.253906-20.914062-24.167968-23.289062v-28.632812h82.460937c3.3125 0 6-2.6875 6-6 0-3.316407-2.6875-6-6-6zm-269.183593 52.042968c10.492187 0 19 8.507813 19 19 0 10.492188-8.507813 19-19 19-10.496094 0-19-8.507812-19-19 .011718-10.488281 8.507812-18.988281 19-19zm244.359374 37.878906v180c-.007812 7.730469-6.269531 13.992188-14 14h-280c-7.726562-.007812-13.988281-6.269531-14-14v-180c.011719-7.726562 6.273438-13.988281 14-14h19.027344c2.398438 15.046876 15.375 26.117188 30.609375 26.117188s28.210938-11.070312 30.613281-26.117188h119.5c2.402344 15.046876 15.378907 26.117188 30.613282 26.117188s28.210937-11.070312 30.613281-26.117188h19.023437c7.730469.011719 13.992188 6.273438 14 14zm-44.636718-18.878906c0 10.492188-8.503906 19-19 19-10.492188 0-19-8.507812-19-19 0-10.492187 8.507812-19 19-19 10.488281.011719 18.988281 8.511719 19 19zm-25-30.410156c-11.910156 2.375-21.351563 11.472656-24.160156 23.289062h-120.402344c-2.8125-11.816406-12.25-20.914062-24.164063-23.289062v-28.632812h168.726563zm0 0" fill="#00699e" data-original="#000000" style=""/><path xmlns="http://www.w3.org/2000/svg" d="m253.007812 239.507812c2.5 0 4.988282-1.023437 4.988282-3.074218v-16.511719h9.664062c2.113282 0 3.011719-2.046875 3.011719-3.777344 0-2.046875-1.089844-3.898437-3.011719-3.898437h-9.664062v-10.816406h16.578125c1.917969 0 3.007812-2.046876 3.007812-4.414063 0-2.046875-.902343-4.289063-3.007812-4.289063h-22.207031c-2.175782 0-4.351563 1.023438-4.351563 3.074219v40.632813c0 2.050781 2.496094 3.074218 4.992187 3.074218zm0 0" fill="#00699e" data-original="#000000" style=""/><path xmlns="http://www.w3.org/2000/svg" d="m311.4375 224.789062v-16.960937c0-11.007813-6.910156-15.097656-15.742188-15.097656-8.832031 0-15.679687 4.097656-15.679687 15.097656v16.960937c0 11.007813 6.847656 15.101563 15.679687 15.101563 8.832032 0 15.742188-4.09375 15.742188-15.101563zm-21.4375 0v-16.960937c0-4.414063 2.109375-6.398437 5.699219-6.398437 3.585937 0 5.761719 1.984374 5.761719 6.398437v16.960937c0 4.414063-2.179688 6.398438-5.761719 6.398438s-5.699219-1.984375-5.699219-6.398438zm0 0" fill="#00699e" data-original="#000000" style=""/><path xmlns="http://www.w3.org/2000/svg" d="m327.820312 236.433594v-15.421875h4.226563l8.765625 17.023437c.609375 1.195313 1.863281 1.917969 3.203125 1.855469 2.941406 0 6.269531-2.6875 6.269531-5.183594.007813-.40625-.105468-.808593-.320312-1.152343l-7.804688-14.144532c4.476563-1.726562 7.742188-5.820312 7.742188-12.988281 0-10.433594-6.976563-13.699219-15.742188-13.699219h-13.25c-.808594-.027344-1.597656.28125-2.175781.847656-.578125.570313-.902344 1.347657-.894531 2.160157v40.699219c0 2.046874 2.5 3.074218 4.992187 3.074218 2.488281 0 4.988281-1.019531 4.988281-3.070312zm0-35.003906h6.335938c3.585938 0 5.761719 1.472656 5.761719 5.953124 0 4.480469-2.175781 5.949219-5.761719 5.949219h-6.335938zm0 0" fill="#00699e" data-original="#000000" style=""/><path xmlns="http://www.w3.org/2000/svg" d="m272.335938 296.214844c4.476562-1.730469 7.742187-5.828125 7.742187-12.992188 0-10.433594-6.976563-13.695312-15.742187-13.695312h-13.25c-.808594-.027344-1.597657.28125-2.175782.847656-.582031.566406-.902344 1.347656-.894531 2.160156v40.699219c0 2.046875 2.5 3.070313 4.992187 3.070313 2.492188 0 4.988282-1.023438 4.988282-3.070313v-15.421875h4.226562l8.765625 17.023438c.609375 1.195312 1.863281 1.917968 3.203125 1.855468 2.941406 0 6.269532-2.6875 6.269532-5.183594.007812-.40625-.105469-.808593-.320313-1.152343zm-8-6.082032h-6.339844v-11.898437h6.339844c3.582031 0 5.757812 1.46875 5.757812 5.949219 0 4.480468-2.171875 5.949218-5.757812 5.949218zm0 0" fill="#00699e" data-original="#000000" style=""/><path xmlns="http://www.w3.org/2000/svg" d="m312.523438 278.230469c1.917968 0 3.007812-2.050781 3.007812-4.417969 0-2.046875-.902344-4.285156-3.007812-4.285156h-22.78125c-2.175782 0-4.351563 1.023437-4.351563 3.070312v40.636719c0 2.046875 2.175781 3.070313 4.351563 3.070313h22.78125c2.109374 0 3.007812-2.238282 3.007812-4.285157 0-2.367187-1.089844-4.417969-3.007812-4.417969h-17.152344v-10.878906h9.601562c2.113282 0 3.007813-2.046875 3.007813-3.777344 0-2.046874-1.089844-3.898437-3.007813-3.898437h-9.601562v-10.816406zm0 0" fill="#00699e" data-original="#000000" style=""/><path xmlns="http://www.w3.org/2000/svg" d="m347.597656 269.523438c-2.5 0-4.992187.898437-4.992187 3.007812v21.757812l-10.367188-19.765624c-2.433593-4.671876-3.777343-4.992188-7.359375-4.992188-2.5 0-4.992187.960938-4.992187 3.070312v40.636719c0 2.050781 2.5 3.074219 4.992187 3.074219 2.492188 0 4.988282-1.023438 4.988282-3.074219v-21.761719l12.160156 22.140626c1.214844 2.242187 3.265625 2.6875 5.570312 2.6875 2.5 0 4.992188-1.023438 4.992188-3.070313v-40.699219c0-2.113281-2.496094-3.011718-4.992188-3.011718zm0 0" fill="#00699e" data-original="#000000" style=""/><path xmlns="http://www.w3.org/2000/svg" d="m359.566406 269.523438c-2.113281 0-3.007812 2.296874-3.007812 4.414062 0 2.433594 1.085937 4.542969 3.007812 4.542969h8.828125v34.75c0 2.046875 2.5 3.070312 4.992188 3.070312 2.492187 0 4.996093-1.023437 4.996093-3.070312v-34.746094h8.828126c1.921874 0 3.007812-2.109375 3.007812-4.542969 0-2.113281-.898438-4.414062-3.007812-4.414062zm0 0" fill="#00699e" data-original="#000000" style=""/><path xmlns="http://www.w3.org/2000/svg" d="m208.046875 208.179688h-9.890625v-10.28125c0-3.3125-2.683594-6-6-6h-8.632812v-7.382813c0-3.3125-2.6875-6-6-6-3.316407 0-6 2.6875-6 6v7.382813h-7.582032c-3.316406 0-6 2.6875-6 6v10.28125h-9.890625c-3.3125 0-6 2.6875-6 6v114.609374c0 3.3125 2.6875 6 6 6h60c3.316407 0 6-2.6875 6-6v-114.609374c0-3.316407-2.6875-6.003907-6.003906-6zm-38.113281-4.28125h16.222656v4.28125h-16.222656zm12.875 118.890624h-9.523438v-14.761718h9.523438zm19.238281 0h-7.238281v-20.761718c0-3.3125-2.6875-6-6-6h-21.523438c-3.316406 0-6 2.6875-6 6v20.761718h-7.238281v-102.609374h48zm0 0" fill="#00699e" data-original="#000000" style=""/><path xmlns="http://www.w3.org/2000/svg" d="m166.476562 264h23.160157c3.3125 0 6-2.6875 6-6 0-3.316406-2.6875-6-6-6h-23.160157c-3.316406 0-6 2.683594-6 6 0 3.3125 2.683594 6 6 6zm0 0" fill="#00699e" data-original="#000000" style=""/><path xmlns="http://www.w3.org/2000/svg" d="m166.476562 285.820312h23.160157c3.3125 0 6-2.683593 6-6 0-3.3125-2.6875-6-6-6h-23.160157c-3.316406 0-6 2.6875-6 6 0 3.316407 2.683594 6 6 6zm0 0" fill="#00699e" data-original="#000000" style=""/><path xmlns="http://www.w3.org/2000/svg" d="m166.476562 242.179688h23.160157c3.3125 0 6-2.6875 6-6s-2.6875-6-6-6h-23.160157c-3.316406 0-6 2.6875-6 6s2.683594 6 6 6zm0 0" fill="#00699e" data-original="#000000" style=""/></g></svg>
