<?xml version="1.0"?>
<svg xmlns="http://www.w3.org/2000/svg" xmlns:xlink="http://www.w3.org/1999/xlink" xmlns:svgjs="http://svgjs.com/svgjs" version="1.1" width="512" height="512" x="0" y="0" viewBox="0 0 330.99 330.99" style="enable-background:new 0 0 512 512" xml:space="preserve"><g>
<g xmlns="http://www.w3.org/2000/svg">
	<g>
		<path d="M326.141,91.852c-2.678,0-4.849,2.17-4.849,4.849v4.848h-13.942V96.7c0-2.678-2.17-4.849-4.848-4.849    c-2.678,0-4.849,2.17-4.849,4.849v4.848h-13.942V96.7c0-2.678-2.17-4.849-4.848-4.849s-4.849,2.17-4.849,4.849v4.848h-13.942V96.7    c0-2.678-2.17-4.849-4.848-4.849c-2.678,0-4.849,2.17-4.849,4.849v4.848h-13.942V96.7c0-2.678-2.17-4.849-4.848-4.849    c-2.678,0-4.849,2.17-4.849,4.849v4.848h-15.773V19.124c0-2.678-2.17-4.849-4.849-4.849c-2.678,0-4.848,2.17-4.848,4.849v43.636    h-15.461V53.98c-0.001-11.199-9.112-20.31-20.311-20.31c-11.199,0-20.31,9.111-20.31,20.31v8.781h-17.293V19.124    c0-2.678-2.17-4.849-4.848-4.849c-2.678,0-4.849,2.17-4.849,4.849v82.424h-13.942V96.7c0-2.678-2.17-4.849-4.848-4.849    c-2.678,0-4.849,2.17-4.849,4.849v4.848H80.614V96.7c0-2.678-2.17-4.849-4.849-4.849c-2.678,0-4.848,2.17-4.848,4.849v4.848    H56.976V96.7c0-2.678-2.17-4.849-4.849-4.849c-2.678,0-4.848,2.17-4.848,4.849v4.848H33.336V96.7c0-2.678-2.17-4.849-4.848-4.849    s-4.849,2.17-4.849,4.849v4.848H9.697V96.7c0-2.678-2.17-4.849-4.848-4.849C2.17,91.852,0,94.022,0,96.7v214.626    c0,2.678,2.17,4.849,4.849,4.849h67.495c0.665,0.343,1.416,0.539,2.215,0.539s1.551-0.197,2.215-0.539h26.491    c0.665,0.343,1.416,0.539,2.215,0.539c0.799,0,1.551-0.197,2.215-0.539h115.595c0.665,0.343,1.416,0.539,2.215,0.539    s1.551-0.197,2.215-0.539h26.491c0.665,0.343,1.416,0.539,2.215,0.539s1.551-0.197,2.215-0.539h67.497    c2.678,0,4.849-2.17,4.849-4.849V96.7C330.99,94.022,328.82,91.852,326.141,91.852z M185.805,72.458h15.461v29.091h-15.461V72.458    z M154.882,53.98c0-5.852,4.761-10.613,10.613-10.613s10.613,4.761,10.613,10.613v8.781h-21.226V53.98z M154.882,72.458h21.226    v29.091h-21.226V72.458z M127.892,72.458h17.293v29.091h-17.293V72.458z M79.407,306.478v-33.4    c0-5.852,4.761-10.613,10.613-10.613s10.613,4.761,10.613,10.613c0,0,0,33.4,0,33.4H79.407z M201.266,306.478h-71.542v-44.013    h71.542V306.478z M201.266,252.768h-71.542v-9.697h71.542V252.768z M251.583,306.478h-21.226v-33.4    c0-5.852,4.761-10.613,10.613-10.613c5.852,0,10.613,4.761,10.613,10.613V306.478z M321.293,306.478H261.28v-33.4    c0-11.199-9.111-20.31-20.31-20.31c-11.199,0-20.31,9.111-20.31,20.31v33.4h-9.696v-63.407h95.784c2.678,0,4.848-2.17,4.848-4.848    c0-2.678-2.17-4.849-4.848-4.849H24.242c-2.678,0-4.849,2.17-4.849,4.849c0,2.678,2.17,4.848,4.849,4.848h95.785v63.407h-9.697    v-33.4c0-11.199-9.111-20.31-20.31-20.31s-20.31,9.111-20.31,20.31v33.4H9.697V111.246h311.596V306.478z" fill="#00699e" data-original="#000000" style=""/>
	</g>
</g>
<g xmlns="http://www.w3.org/2000/svg">
	<g>
		<path d="M306.747,120.943H24.242c-2.678,0-4.849,2.17-4.849,4.848c0,2.678,2.17,4.849,4.849,4.849h282.505    c2.678,0,4.848-2.17,4.848-4.849C311.596,123.113,309.426,120.943,306.747,120.943z" fill="#00699e" data-original="#000000" style=""/>
	</g>
</g>
<g xmlns="http://www.w3.org/2000/svg">
	<g>
		<path d="M39.704,159.73c-11.199,0-20.31,9.111-20.31,20.31v38.788c0,2.678,2.17,4.848,4.849,4.848h30.922    c2.678,0,4.848-2.17,4.848-4.848V180.04C60.013,168.842,50.903,159.73,39.704,159.73z M50.316,213.98H29.091V180.04    c0-5.852,4.761-10.613,10.613-10.613c5.852,0,10.612,4.761,10.612,10.613V213.98z" fill="#00699e" data-original="#000000" style=""/>
	</g>
</g>
<g xmlns="http://www.w3.org/2000/svg">
	<g>
		<path d="M44.552,140.336h-9.697c-2.678,0-4.848,2.17-4.848,4.849c0,2.678,2.17,4.848,4.848,4.848h9.697    c2.678,0,4.848-2.17,4.848-4.848C49.401,142.507,47.231,140.336,44.552,140.336z" fill="#00699e" data-original="#000000" style=""/>
	</g>
</g>
<g xmlns="http://www.w3.org/2000/svg">
	<g>
		<path d="M90.02,159.73c-11.199,0-20.31,9.111-20.31,20.31v38.788c0,2.678,2.17,4.848,4.849,4.848h30.923    c2.678,0,4.849-2.17,4.849-4.848V180.04C110.33,168.842,101.219,159.73,90.02,159.73z M79.407,213.98V180.04    c0-5.852,4.761-10.613,10.613-10.613s10.613,4.761,10.613,10.613c0,0,0,33.939,0,33.939H79.407z" fill="#00699e" data-original="#000000" style=""/>
	</g>
</g>
<g xmlns="http://www.w3.org/2000/svg">
	<g>
		<path d="M94.869,140.336h-9.697c-2.678,0-4.848,2.17-4.848,4.849c0,2.678,2.17,4.848,4.848,4.848h9.697    c2.678,0,4.848-2.17,4.848-4.848C99.717,142.507,97.547,140.336,94.869,140.336z" fill="#00699e" data-original="#000000" style=""/>
	</g>
</g>
<g xmlns="http://www.w3.org/2000/svg">
	<g>
		<path d="M140.336,159.73c-11.199,0-20.309,9.111-20.309,20.31v38.788c0,2.678,2.17,4.848,4.848,4.848h30.922    c2.678,0,4.849-2.17,4.849-4.848V180.04C160.646,168.842,151.535,159.73,140.336,159.73z M150.95,213.98h-21.225V180.04    c0-5.852,4.761-10.613,10.612-10.613c5.852,0,10.613,4.761,10.613,10.613V213.98z" fill="#00699e" data-original="#000000" style=""/>
	</g>
</g>
<g xmlns="http://www.w3.org/2000/svg">
	<g>
		<path d="M145.185,140.336h-9.697c-2.678,0-4.848,2.17-4.848,4.849c0,2.678,2.17,4.848,4.848,4.848h9.697    c2.678,0,4.849-2.17,4.849-4.848C150.033,142.507,147.863,140.336,145.185,140.336z" fill="#00699e" data-original="#000000" style=""/>
	</g>
</g>
<g xmlns="http://www.w3.org/2000/svg">
	<g>
		<path d="M190.653,159.73c-11.199,0-20.31,9.111-20.31,20.31v38.788c0,2.678,2.17,4.848,4.848,4.848h30.923    c2.678,0,4.848-2.17,4.848-4.848V180.04C210.963,168.842,201.852,159.73,190.653,159.73z M201.266,213.98H180.04V180.04    c0-5.852,4.761-10.613,10.613-10.613c5.852,0,10.613,4.761,10.613,10.613V213.98z" fill="#00699e" data-original="#000000" style=""/>
	</g>
</g>
<g xmlns="http://www.w3.org/2000/svg">
	<g>
		<path d="M195.502,140.336h-9.697c-2.678,0-4.849,2.17-4.849,4.849c0,2.678,2.17,4.848,4.849,4.848h9.697    c2.678,0,4.849-2.17,4.849-4.848C200.35,142.507,198.18,140.336,195.502,140.336z" fill="#00699e" data-original="#000000" style=""/>
	</g>
</g>
<g xmlns="http://www.w3.org/2000/svg">
	<g>
		<path d="M240.97,159.73c-11.199,0-20.309,9.111-20.309,20.31v38.788c0,2.678,2.17,4.848,4.849,4.848h30.922    c2.678,0,4.848-2.17,4.848-4.848V180.04C261.28,168.842,252.168,159.73,240.97,159.73z M251.583,213.98h-21.225V180.04    c0-5.852,4.761-10.613,10.612-10.613c5.852,0,10.613,4.761,10.613,10.613V213.98z" fill="#00699e" data-original="#000000" style=""/>
	</g>
</g>
<g xmlns="http://www.w3.org/2000/svg">
	<g>
		<path d="M245.818,140.336h-9.697c-2.678,0-4.849,2.17-4.849,4.849c0,2.678,2.17,4.848,4.849,4.848h9.697    c2.678,0,4.849-2.17,4.849-4.848C250.667,142.507,248.496,140.336,245.818,140.336z" fill="#00699e" data-original="#000000" style=""/>
	</g>
</g>
<g xmlns="http://www.w3.org/2000/svg">
	<g>
		<path d="M291.287,159.73c-11.199,0-20.31,9.111-20.31,20.31v38.788c0,2.678,2.17,4.848,4.848,4.848h30.922    c2.678,0,4.848-2.17,4.848-4.848V180.04C311.596,168.842,302.485,159.73,291.287,159.73z M301.899,213.98h-21.225V180.04    c0-5.852,4.761-10.613,10.613-10.613c5.852,0,10.612,4.761,10.612,10.613V213.98z" fill="#00699e" data-original="#000000" style=""/>
	</g>
</g>
<g xmlns="http://www.w3.org/2000/svg">
	<g>
		<path d="M296.135,140.336h-9.697c-2.678,0-4.849,2.17-4.849,4.849c0,2.678,2.17,4.848,4.849,4.848h9.697    c2.678,0,4.848-2.17,4.848-4.848C300.984,142.507,298.813,140.336,296.135,140.336z" fill="#00699e" data-original="#000000" style=""/>
	</g>
</g>
<g xmlns="http://www.w3.org/2000/svg">
	<g>
		<path d="M55.165,252.768H24.242c-2.678,0-4.849,2.17-4.849,4.848v34.855c0,2.678,2.17,4.848,4.849,4.848h30.922    c2.678,0,4.848-2.17,4.848-4.848v-34.855C60.013,254.938,57.843,252.768,55.165,252.768z M50.316,287.623H29.091v-25.158h21.225    V287.623z" fill="#00699e" data-original="#000000" style=""/>
	</g>
</g>
<g xmlns="http://www.w3.org/2000/svg">
	<g>
		<path d="M306.747,252.768h-30.922c-2.678,0-4.849,2.17-4.849,4.848v34.855c0,2.678,2.17,4.849,4.849,4.849h30.922    c2.678,0,4.848-2.17,4.848-4.849v-34.855C311.596,254.938,309.426,252.768,306.747,252.768z M301.899,287.623h-21.225v-25.158    h21.225V287.623z" fill="#00699e" data-original="#000000" style=""/>
	</g>
</g>
<g xmlns="http://www.w3.org/2000/svg">
</g>
<g xmlns="http://www.w3.org/2000/svg">
</g>
<g xmlns="http://www.w3.org/2000/svg">
</g>
<g xmlns="http://www.w3.org/2000/svg">
</g>
<g xmlns="http://www.w3.org/2000/svg">
</g>
<g xmlns="http://www.w3.org/2000/svg">
</g>
<g xmlns="http://www.w3.org/2000/svg">
</g>
<g xmlns="http://www.w3.org/2000/svg">
</g>
<g xmlns="http://www.w3.org/2000/svg">
</g>
<g xmlns="http://www.w3.org/2000/svg">
</g>
<g xmlns="http://www.w3.org/2000/svg">
</g>
<g xmlns="http://www.w3.org/2000/svg">
</g>
<g xmlns="http://www.w3.org/2000/svg">
</g>
<g xmlns="http://www.w3.org/2000/svg">
</g>
<g xmlns="http://www.w3.org/2000/svg">
</g>
</g></svg>
