<?xml version="1.0"?>
<svg xmlns="http://www.w3.org/2000/svg" xmlns:xlink="http://www.w3.org/1999/xlink" xmlns:svgjs="http://svgjs.com/svgjs" version="1.1" width="512" height="512" x="0" y="0" viewBox="0 0 24 24" style="enable-background:new 0 0 512 512" xml:space="preserve"><g><path xmlns="http://www.w3.org/2000/svg" d="m20.5 13c-1.136 0-2.146-.543-2.786-1.384-.643.844-1.62 1.384-2.714 1.384-1.129 0-2.136-.576-2.775-1.468-.687.892-1.765 1.468-2.975 1.468-1.188 0-2.249-.556-2.937-1.42-.638.861-1.662 1.42-2.813 1.42-1.93 0-3.5-1.57-3.5-3.5v-4.75c0-.414.336-.75.75-.75s.75.336.75.75v4.75c0 1.103.897 2 2 2s2-.897 2-2v-1.75c0-.414.336-.75.75-.75s.75.336.75.75v1.5c0 1.241 1.01 2.25 2.25 2.25s2.25-1.009 2.25-2.25v-1.5c0-.414.336-.75.75-.75s.75.336.75.75v1.5c0 1.241.897 2.25 2 2.25s2-1.009 2-2.25v-1.5c0-.414.336-.75.75-.75s.75.336.75.75v1.75c0 1.103.897 2 2 2s2-.897 2-2v-4.75c0-.414.336-.75.75-.75s.75.336.75.75v4.75c0 1.93-1.57 3.5-3.5 3.5z" fill="#00699e" data-original="#000000" style=""/><path xmlns="http://www.w3.org/2000/svg" d="m18.25 24c-.414 0-.75-.336-.75-.75v-5.5c0-.689-.561-1.25-1.25-1.25h-8.5c-.689 0-1.25.561-1.25 1.25v5.5c0 .414-.336.75-.75.75s-.75-.336-.75-.75v-5.5c0-1.517 1.233-2.75 2.75-2.75h8.5c1.517 0 2.75 1.233 2.75 2.75v5.5c0 .414-.336.75-.75.75z" fill="#00699e" data-original="#000000" style=""/><path xmlns="http://www.w3.org/2000/svg" d="m23.25 5.5h-22.5c-.414 0-.75-.336-.75-.75s.336-.75.75-.75h22.5c.414 0 .75.336.75.75s-.336.75-.75.75z" fill="#00699e" data-original="#000000" style=""/><path xmlns="http://www.w3.org/2000/svg" d="m21.25 24h-18.5c-1.517 0-2.75-1.233-2.75-2.75v-16.5c0-.116.027-.231.079-.335l1.724-3.447c.298-.597.897-.968 1.565-.968h17.264c.668 0 1.268.371 1.565.968l1.724 3.446c.052.105.079.22.079.336v16.5c0 1.517-1.233 2.75-2.75 2.75zm-19.75-19.073v16.323c0 .689.561 1.25 1.25 1.25h18.5c.689 0 1.25-.561 1.25-1.25v-16.323l-1.645-3.289c-.042-.085-.127-.138-.223-.138h-17.264c-.096 0-.181.053-.224.137v.001zm.974-3.624h.01z" fill="#00699e" data-original="#000000" style=""/></g></svg>
