<?xml version="1.0"?> <svg xmlns="http://www.w3.org/2000/svg" xmlns:xlink="http://www.w3.org/1999/xlink" xmlns:svgjs="http://svgjs.com/svgjs" version="1.1" width="512" height="512" x="0" y="0" viewBox="0 0 512 512" style="enable-background:new 0 0 512 512" xml:space="preserve" class=""><g> <g xmlns="http://www.w3.org/2000/svg"> <path d="M96,152c-5.51,0-10,4.479-10,10c0,5.51,4.49,10,10,10c5.51,0,10-4.49,10-10C106,156.479,101.51,152,96,152z" fill="#00699e" data-original="#000000" style="" class=""/> <path d="M416,172c5.51,0,10-4.49,10-10c0-5.521-4.49-10-10-10c-5.51,0-10,4.479-10,10C406,167.51,410.49,172,416,172z" fill="#00699e" data-original="#000000" style="" class=""/> <path d="M106,472h90c5.523,0,10-4.478,10-10v-25c0-30.327-24.673-55-55-55s-55,24.673-55,55v25C96,467.522,100.477,472,106,472z M161,403.463c14.44,4.314,25,17.712,25,33.537v15h-25V403.463z M116,437c0-15.824,10.56-29.223,25-33.537V452h-25V437z" fill="#00699e" data-original="#000000" style="" class=""/> <path d="M106,322h90c5.523,0,10-4.478,10-10v-25c0-30.327-24.673-55-55-55s-55,24.673-55,55v25C96,317.522,100.477,322,106,322z M161,253.463c14.44,4.314,25,17.712,25,33.537v15h-25V253.463z M116,287c0-15.824,10.56-29.223,25-33.537V302h-25V287z" fill="#00699e" data-original="#000000" style="" class=""/> <path d="M316,322h90c5.523,0,10-4.478,10-10v-25c0-30.327-24.673-55-55-55s-55,24.673-55,55v25C306,317.522,310.477,322,316,322z M371,253.463c14.44,4.314,25,17.712,25,33.537v15h-25V253.463z M326,287c0-15.824,10.56-29.223,25-33.537V302h-25V287z" fill="#00699e" data-original="#000000" style="" class=""/> <path d="M505.897,104.897l-246-104.106c-2.491-1.055-5.304-1.055-7.795,0l-246,104.106C2.403,106.463,0,110.09,0,114.106V157 c0,3.341,1.668,6.46,4.446,8.315c2.778,1.856,6.299,2.202,9.384,0.922L36,157.045V202v300c0,5.522,4.477,10,10,10h420 c5.523,0,10-4.478,10-10V202v-44.955l22.17,9.192c1.232,0.511,2.533,0.763,3.829,0.763c1.95,0,3.887-0.569,5.555-1.685 C510.332,163.46,512,160.341,512,157v-42.894C512,110.09,509.597,106.463,505.897,104.897z M246,462v30H56V362h190V462z M246,342 H56V212h190V342z M336,192H176v-30c0-16.542,13.458-30,30-30h100c16.542,0,30,13.458,30,30V192z M346,492h-80v-20h80V492z M406,492 h-40v-90h40V492z M456,492h-30v-20h30V492z M456,452h-30v-60c0-5.522-4.477-10-10-10h-60c-5.523,0-10,4.478-10,10v60h-80v-90h190 V452z M456,342H266V212h190V342z M456,192H356v-20h20c5.51,0,10-4.49,10-10c0-5.521-4.49-10-10-10h-21.006 c-4.646-22.795-24.847-40-48.994-40H206c-24.146,0-44.348,17.205-48.994,40H136c-5.51,0-10,4.479-10,10c0,5.51,4.49,10,10,10h20v20 H56v-43.248l200-82.927l200,82.927V192z M492,142.028L259.83,45.763C258.604,45.254,257.302,45,256,45s-2.604,0.254-3.83,0.763 L20,142.028v-21.295l236-99.875l236,99.875V142.028z" fill="#00699e" data-original="#000000" style="" class=""/> </g></g></svg>
