<svg xmlns="http://www.w3.org/2000/svg" version="1.1" xmlns:xlink="http://www.w3.org/1999/xlink" xmlns:svgjs="http://svgjs.com/svgjs" width="512" height="512" x="0" y="0" viewBox="0 0 368 368" style="enable-background:new 0 0 512 512" xml:space="preserve" class=""><g>
<g xmlns="http://www.w3.org/2000/svg">
	<g>
		<path d="M298.528,112.408L256,98.232V80h8c22.056,0,40-17.944,40-40c0-22.056-17.944-40-40-40H104C81.944,0,64,17.944,64,40    c0,22.056,17.944,40,40,40h8v18.232l-42.528,14.184C66.2,113.504,64,116.56,64,120v80v32c0,22.056,17.944,40,40,40h72v49.752    l-57.944,14.488c-3.552,0.888-6.056,4.088-6.056,7.76v16c0,4.416,3.584,8,8,8s8-3.584,8-8v-9.752l48-12V360c0,4.416,3.584,8,8,8    s8-3.584,8-8v-21.752l48,12V360c0,4.416,3.584,8,8,8c4.416,0,8-3.584,8-8v-16c0-3.672-2.504-6.872-6.056-7.76L192,321.752V272h72    c22.056,0,40-17.944,40-40v-32v-80C304,116.56,301.8,113.496,298.528,112.408z M104,64c-13.232,0-24-10.768-24-24s10.768-24,24-24    h160c13.232,0,24,10.768,24,24s-10.768,24-24,24H104z M240,80v112H128V80H240z M80,125.768l32-10.664V192H80V125.768z M288,232    c0,13.232-10.768,24-24,24H104c-13.232,0-24-10.768-24-24v-24h40h128h40V232z M288,192h-32v-76.896l32,10.664V192z" fill="#00699e" data-original="#000000" style=""></path>
	</g>
</g>
<g xmlns="http://www.w3.org/2000/svg">
</g>
<g xmlns="http://www.w3.org/2000/svg">
</g>
<g xmlns="http://www.w3.org/2000/svg">
</g>
<g xmlns="http://www.w3.org/2000/svg">
</g>
<g xmlns="http://www.w3.org/2000/svg">
</g>
<g xmlns="http://www.w3.org/2000/svg">
</g>
<g xmlns="http://www.w3.org/2000/svg">
</g>
<g xmlns="http://www.w3.org/2000/svg">
</g>
<g xmlns="http://www.w3.org/2000/svg">
</g>
<g xmlns="http://www.w3.org/2000/svg">
</g>
<g xmlns="http://www.w3.org/2000/svg">
</g>
<g xmlns="http://www.w3.org/2000/svg">
</g>
<g xmlns="http://www.w3.org/2000/svg">
</g>
<g xmlns="http://www.w3.org/2000/svg">
</g>
<g xmlns="http://www.w3.org/2000/svg">
</g>
</g></svg>