<svg xmlns="http://www.w3.org/2000/svg" version="1.1" xmlns:xlink="http://www.w3.org/1999/xlink" xmlns:svgjs="http://svgjs.com/svgjs" width="512" height="512" x="0" y="0" viewBox="0 0 512 512" style="enable-background:new 0 0 512 512" xml:space="preserve" class=""><g><g xmlns="http://www.w3.org/2000/svg"><path d="m502 0h-492c-.06 0-.118.008-.178.009-5.527.096-9.797 4.628-9.82 9.947 0 .014-.002.029-.002.044v492c0 .015.002.03.002.044.024 5.601 4.635 9.956 9.998 9.956h201c5.523 0 10-4.478 10-10s-4.477-10-10-10h-176.857l43-43h357.715l43 43h-176.858c-5.523 0-10 4.478-10 10s4.477 10 10 10h201c5.398 0 9.974-4.396 9.998-9.956 0-.015.002-.029.002-.044v-492c0-.015-.002-.03-.002-.044-.024-5.512-4.531-9.956-9.998-9.956zm-116 371.857v-231.714l43-43v317.715zm-120-5.857v-40h40v40zm-60 0v-40h40v40zm-60 0v-40h40v40zm-126-331.857 43 43v357.715l-43 43zm226 111.857v40h-40v-40zm60 0v40h-40v-40zm60 0v40h-40v-40zm-220 60h40v40h-40zm60 0h40v40h-40zm60 0h40v40h-40zm60 0h40v40h-40zm-140-20h-40v-40h40zm-40 80h40v40h-40zm60 0h40v40h-40zm60 0h40v40h-40zm60 0h40v40h-40zm45.857-140h-231.714l-43-43h317.715zm63-63h-357.714l-43-43h443.715zm-351.857 34.143 43 43v231.715l-43 43zm243 228.857h40v40h-40zm123-248.857 43-43v443.715l-43-43zm-351.857 351.857 43-43h231.715l43 43z" fill="#00699e" data-original="#000000" style="" class=""></path><circle cx="256" cy="502" r="10" fill="#00699e" data-original="#000000" style="" class=""></circle></g></g></svg>