<svg xmlns="http://www.w3.org/2000/svg" version="1.1" xmlns:xlink="http://www.w3.org/1999/xlink" xmlns:svgjs="http://svgjs.com/svgjs" width="512" height="512" x="0" y="0" viewBox="0 0 64 64" style="enable-background:new 0 0 512 512" xml:space="preserve" class=""><g><g xmlns="http://www.w3.org/2000/svg" id="Layer_5" data-name="Layer 5"><path d="m7 40-1-17h-4v28.999l3 .001 1-8h6l.999 8h3l.001-12h-7z" fill="#00699e" data-original="#000000" style=""></path><path d="m58 23-1 17h-2-7l-.001 12h3l1.001-8h6l1 8 3-.001v-28.999z" fill="#00699e" data-original="#000000" style=""></path><path d="m25.838 49h-2.838v2h4.838a3.155 3.155 0 0 0 -2-2z" fill="#00699e" data-original="#000000" style=""></path><path d="m11 21a3 3 0 0 0 3-3v-2a3 3 0 0 0 -6 0v2a3 3 0 0 0 3 3z" fill="#00699e" data-original="#000000" style=""></path><path d="m19.341 35h-3.341a1 1 0 0 1 -1-.91l-.284-3.126-3.394-.679a2.894 2.894 0 0 1 -2.02-4.133 3.864 3.864 0 0 1 2.64-2.052 3.226 3.226 0 0 0 -.764-.1 3.185 3.185 0 0 0 -3.178 3.182v.494a37.891 37.891 0 0 0 1.728 11.324h7.272a1 1 0 0 1 .98.8l.02.1a12.07 12.07 0 0 0 4.341 7.1h2.142z" fill="#00699e" data-original="#000000" style=""></path><path d="m11.1 27.047a.893.893 0 0 0 .624 1.277l3.376.676h7.9a1 1 0 0 0 0-2h-7a1 1 0 0 1 -.316-.051l-2.895-.949a1.882 1.882 0 0 0 -1.689 1.047z" fill="#00699e" data-original="#000000" style=""></path><path d="m42 32h-7v-6h-2v-4h-2v4h-2v6h-7v2h9v18h2v-18h9z" fill="#00699e" data-original="#000000" style=""></path><path d="m52 20.816v-1.693l-.781-3.123h-1.219v2a3 3 0 0 0 2 2.816z" fill="#00699e" data-original="#000000" style=""></path><path d="m55.763 31.89a2.925 2.925 0 0 1 -3.426-1.537l-3.057.611-.28 3.126a1 1 0 0 1 -1 .91h-2.382l2 4h6.654a38.081 38.081 0 0 0 1.491-7.11z" fill="#00699e" data-original="#000000" style=""></path><path d="m41 29h7.9l3.1-.62v-2.18a1.873 1.873 0 0 0 -.789-.2h-.049l-2.846.949a1 1 0 0 1 -.316.051h-7a1 1 0 0 0 0 2z" fill="#00699e" data-original="#000000" style=""></path><path d="m52.97 14.757 1 4a1 1 0 0 1 .03.243v10a1 1 0 0 0 2 0v-13a2.989 2.989 0 0 0 -5.22-2h1.22a1 1 0 0 1 .97.757z" fill="#00699e" data-original="#000000" style=""></path><path d="m39.517 47h2.142a12.071 12.071 0 0 0 4.286-6.874l-1.875-3.75z" fill="#00699e" data-original="#000000" style=""></path><path d="m36.162 51h4.838v-2h-2.837a3.155 3.155 0 0 0 -2.001 2z" fill="#00699e" data-original="#000000" style=""></path></g></g></svg>