<svg xmlns="http://www.w3.org/2000/svg" version="1.1" xmlns:xlink="http://www.w3.org/1999/xlink" xmlns:svgjs="http://svgjs.com/svgjs" width="512" height="512" x="0" y="0" viewBox="0 0 512 512" style="enable-background:new 0 0 512 512" xml:space="preserve" class=""><g><g xmlns="http://www.w3.org/2000/svg"><path d="m462 30v-30h-30v30h-121v-30h-30v30h-50v-30h-30v30h-121v-30h-30v30h-50v482h80.593l10-29.805h330.813l10 29.805h80.594v-482zm20 452h-29.016l-10-29.805h-373.969l-10 29.805h-29.015v-422h452z" fill="#00699e" data-original="#000000" style="" class=""></path><path d="m185.887 99.271h30.113v30h-30.113z" fill="#00699e" data-original="#000000" style="" class=""></path><path d="m86.178 99.271h30.113v30h-30.113z" fill="#00699e" data-original="#000000" style="" class=""></path><path d="m385.305 99.271h30.112v30h-30.112z" fill="#00699e" data-original="#000000" style="" class=""></path><path d="m285.596 99.271h30.113v30h-30.113z" fill="#00699e" data-original="#000000" style="" class=""></path><path d="m442.361 169.349h-373.126v252.956h373.126zm-30 222.956h-313.126v-192.956h313.126z" fill="#00699e" data-original="#000000" style="" class=""></path><path d="m142.711 230h226.174v30h-226.174z" fill="#00699e" data-original="#000000" style="" class=""></path></g></g></svg>