<?xml version="1.0"?>
<svg xmlns="http://www.w3.org/2000/svg" xmlns:xlink="http://www.w3.org/1999/xlink" version="1.1" id="Capa_1" x="0px" y="0px" viewBox="0 0 512 512" style="enable-background:new 0 0 512 512;" xml:space="preserve" width="512px" height="512px"><g><g>
	<g>
		<path d="M73,449c-5.52,0-10,4.48-10,10c0,5.52,4.48,10,10,10s10-4.48,10-10C83,453.48,78.52,449,73,449z" data-original="#000000" class="active-path" data-old_color="#000000" fill="#34A853"/>
	</g>
</g><g>
	<g>
		<path d="M449,246h-40c-5.522,0-10,4.477-10,10v40c0,5.523,4.478,10,10,10h40c5.522,0,10-4.477,10-10v-40    C459,250.477,454.522,246,449,246z M439,286h-20v-20h20V286z" data-original="#000000" class="active-path" data-old_color="#000000" fill="#34A853"/>
	</g>
</g><g>
	<g>
		<path d="M449,326h-40c-5.522,0-10,4.477-10,10v40c0,5.523,4.478,10,10,10h40c5.522,0,10-4.477,10-10v-40    C459,330.477,454.522,326,449,326z M439,366h-20v-20h20V366z" data-original="#000000" class="active-path" data-old_color="#000000" fill="#34A853"/>
	</g>
</g><g>
	<g>
		<path d="M449,166h-40c-5.522,0-10,4.477-10,10v40c0,5.523,4.478,10,10,10h40c5.522,0,10-4.477,10-10v-40    C459,170.477,454.522,166,449,166z M439,206h-20v-20h20V206z" data-original="#000000" class="active-path" data-old_color="#000000" fill="#34A853"/>
	</g>
</g><g>
	<g>
		<path d="M502,86H366V63h10c5.522,0,10-4.477,10-10V10c0-5.523-4.478-10-10-10H136c-5.522,0-10,4.477-10,10v43    c0,5.523,4.478,10,10,10h10v23H10C4.478,86,0,90.477,0,96c0,16.128,0,389.902,0,406c0,5.523,4.478,10,10,10h492    c5.522,0,10-4.477,10-10c0-12.851,0-397.407,0-406C512,90.477,507.522,86,502,86z M146,20h220v23H146V20z M346,63v346H166V63H346z     M20,106h126v20H20V106z M20,146h126v263H20V146z M492,492H20v-63h472V492z M492,409H366V146h126V409z M492,126H366v-20h126V126z" data-original="#000000" class="active-path" data-old_color="#000000" fill="#34A853"/>
	</g>
</g><g>
	<g>
		<path d="M103,246H63c-5.522,0-10,4.477-10,10v40c0,5.523,4.478,10,10,10h40c5.522,0,10-4.477,10-10v-40    C113,250.477,108.522,246,103,246z M93,286H73v-20h20V286z" data-original="#000000" class="active-path" data-old_color="#000000" fill="#34A853"/>
	</g>
</g><g>
	<g>
		<path d="M103,326H63c-5.522,0-10,4.477-10,10v40c0,5.523,4.478,10,10,10h40c5.522,0,10-4.477,10-10v-40    C113,330.477,108.522,326,103,326z M93,366H73v-20h20V366z" data-original="#000000" class="active-path" data-old_color="#000000" fill="#34A853"/>
	</g>
</g><g>
	<g>
		<path d="M103,166H63c-5.522,0-10,4.477-10,10v40c0,5.523,4.478,10,10,10h40c5.522,0,10-4.477,10-10v-40    C113,170.477,108.522,166,103,166z M93,206H73v-20h20V206z" data-original="#000000" class="active-path" data-old_color="#000000" fill="#34A853"/>
	</g>
</g><g>
	<g>
		<path d="M236,246h-40c-5.522,0-10,4.477-10,10v40c0,5.523,4.478,10,10,10h40c5.522,0,10-4.477,10-10v-40    C246,250.477,241.522,246,236,246z M226,286h-20v-20h20V286z" data-original="#000000" class="active-path" data-old_color="#000000" fill="#34A853"/>
	</g>
</g><g>
	<g>
		<path d="M316,246h-40c-5.522,0-10,4.477-10,10v40c0,5.523,4.478,10,10,10h40c5.522,0,10-4.477,10-10v-40    C326,250.477,321.522,246,316,246z M306,286h-20v-20h20V286z" data-original="#000000" class="active-path" data-old_color="#000000" fill="#34A853"/>
	</g>
</g><g>
	<g>
		<path d="M236,326h-40c-5.522,0-10,4.477-10,10v40c0,5.523,4.478,10,10,10h40c5.522,0,10-4.477,10-10v-40    C246,330.477,241.522,326,236,326z M226,366h-20v-20h20V366z" data-original="#000000" class="active-path" data-old_color="#000000" fill="#34A853"/>
	</g>
</g><g>
	<g>
		<path d="M316,326h-40c-5.522,0-10,4.477-10,10v40c0,5.523,4.478,10,10,10h40c5.522,0,10-4.477,10-10v-40    C326,330.477,321.522,326,316,326z M306,366h-20v-20h20V366z" data-original="#000000" class="active-path" data-old_color="#000000" fill="#34A853"/>
	</g>
</g><g>
	<g>
		<path d="M236,166h-40c-5.522,0-10,4.477-10,10v40c0,5.523,4.478,10,10,10h40c5.522,0,10-4.477,10-10v-40    C246,170.477,241.522,166,236,166z M226,206h-20v-20h20V206z" data-original="#000000" class="active-path" data-old_color="#000000" fill="#34A853"/>
	</g>
</g><g>
	<g>
		<path d="M316,166h-40c-5.522,0-10,4.477-10,10v40c0,5.523,4.478,10,10,10h40c5.522,0,10-4.477,10-10v-40    C326,170.477,321.522,166,316,166z M306,206h-20v-20h20V206z" data-original="#000000" class="active-path" data-old_color="#000000" fill="#34A853"/>
	</g>
</g><g>
	<g>
		<path d="M236,86h-40c-5.522,0-10,4.477-10,10v40c0,5.523,4.478,10,10,10h40c5.522,0,10-4.477,10-10V96    C246,90.477,241.522,86,236,86z M226,126h-20v-20h20V126z" data-original="#000000" class="active-path" data-old_color="#000000" fill="#34A853"/>
	</g>
</g><g>
	<g>
		<path d="M316,86h-40c-5.522,0-10,4.477-10,10v40c0,5.523,4.478,10,10,10h40c5.522,0,10-4.477,10-10V96    C326,90.477,321.522,86,316,86z M306,126h-20v-20h20V126z" data-original="#000000" class="active-path" data-old_color="#000000" fill="#34A853"/>
	</g>
</g><g>
	<g>
		<path d="M439,449H113c-5.522,0-10,4.477-10,10s4.478,10,10,10h326c5.522,0,10-4.477,10-10S444.522,449,439,449z" data-original="#000000" class="active-path" data-old_color="#000000" fill="#34A853"/>
	</g>
</g></g> </svg>
