<?xml version="1.0"?>
<svg xmlns="http://www.w3.org/2000/svg" xmlns:xlink="http://www.w3.org/1999/xlink" xmlns:svgjs="http://svgjs.com/svgjs" version="1.1" width="512" height="512" x="0" y="0" viewBox="0 0 64 64" style="enable-background:new 0 0 512 512" xml:space="preserve" class=""><circle r="32" cx="32" cy="32" fill="#00529e" shape="circle"/><g transform="matrix(0.7,0,0,0.7,9.600000000000001,10.05)"><g xmlns="http://www.w3.org/2000/svg" id="Modern_house" data-name="Modern house"><path d="M58,57H57V35a1,1,0,0,0-1-1H51V25a1,1,0,0,0-.581-.908L38,18.36V13a1,1,0,0,0-1-1H17a1,1,0,0,0-1,1V57H10V55.91a5.976,5.976,0,0,0,3.793-9.5,4.953,4.953,0,0,0-1.136-4.808A3.909,3.909,0,0,0,13,40a4,4,0,0,0-8,0,3.917,3.917,0,0,0,.343,1.606,4.951,4.951,0,0,0-1.136,4.807A5.976,5.976,0,0,0,8,55.91V57H2a1,1,0,0,0,0,2H58a1,1,0,0,0,0-2ZM5,50a3.982,3.982,0,0,1,1.077-2.709,1,1,0,0,0,.182-1.084,2.959,2.959,0,0,1,.957-3.6,1,1,0,0,0,.2-1.4A1.981,1.981,0,0,1,7,40a2,2,0,0,1,4,0,1.981,1.981,0,0,1-.414,1.2,1,1,0,0,0,.2,1.4,2.959,2.959,0,0,1,.957,3.6,1,1,0,0,0,.182,1.084A3.969,3.969,0,0,1,10,53.858V51a1,1,0,0,0-2,0v2.858A4,4,0,0,1,5,50ZM49,25.64V34H38V20.563ZM18,14H36V57H18ZM42,57V47h9V57Zm11,0V46a1,1,0,0,0-1-1H41a1,1,0,0,0-1,1V57H38V36H55V57Z" fill="#ffffff" data-original="#000000" style="" class=""/><path d="M62,57H61a1,1,0,0,0,0,2h1a1,1,0,0,0,0-2Z" fill="#ffffff" data-original="#000000" style="" class=""/><path d="M32,16H22a1,1,0,0,0-1,1V31a1,1,0,0,0,1,1H32a1,1,0,0,0,1-1V17A1,1,0,0,0,32,16ZM23,30V18h3V30Zm8,0H28V18h3Z" fill="#ffffff" data-original="#000000" style="" class=""/><path d="M32,34H22a1,1,0,0,0-1,1V49a1,1,0,0,0,1,1H32a1,1,0,0,0,1-1V35A1,1,0,0,0,32,34ZM23,48V36h3V48Zm8,0H28V36h3Z" fill="#ffffff" data-original="#000000" style="" class=""/><path d="M52,38H41a1,1,0,0,0-1,1v4a1,1,0,0,0,1,1H52a1,1,0,0,0,1-1V39A1,1,0,0,0,52,38Zm-1,4H42V40h9Z" fill="#ffffff" data-original="#000000" style="" class=""/><path d="M55.879,11.021a3.991,3.991,0,0,0-7.346-.994A4,4,0,0,0,49,18h7a.929.929,0,0,0,.5-.145,3.5,3.5,0,0,0-.618-6.834ZM55.8,15.97a1.088,1.088,0,0,0-.112.03H49a2,2,0,0,1-.035-4l.147.016a.986.986,0,0,0,1.01-.669A1.993,1.993,0,0,1,54,11.958c0,.033-.005.067-.005.093a1,1,0,0,0,1.2.98A1.529,1.529,0,0,1,57,14.5,1.5,1.5,0,0,1,55.8,15.97Z" fill="#ffffff" data-original="#000000" style="" class=""/></g></g></svg>
