<svg   fill="#fff" xmlns="http://www.w3.org/2000/svg" xmlns:xlink="http://www.w3.org/1999/xlink" version="1.1" x="0px" y="0px" viewBox="0 0 512 512" enable-background="new 0 0 512 512" xml:space="preserve"><g><path d="M485.4,428.1V215h-98.3v-65.5h-41V67.5H67.5v81.9h-41v278.6H2v16.4h41V165.9h327.7v278.6H510v-16.4H485.4z M83.9,149.5   V83.9h245.8v65.5H83.9z M469,428.1h-81.9V231.4H469V428.1z"></path><path d="M75.7,444.5h16.4v-73.7h229.4v73.7h16.4v-213H75.7V444.5z M92.1,354.3v-24.6h229.4v24.6H92.1z M92.1,313.4v-24.6h229.4   v24.6H92.1z M321.5,247.8v24.6H92.1v-24.6H321.5z"></path><rect x="198.6" y="108.5" width="16.4" height="16.4"></rect><rect x="231.4" y="108.5" width="16.4" height="16.4"></rect><rect x="165.9" y="108.5" width="16.4" height="16.4"></rect></g></svg>
