<svg    fill="#fff" xmlns="http://www.w3.org/2000/svg" xmlns:xlink="http://www.w3.org/1999/xlink" version="1.1" x="0px" y="0px" viewBox="1 -1 100 100" style="enable-background:new 1 -1 100 100;" xml:space="preserve"><title>10</title><g><path d="M17.1,45.5v29.7L12.7,76l1.5,6.8c3.3-0.7,6.6-1.1,10-1.1c5.4-0.1,10.7,0.9,15.7,2.9   c-1.8,1.9-3.2,4.2-4.1,6.6l6.6,2.4c3.3-8.9,18.7-15.6,36-15.6c5.2,0,10.4,0.7,15.4,1.9l1.7-6.8c-4.6-1.1-9.3-1.8-14-2V45.5l6,5.2   l4.6-5.3L76.2,31.5V4.4H58v11.2l-8.3-7.3L6.5,45.4l4.6,5.3L17.1,45.5z M65,11.4h4.2v14L65,21.7V11.4z M74.5,39.4v31.7   c-11.3,0.6-21.5,3.7-28.7,8.5c-6.7-3.3-14.1-5-21.6-4.9h-0.1V39.5l25.6-21.9L74.5,39.4z"></path><path d="M67.7,40.2L31,40v29.4h36.7V40.2z M60.7,54.1h-7.9v-7h7.9L60.7,54.1z M45.8,47.1V54H38v-6.9H45.8z    M38,60.9h7.8v1.4H38V60.9z M52.8,62.4V61h7.9v1.3L52.8,62.4z"></path></g></svg>
