<svg height='300px' width='300px'  fill="#00699e" xmlns="http://www.w3.org/2000/svg" xmlns:xlink="http://www.w3.org/1999/xlink" xmlns:serif="http://www.serif.com/" viewBox="0 0 32 32" version="1.1" xml:space="preserve" style="" x="0px" y="0px" fill-rule="evenodd" clip-rule="evenodd" stroke-linejoin="round" stroke-miterlimit="2"><g transform="matrix(1,0,0,1,-80,-32)"><g><path d="M103,35L97,35L97,34C97,33.448 96.552,33 96,33C95.448,33 95,33.448 95,34L95,35L89,35L89,34C89,33.448 88.552,33 88,33C87.448,33 87,33.448 87,34L87,35L83.5,35C82.837,35 82.201,35.263 81.732,35.732C81.263,36.201 81,36.837 81,37.5L81,60.5C81,61.163 81.263,61.799 81.732,62.268C82.201,62.737 82.837,63 83.5,63C88.36,63 103.64,63 108.5,63C109.163,63 109.799,62.737 110.268,62.268C110.737,61.799 111,61.163 111,60.5L111,37.5C111,36.837 110.737,36.201 110.268,35.732C109.799,35.263 109.163,35 108.5,35L105,35L105,34C105,33.448 104.552,33 104,33C103.448,33 103,33.448 103,34L103,35ZM109,43L109,60.5C109,60.633 108.947,60.76 108.854,60.854C108.76,60.947 108.633,61 108.5,61L83.5,61C83.367,61 83.24,60.947 83.146,60.854C83.053,60.76 83,60.633 83,60.5L83,43L109,43ZM88,55C88.552,55 89,55.448 89,56C89,56.552 88.552,57 88,57C87.448,57 87,56.552 87,56C87,55.448 87.448,55 88,55ZM92,55C92.552,55 93,55.448 93,56C93,56.552 92.552,57 92,57C91.448,57 91,56.552 91,56C91,55.448 91.448,55 92,55ZM96,55C96.552,55 97,55.448 97,56C97,56.552 96.552,57 96,57C95.448,57 95,56.552 95,56C95,55.448 95.448,55 96,55ZM100,55C100.552,55 101,55.448 101,56C101,56.552 100.552,57 100,57C99.448,57 99,56.552 99,56C99,55.448 99.448,55 100,55ZM88,51C88.552,51 89,51.448 89,52C89,52.552 88.552,53 88,53C87.448,53 87,52.552 87,52C87,51.448 87.448,51 88,51ZM92,51C92.552,51 93,51.448 93,52C93,52.552 92.552,53 92,53C91.448,53 91,52.552 91,52C91,51.448 91.448,51 92,51ZM96,51C96.552,51 97,51.448 97,52C97,52.552 96.552,53 96,53C95.448,53 95,52.552 95,52C95,51.448 95.448,51 96,51ZM100,51C100.552,51 101,51.448 101,52C101,52.552 100.552,53 100,53C99.448,53 99,52.552 99,52C99,51.448 99.448,51 100,51ZM104,51C104.552,51 105,51.448 105,52C105,52.552 104.552,53 104,53C103.448,53 103,52.552 103,52C103,51.448 103.448,51 104,51ZM92,47C92.552,47 93,47.448 93,48C93,48.552 92.552,49 92,49C91.448,49 91,48.552 91,48C91,47.448 91.448,47 92,47ZM96,47C96.552,47 97,47.448 97,48C97,48.552 96.552,49 96,49C95.448,49 95,48.552 95,48C95,47.448 95.448,47 96,47ZM100,47C100.552,47 101,47.448 101,48C101,48.552 100.552,49 100,49C99.448,49 99,48.552 99,48C99,47.448 99.448,47 100,47ZM104,47C104.552,47 105,47.448 105,48C105,48.552 104.552,49 104,49C103.448,49 103,48.552 103,48C103,47.448 103.448,47 104,47ZM105,37L105,38C105,38.552 104.552,39 104,39C103.448,39 103,38.552 103,38L103,37L97,37L97,38C97,38.552 96.552,39 96,39C95.448,39 95,38.552 95,38L95,37L89,37L89,38C89,38.552 88.552,39 88,39C87.448,39 87,38.552 87,38L87,37L83.5,37C83.367,37 83.24,37.053 83.146,37.146C83.053,37.24 83,37.367 83,37.5L83,41L109,41L109,37.5C109,37.367 108.947,37.24 108.854,37.146C108.76,37.053 108.633,37 108.5,37L105,37Z"></path></g></g></svg>
