<svg xmlns="http://www.w3.org/2000/svg" version="1.1" xmlns:xlink="http://www.w3.org/1999/xlink" xmlns:svgjs="http://svgjs.com/svgjs"   x="0" y="0" viewBox="0 0 512 512" style="enable-background:new 0 0 512 512" xml:space="preserve" class=""><g><g xmlns="http://www.w3.org/2000/svg"><path d="m211 105h90c4.143 0 7.5-3.358 7.5-7.5s-3.357-7.5-7.5-7.5h-90c-4.142 0-7.5 3.358-7.5 7.5s3.358 7.5 7.5 7.5z" fill="#00699e" data-original="#00699e" class=""></path><path d="m256 75c12.406 0 22.5-10.093 22.5-22.5s-10.094-22.5-22.5-22.5c-12.407 0-22.5 10.093-22.5 22.5s10.093 22.5 22.5 22.5zm0-30c4.136 0 7.5 3.364 7.5 7.5s-3.364 7.5-7.5 7.5-7.5-3.364-7.5-7.5 3.364-7.5 7.5-7.5z" fill="#00699e" data-original="#00699e" class=""></path><path d="m406 45h-98.034c-3.651-25.409-25.564-45-51.966-45s-48.315 19.591-51.966 45h-98.034c-20.678 0-37.5 16.822-37.5 37.5v392c0 20.678 16.822 37.5 37.5 37.5h300c20.678 0 37.5-16.822 37.5-37.5v-392c0-20.678-16.822-37.5-37.5-37.5zm-195 15c4.142 0 7.5-3.358 7.5-7.5 0-20.678 16.822-37.5 37.5-37.5s37.5 16.822 37.5 37.5c0 4.142 3.357 7.5 7.5 7.5h22.5v37.5c0 4.142 3.357 7.5 7.5 7.5h15c9.778 0 18.119 6.27 21.215 15h-222.43c3.095-8.73 11.437-15 21.215-15h15c4.142 0 7.5-3.358 7.5-7.5v-37.5zm187.5 144.5c0 28.949-23.552 52.5-52.5 52.5h-90c-4.142 0-7.5 3.358-7.5 7.5v90c0 28.949-23.551 52.5-52.5 52.5h-82.5v-302h22.52c-4.719 6.272-7.52 14.064-7.52 22.5 0 4.142 3.358 7.5 7.5 7.5h240c4.143 0 7.5-3.358 7.5-7.5 0-8.436-2.801-16.228-7.52-22.5h22.52zm-285 247.5h285v15h-285zm285-15h-285v-15h82.5c18.61 0 35.485-7.57 47.707-19.792.022.022 150.023-149.978 150.023-149.978 1.67-1.715 3.263-3.505 4.77-5.369zm-135.379-75.375c.247-2.342.379-4.718.379-7.125v-82.5h82.5c2.407 0 4.783-.132 7.125-.379zm165.379 112.875c0 12.407-10.094 22.5-22.5 22.5h-300c-12.407 0-22.5-10.093-22.5-22.5v-392c0-12.407 10.093-22.5 22.5-22.5h67.5v30h-67.5c-4.142 0-7.5 3.358-7.5 7.5v377c0 4.142 3.358 7.5 7.5 7.5h300c4.143 0 7.5-3.358 7.5-7.5v-377c0-4.142-3.357-7.5-7.5-7.5h-67.5v-30h67.5c12.406 0 22.5 10.093 22.5 22.5z" fill="#00699e" data-original="#00699e" class=""></path></g></g></svg>
