<svg height='300px' width='300px'  fill="#00699e" xmlns="http://www.w3.org/2000/svg" xmlns:xlink="http://www.w3.org/1999/xlink" version="1.1" x="0px" y="0px" viewBox="0 0 512 512" style="enable-background:new 0 0 512 512;" xml:space="preserve"><g><g><g><path d="M486,493.003c-0.085,0-0.17-0.002-0.254-0.005H26c-3.866,0-7-3.134-7-7s3.134-7,7-7h13v-93c0-3.866,3.134-7,7-7h83v-83     c0-3.866,3.134-7,7-7h73v-93c0-3.866,3.134-7,7-7h83v-83c0-3.866,3.134-7,7-7h83v-73c0-3.866,3.134-7,7-7h90c3.866,0,7,3.134,7,7     v460.005c0-0.005,0-0.005,0-0.005v0.005C493,489.868,489.866,493.003,486,493.003z M53,478.998h426v-446h-76v73     c0,3.866-3.134,7-7,7h-83v83c0,3.866-3.134,7-7,7h-83v93c0,3.866-3.134,7-7,7h-73v83c0,3.866-3.134,7-7,7H53V478.998z"></path></g><g><path d="M46,392.998H26c-3.866,0-7-3.134-7-7s3.134-7,7-7h20c3.866,0,7,3.134,7,7S49.866,392.998,46,392.998z"></path></g><g><path d="M136,302.998h-20c-3.866,0-7-3.134-7-7s3.134-7,7-7h20c3.866,0,7,3.134,7,7S139.866,302.998,136,302.998z"></path></g><g><path d="M216,202.998h-20c-3.866,0-7-3.134-7-7s3.134-7,7-7h20c3.866,0,7,3.134,7,7S219.866,202.998,216,202.998z"></path></g><g><path d="M306,112.998h-20c-3.866,0-7-3.134-7-7s3.134-7,7-7h20c3.866,0,7,3.134,7,7S309.866,112.998,306,112.998z"></path></g><g><path d="M396,32.998h-20c-3.866,0-7-3.134-7-7s3.134-7,7-7h20c3.866,0,7,3.134,7,7S399.866,32.998,396,32.998z"></path></g><g><path d="M426,422.998H326c-3.866,0-7-3.134-7-7s3.134-7,7-7h93v-143c0-3.866,3.134-7,7-7s7,3.134,7,7v150     C433,419.864,429.866,422.998,426,422.998z"></path></g></g></g></svg>
