<svg    fill="#fff" xmlns="http://www.w3.org/2000/svg" viewBox="0 0 68 68" x="0px" y="0px"><path fill="#fff" d="M302,56 L358,56 C361.313708,56 364,58.6862915 364,62 L364,118 C364,121.313708 361.313708,124 358,124 L302,124 C298.686292,124 296,121.313708 296,118 L296,62 C296,58.6862915 298.686292,56 302,56 Z M300,85 L300,100 L312,100 C312.489828,100 312.962625,100.179757 313.328728,100.505181 L322.328728,108.505181 C323.154293,109.239017 323.228655,110.503162 322.494819,111.328728 C321.760983,112.154293 320.496838,112.228655 319.671272,111.494819 L311.239601,104 L300,104 L300,118 C300,119.104569 300.895431,120 302,120 L358,120 C359.104569,120 360,119.104569 360,118 L360,85 L354,85 C352.895431,85 352,84.1045695 352,83 C352,81.8954305 352.895431,81 354,81 L360,81 L360,62 C360,60.8954305 359.104569,60 358,60 L320,60 L320,64 C320,65.1045695 319.104569,66 318,66 C316.895431,66 316,65.1045695 316,64 L316,60 L302,60 C300.895431,60 300,60.8954305 300,62 L300,81 L316,81 L316,77 C316,75.8954305 316.895431,75 318,75 C319.104569,75 320,75.8954305 320,77 L320,81 L340,81 C341.104569,81 342,81.8954305 342,83 C342,84.1045695 341.104569,85 340,85 L336,85 L336,102 C336,103.104569 335.104569,104 334,104 L328,104 C326.895431,104 326,103.104569 326,102 C326,100.895431 326.895431,100 328,100 L332,100 L332,85 L300,85 Z" transform="translate(-296 -56)"></path></svg>
