<svg xmlns="http://www.w3.org/2000/svg" id="Capa_1" enable-background="new 0 0 512 512" height="30px" viewBox="0 0 512 512" width="30px"><g><g><path d="m271 241.002h-30v30h-30v30h30v30h30v-30h30v-30h-30z" data-original="#000000" class="active-path" fill="#000000"/><path d="m256 181.002c-57.897 0-105 47.103-105 105s47.103 105 105 105 105-47.103 105-105-47.103-105-105-105zm0 180c-41.355 0-75-33.645-75-75s33.645-75 75-75 75 33.645 75 75-33.645 75-75 75z" data-original="#000000" class="active-path" fill="#000000"/><path d="m361 75.005v-30.002h-210v30.002h-151v391.992h512v-391.992zm-180-.002h150v30.004h-150zm301 361.994h-452v-331.992h121v30.002h210v-30.002h121z" data-original="#000000" class="active-path" fill="#34A853"/></g></g> </svg>
