<svg    fill="#00699e" xmlns="http://www.w3.org/2000/svg" xmlns:xlink="http://www.w3.org/1999/xlink" version="1.1" x="0px" y="0px" viewBox="0 0 100 100" enable-background="new 0 0 100 100" xml:space="preserve"><g><g><path d="M30,1.7C30,1.8,30.1,1.9,30.1,2c0.8,1.6,1.6,3.2,2.4,4.8c0.1,0.2,0.3,0.3,0.5,0.3c1.8,0.3,3.7,0.5,5.5,0.8    c0,0,0.1,0,0.2,0c-0.1,0.1-0.1,0.2-0.2,0.2c-0.8,0.8-1.7,1.6-2.5,2.4c-0.5,0.5-1,0.9-1.4,1.4c-0.1,0.1-0.2,0.3-0.1,0.4    c0.3,1.8,0.6,3.6,0.9,5.5c0,0.1,0,0.1,0,0.3c-0.1-0.1-0.2-0.1-0.3-0.1c-1.6-0.8-3.2-1.7-4.8-2.5c-0.2-0.1-0.3-0.1-0.5,0    c-1.6,0.9-3.2,1.7-4.9,2.6c-0.1,0-0.1,0.1-0.3,0.1c0-0.1,0-0.2,0-0.2c0.2-1.2,0.4-2.3,0.6-3.5c0.1-0.7,0.2-1.3,0.3-2    c0-0.2,0-0.3-0.2-0.5c-1.3-1.2-2.6-2.5-3.8-3.7c-0.1-0.1-0.2-0.2-0.3-0.3C21.4,8,21.4,8,21.4,8c0.8-0.1,1.7-0.2,2.5-0.4    c0.9-0.1,1.9-0.3,2.8-0.4c0.7-0.1,0.5,0,0.8-0.6c0.8-1.6,1.6-3.1,2.3-4.7C29.9,1.8,29.9,1.8,30,1.7C29.9,1.7,29.9,1.7,30,1.7z"></path><path d="M16.7,79.9c-4.9,0-9.8,0-14.8,0c0-0.1,0-0.1,0-0.2c0-0.1,0-0.1,0-0.2c0-19.6,0-39.2,0-58.8c0-0.2,0-0.4,0.1-0.6    c0.2-0.7,0.8-1.2,1.5-1.2c0.1,0,0.2,0,0.3,0c17.5,0,35,0,52.4,0c0.2,0,0.4,0,0.6,0.1c0.7,0.2,1.1,0.8,1.2,1.5c0,0.1,0,0.2,0,0.2    c0,19.6,0,39.2,0,58.9c0,0.1,0,0.2,0,0.3c-4.9,0-9.8,0-14.8,0c-0.6-3.6-2.3-6.6-5.2-8.8c-2.4-1.8-5.1-2.7-8-2.7    c-2.2,0-4.2,0.5-6.1,1.5c-1.9,1-3.5,2.4-4.8,4.1C17.8,75.8,17,77.8,16.7,79.9z M37.5,37.7c0-0.3,0-15,0-15.1c0,0-0.1,0-0.1,0    c-5,0-9.9,0-14.9,0c0,0-0.1,0-0.1,0c0,0,0,0,0,0c0,0,0,0,0,0c0,5,0,10.1,0,15.1C27.4,37.7,32.5,37.7,37.5,37.7z M39.8,22.6    c0,5.1,0,10.1,0,15.1c0.4,0,15,0,15.1,0c0-0.4,0-14.9,0-15.1C49.8,22.6,44.8,22.6,39.8,22.6z M20.2,22.6c-5.1,0-10.1,0-15.1,0    c0,5,0,10.1,0,15.1c5,0,10.1,0,15.1,0C20.2,32.6,20.2,27.6,20.2,22.6z M20.2,55.3c0-5.1,0-10.1,0-15.1c-0.3-0.1-15,0-15.1,0    c0,5,0,10.1,0,15.1C10.1,55.3,15.1,55.3,20.2,55.3z M22.4,55.3c0.4,0.1,15,0,15.1,0c0-5,0-10.1,0-15.1c-5,0-10.1,0-15.1,0    C22.4,45.2,22.4,50.2,22.4,55.3z M54.9,40.1c-5.1,0-10.1,0-15.1,0c0,0.3,0,15,0,15.1c0.4,0,14.9,0,15.1,0    C54.9,50.2,54.9,45.2,54.9,40.1z M22.4,66.1c0.4,0.1,15,0,15.1,0c0-2.7,0-5.4,0-8.1c-5,0-10.1,0-15.1,0    C22.4,60.7,22.4,63.4,22.4,66.1z M39.8,66.2c5.1,0,10.1,0,15.1,0c0-2.7,0-5.4,0-8.2c-5.1,0-10.1,0-15.1,0    C39.8,60.7,39.8,63.4,39.8,66.2z M20.2,58c-5.1,0-10.1,0-15.1,0c0,2.7,0,5.4,0,8.2c0.4,0,15,0,15.1,0C20.2,63.4,20.2,60.7,20.2,58    z"></path><path d="M58,81.9c0,0.1,0,0.2,0,0.2c0,4.8,0,9.7,0,14.5c0,0.8-0.5,1.4-1.3,1.6c-0.2,0-0.3,0-0.5,0c-5.2,0-10.3,0-15.5,0    c-0.1,0-0.2,0-0.3,0c0-4.8,0-9.6,0-14.4c-6.9,0-13.9,0-20.8,0c0,0,0,0,0,0c0,0,0,0,0,0c0,0,0,0,0,0c0,0,0,0,0,0.1    c0,4.7,0,9.5,0,14.2c0,0,0,0,0,0c0,0,0,0,0,0c-0.1,0-0.2,0-0.2,0c-0.5,0-1.1,0-1.6,0c-4.7,0-9.3,0-14,0c-0.2,0-0.4,0-0.6,0    C2.5,98.1,2,97.5,2,96.8c0-0.1,0-0.2,0-0.3c0-4.8,0-9.5,0-14.3c0-0.1,0-0.2,0-0.3C20.6,81.9,39.3,81.9,58,81.9z"></path><path d="M17.6,7.5c0.1,0.1,0.1,0.2,0.1,0.3c0.5,1,1,1.9,1.4,2.9c0.1,0.2,0.2,0.3,0.4,0.3c1.1,0.1,2.1,0.3,3.2,0.5    c0.1,0,0.2,0,0.3,0.1c-0.1,0.1-0.1,0.2-0.2,0.2c-0.8,0.7-1.5,1.5-2.3,2.2c-0.2,0.2-0.2,0.3-0.2,0.5c0.2,1,0.4,2,0.5,3    c0,0.1,0,0.2,0,0.4c-0.1,0-0.2-0.1-0.3-0.1c-0.7-0.3-1.3-0.7-2-1c-0.3-0.2-0.6-0.3-0.9-0.5c-0.1-0.1-0.2-0.1-0.4,0    c-0.9,0.5-1.9,1-2.8,1.5c-0.1,0.1-0.2,0.1-0.4,0.2c0-0.1,0-0.2,0-0.3c0.2-1,0.4-2.1,0.5-3.1c0-0.2,0-0.4-0.2-0.5    c-0.7-0.7-1.5-1.4-2.2-2.2c-0.1-0.1-0.1-0.1-0.2-0.3c0.1,0,0.2-0.1,0.2-0.1c0.8-0.1,1.7-0.2,2.5-0.4c0.2,0,0.5-0.1,0.7-0.1    c0.2,0,0.2-0.1,0.3-0.2c0.5-1,0.9-1.9,1.4-2.9C17.4,7.7,17.5,7.7,17.6,7.5z"></path><path d="M39.1,17.8c0-0.1,0-0.2,0-0.3c0.2-1.1,0.4-2.2,0.6-3.2c0-0.2,0-0.3-0.2-0.4c-0.5-0.5-1-1-1.5-1.5    c-0.3-0.3-0.5-0.5-0.8-0.8c-0.1-0.1-0.1-0.1-0.2-0.2c0.1,0,0.2-0.1,0.3-0.1c1.1-0.2,2.1-0.3,3.2-0.5c0.2,0,0.3-0.1,0.4-0.3    c0.5-0.9,0.9-1.9,1.4-2.8c0-0.1,0.1-0.2,0.2-0.3c0.1,0.1,0.1,0.2,0.2,0.3c0.5,0.9,0.9,1.8,1.4,2.8c0.1,0.2,0.3,0.3,0.5,0.4    c1,0.1,2.1,0.3,3.1,0.4c0.1,0,0.1,0,0.3,0.1c-0.1,0.1-0.1,0.2-0.2,0.2c-0.7,0.7-1.4,1.4-2.1,2.1c-0.4,0.3-0.3,0.3-0.3,0.8    c0.2,1,0.3,2,0.5,2.9c0,0.1,0,0.1,0,0.3c-0.1-0.1-0.3-0.1-0.4-0.2c-0.9-0.5-1.8-0.9-2.7-1.4c-0.2-0.1-0.3-0.1-0.5,0    c-0.9,0.5-1.9,1-2.8,1.5C39.2,17.7,39.2,17.7,39.1,17.8z"></path><path d="M52.6,9.4c0.1,0.1,0.1,0.2,0.1,0.2c0.4,0.8,0.7,1.5,1.1,2.3c0.1,0.1,0.2,0.2,0.3,0.2c0.8,0.1,1.7,0.2,2.5,0.4    c0.1,0,0.2,0,0.3,0.1c-0.1,0.1-0.1,0.2-0.2,0.2c-0.6,0.6-1.2,1.1-1.7,1.7c-0.1,0.1-0.2,0.3-0.2,0.5c0.1,0.8,0.3,1.5,0.4,2.3    c0,0.1,0,0.2,0,0.3c-0.1,0-0.2,0-0.3-0.1c-0.7-0.4-1.4-0.7-2.1-1.1c-0.2-0.1-0.3-0.1-0.5,0c-0.7,0.4-1.4,0.8-2.2,1.1    c-0.1,0-0.1,0.1-0.2,0.1c0-0.1,0-0.2,0-0.2c0.1-0.8,0.3-1.6,0.4-2.4c0-0.2,0-0.4-0.2-0.5c-0.6-0.6-1.2-1.1-1.7-1.7    c-0.1-0.1-0.1-0.1-0.2-0.2c0.1,0,0.2-0.1,0.2-0.1c0.6-0.1,1.3-0.2,1.9-0.3c0.2,0,0.3-0.1,0.5-0.1c0.2,0,0.4-0.1,0.5-0.3    c0.3-0.7,0.7-1.4,1-2.1C52.5,9.6,52.5,9.6,52.6,9.4z"></path><path d="M7.4,9.4c0.1,0.1,0.1,0.2,0.2,0.3c0.4,0.7,0.7,1.4,1.1,2.2c0.1,0.2,0.2,0.2,0.4,0.3c0.8,0.1,1.6,0.2,2.5,0.4    c0.1,0,0.1,0,0.3,0.1c-0.1,0.1-0.2,0.2-0.3,0.3c-0.6,0.6-1.1,1.1-1.7,1.7c-0.1,0.1-0.2,0.2-0.1,0.4c0.2,0.8,0.3,1.6,0.4,2.4    c0,0.1,0,0.2,0,0.3c-0.1,0-0.2-0.1-0.3-0.1c-0.7-0.4-1.5-0.8-2.2-1.1c-0.2-0.1-0.3-0.1-0.5,0c-0.7,0.4-1.4,0.7-2,1.1    c-0.1,0.1-0.2,0.1-0.4,0.2c0-0.1,0-0.2,0-0.2C4.8,16.6,5,15.8,5.1,15c0-0.2,0-0.3-0.1-0.5c-0.6-0.5-1.1-1.1-1.7-1.6    c-0.1-0.1-0.2-0.2-0.3-0.3c0.2,0,0.4-0.1,0.5-0.1c0.7-0.1,1.4-0.2,2.2-0.3c0.2,0,0.3-0.1,0.4-0.3c0.3-0.7,0.7-1.4,1-2.1    C7.2,9.7,7.3,9.6,7.4,9.4z"></path></g><g><path d="M61.5,38.2c11.6,0,23.1,0,34.7,0c0,0,0,0,0,0c1.1,0.2,1.9,1.1,1.9,2.2c0,13.2,0,26.3,0,39.5c0,0.1,0,0.1,0,0.2    c-12.8,0-25.7,0-38.5,0c0-0.1,0-0.1,0-0.2c0-13.2,0-26.3,0-39.5c0-1,0.6-1.8,1.5-2.1C61.2,38.3,61.3,38.3,61.5,38.2z M61.5,40.6    c0,3.4,0,6.8,0,10.2c3.4,0,6.8,0,10.2,0c0-3.4,0-6.8,0-10.2C68.3,40.6,64.9,40.6,61.5,40.6z M73.7,50.8c3.4,0,6.8,0,10.2,0    c0-3.4,0-6.8,0-10.2c-3.4,0-6.8,0-10.2,0C73.7,44,73.7,47.4,73.7,50.8z M96.2,40.6c-3.4,0-6.8,0-10.2,0c0,3.4,0,6.8,0,10.2    c3.4,0,6.8,0,10.2,0C96.2,47.4,96.2,44.1,96.2,40.6z M61.5,63.7c3.4,0,6.8,0,10.2,0c0-3.4,0-6.8,0-10.2c-3.4,0-6.8,0-10.2,0    C61.5,56.9,61.5,60.3,61.5,63.7z M73.7,63.7c3.4,0,6.8,0,10.2,0c0-3.4,0-6.8,0-10.2c-3.4,0-6.8,0-10.2,0    C73.7,56.9,73.7,60.3,73.7,63.7z M86,53.5c0,3.4,0,6.8,0,10.2c3.4,0,6.8,0,10.2,0c0-3.4,0-6.8,0-10.2C92.7,53.5,89.4,53.5,86,53.5    z M61.5,66.3c0,3.4,0,6.8,0,10.2c3.4,0,6.8,0,10.2,0c0-3.4,0-6.8,0-10.2C68.3,66.3,64.9,66.3,61.5,66.3z M83.9,76.5    c0-3.4,0-6.8,0-10.2c-3.4,0-6.8,0-10.2,0c0,3.4,0,6.8,0,10.2C77.1,76.5,80.5,76.5,83.9,76.5z M86,76.5c3.4,0,6.8,0,10.2,0    c0-3.4,0-6.8,0-10.2c-3.4,0-6.8,0-10.2,0C86,69.7,86,73.1,86,76.5z"></path><path d="M59.6,82.1c12.8,0,25.7,0,38.5,0c0,0.1,0,0.1,0,0.2c0,4.6,0,9.2,0,13.8c0,1.3-1,2.2-2.2,2.2c-3.2,0-6.4,0-9.6,0    c-0.1,0-0.1,0-0.2,0c0-4.8,0-9.5,0-14.3c-4.8,0-9.5,0-14.3,0c0,4.8,0,9.5,0,14.3c-0.1,0-0.1,0-0.2,0c-3.2,0-6.4,0-9.6,0    c-1.3,0-2.2-1-2.2-2.2c0-3.6,0-7.1,0-10.7c0-1,0-2.1,0-3.1C59.6,82.2,59.6,82.1,59.6,82.1z"></path></g></g></svg>
