<svg    fill="#fff" xmlns="http://www.w3.org/2000/svg" xmlns:xlink="http://www.w3.org/1999/xlink" version="1.1" x="0px" y="0px" viewBox="0 0 64 64" style="enable-background:new 0 0 64 64;" xml:space="preserve"><g><path d="M48,48.666v-5.627c0-2.227-0.867-4.32-2.441-5.894c-1.356-1.357-3.155-2.209-5.064-2.4L34,34.095V33h-0.104   C37.556,30.698,40,26.634,40,22v-2h2c1.103,0,2-0.897,2-2v-2c0-1.103-0.897-2-2-2h-1v-1c0-6.617-5.383-12-12-12h-4   c-6.617,0-12,5.383-12,12v1h-1c-1.103,0-2,0.897-2,2v2c0,1.103,0.897,2,2,2h2v2c0,4.634,2.444,8.698,6.104,11H20v1.095   l-6.494,0.649c-1.909,0.191-3.708,1.043-5.064,2.4C6.867,38.718,6,40.812,6,43.039V54c0,1.654,1.346,3,3,3h4v6h27h1h7v-3.798l3-2   l3,2l4-2.667v-7.499L48,48.666z M41,48.406V47h5v1.592L41,48.406z M46,43.039V45h-5v-8.133c1.183,0.257,2.283,0.83,3.145,1.692   C45.341,39.755,46,41.346,46,43.039z M39,36.605v11.728l-5-0.185V36.105L39,36.605z M30.825,48.03C30.419,46.853,29.313,46,28,46   h-4c-0.771,0-1.468,0.301-2,0.78v-8.505C23.118,39.241,24.743,40,27,40s3.882-0.759,5-1.725v9.798L30.825,48.03z M23,56.858   c1.721-0.447,3-2,3-3.858s-1.279-3.411-3-3.858V49c0-0.551,0.448-1,1-1h4c0.552,0,1,0.449,1,1v8c0,0.551-0.448,1-1,1h-4   c-0.552,0-1-0.449-1-1V56.858z M15,13c0-5.177,3.954-9.446,9-9.949V12h2V3h2v9h2V3.051c5.046,0.503,9,4.773,9,9.949v1H15V13z    M16,22v-2h18v-2H12v-2h30v2h-6v2h2v2c0,6.065-4.935,11-11,11S16,28.065,16,22z M27,35c1.771,0,3.46-0.359,5-1.003v0.857   C31.828,35.375,30.777,38,27,38c-3.776,0-4.825-2.613-5-3.146v-0.857C23.54,34.641,25.229,35,27,35z M15,36.605l5-0.5V49h-5V36.605   z M9.855,38.559c0.862-0.862,1.96-1.457,3.145-1.713V45H8v-1.961C8,41.346,8.659,39.755,9.855,38.559z M8,54v-7h5v4h9   c1.103,0,2,0.897,2,2s-0.897,2-2,2H9C8.448,55,8,54.551,8,54z M39,61H15v-4h6c0,1.654,1.346,3,3,3h4c0.883,0,1.67-0.391,2.22-1   h0.083L33,57.202l3,2l3-2V61z M46,61h-5v-2.465l1,0.667l3-2l1,0.667V61z M56,55.465l-2,1.333l-3-2l-3,2l-3-2l-3,2l-3-2l-3,2l-3-2   l-2,1.333v-6.094l25,0.926V55.465z"></path><rect x="20" y="10" width="2" height="2"></rect><rect x="16" y="10" width="2" height="2"></rect><rect x="36" y="10" width="2" height="2"></rect><rect x="32" y="10" width="2" height="2"></rect></g></svg>
