<?xml version="1.0" encoding="utf-8"?>
<!-- Generator: Adobe Illustrator 21.0.2, SVG Export Plug-In . SVG Version: 6.00 Build 0)  -->
<svg version="1.1" id="Layer_1" xmlns="http://www.w3.org/2000/svg" xmlns:xlink="http://www.w3.org/1999/xlink" x="0px" y="0px"
	 viewBox="0 0 588.8 76.3" style="enable-background:new 0 0 588.8 76.3;" xml:space="preserve">
<style type="text/css">
	.st0{fill:#DF1F2D;}
	.st1{fill:#3A2D7D;}
</style>
<path class="st0" d="M237.9,67.8c-13.4,0.1-26.7,0.1-40.1,0.2c-0.3,0-0.5-0.1-1-0.2c0-4.4,0-8.6,0-13.1c1.1,0,2.1,0,3.2,0
	c11.6,0,23.1,0,34.7,0c1,0,2.1,0,3.1-0.2c2.2-0.3,3.7-1.4,3.7-3.8c0-2.4-1.3-3.7-3.5-4.1c-1.1-0.2-2.2-0.2-3.4-0.2
	c-7.3,0-14.7,0.1-22,0c-5.9-0.1-11.2-1.9-14.6-7.1c-6.3-9.9,0.3-22.8,12.2-23.3c13.3-0.5,26.7-0.2,40.1-0.3c0.4,0,0.7,0.2,1.1,0.3
	c0,4.3,0,8.4,0,13c-2.1,0-4,0-6,0c-10.4,0-20.9,0-31.3,0c-2.2,0-4,0.5-4.4,3c-0.5,2.7,1,4.5,4,4.6c7.2,0.1,14.3,0.1,21.6,0
	c3.7-0.1,7.7,0.4,11.2,1.4c3.6,1.1,5.8,4.3,6.8,8C256.5,57.4,250.7,67.6,237.9,67.8z M167.4,56.4c0,0-15.4,0-19.7,0
	c2-3.4,5.6-10.1,5.6-10.1l7.9,0.1c-2.5-4.3-4.9-8.2-7.4-12.5l-19.7,34.4c0,0-11.2,0-15.8,0c2.6-4.3,4.9-8.3,7.2-12
	c7.1-11.7,14.1-23.5,21.2-35.2c0.7-1.1,1.4-2.3,2.2-3.3c3.2-3.9,7.6-3.9,10.8,0c0.5,0.7,1,1.4,1.5,2.1c9.3,15.4,18.6,30.9,27.9,46.3
	c0.3,0.5,1.3,1.7,1.7,2.6h-16.5L167.4,56.4z M110.4,49.6l-0.2,2.6c-0.2,5.1-0.1,10.3-0.1,15.6c-4.6,0-8.8,0-13.4,0
	c0-5.3,0.1-18.2,0.1-18.2L95.2,48c-7.6-9.8-15.3-19.5-23-29.3c-0.7-0.9-1.4-1.8-2.4-3.1c6,0,11.6-0.1,17.1,0.1
	c0.8,0,1.6,1.1,2.2,1.9c4.9,6.5,9.7,13.1,14.8,20c2.7-3.7,5.3-7.1,7.8-10.6c2.4-3.2,4.8-6.5,7.2-9.7c0.5-0.7,1.4-1.6,2.1-1.6
	c5.1-0.1,10.3-0.1,16-0.1c-4,5.1-7.7,9.7-11.3,14.4C121,35.9,110.4,49.6,110.4,49.6z"/>
<path class="st1" d="M573.2,52.8c2.7,2.5,5.2,5,7.8,7.4s5.2,4.8,7.8,7.1c-0.2,0.3-0.4,0.6-0.6,0.9c-5.7,0-11.4,0.1-17.1-0.1
	c-0.8,0-1.7-0.8-2.2-1.4c-3.3-3.7-6.6-7.5-10-11.2c-0.7-0.8-2-1.3-3.1-1.4c-3.6-0.2-7.1-0.1-10.9-0.1c0-3.7,0-7.3,0-11.2
	c2.4,0,4.9,0,7.4,0c3.9,0,7.7,0.1,11.6,0c4-0.1,6.5-2.6,6.7-6.5c0.2-4-2.2-7.3-6.1-7.4c-8.5-0.2-17.1-0.1-26.2-0.1
	c0,13.2,0,26,0,39.1c-4.5,0-8.8,0-13.2,0c0-17.3,0-34.5,0-52c0.8-0.1,1.6-0.2,2.4-0.2c12,0,23.9,0,35.9,0c6.6,0,12.4,1.8,16.6,7.3
	c7,9.2,4.3,23.1-5.6,28.9C574.1,52,574,52.2,573.2,52.8z M514.6,36.7c0,3.3,0,6.3,0,9.5c-8.9,0-17.6,0-26.6,0c0-3.1,0-6.2,0-9.5
	C496.9,36.7,505.6,36.7,514.6,36.7z M468.4,16c16,0,32,0,48.2,0c0,4.2,0,8.5,0,13c-11.6,0-23.2,0-34.9,0c0,8.7,0,17.1,0,25.8
	c11.7,0,23.3,0,35.1,0c0,4.6,0,8.8,0,13.3c-16.2,0-32.2,0-48.4,0C468.4,50.7,468.4,33.4,468.4,16z M432.1,68.2c-9.8,0-19.5,0-29.7,0
	c0-17.6,0-34.8,0-52.3c0.9-0.1,1.7-0.2,2.5-0.2c10,0,19.9-0.1,29.9,0c13.7,0.1,24.6,10.2,25.3,23.4c0.8,15.1-8.7,27.1-22.7,28.7
	C435.6,68,433.8,68.2,432.1,68.2z M436.5,29.5c-6.8-0.6-13.6-0.1-20.7-0.1c0,8.4,0,16.8,0,25.5c6.7,0,13.1,0.2,19.5-0.1
	c6.6-0.3,11.3-5.5,11.6-12.2C447.2,36.1,442.8,30.1,436.5,29.5z M387.5,68.7c-2.7,0.3-4.6-1.2-6.5-2.9c-7.1-6.6-14.1-13.3-21.2-19.9
	c-3.1-3-6.3-5.9-9.9-9.2c0,10.6,0,20.8,0,31.1c-4.3,0-8.3,0-12.7,0c-0.1-1-0.1-1.9-0.1-2.9c0-13.5,0-27.1,0-40.6
	c0-3.5,0-7.2,3.9-8.9c4-1.8,6.8,0.7,9.4,3.1c9.3,8.5,18.6,17.1,27.8,25.6c0.6,0.6,1.2,1.1,2.3,1.9c0-10.6,0-20.7,0-31
	c4.3,0,8.3,0,12.5,0c0.1,0.6,0.2,1.3,0.2,2c0,14.7,0,29.3,0,44C393.4,65.5,391.2,68.3,387.5,68.7z M315.4,15.8c4.3,0,8.6,0,13,0
	c0,17.4,0,34.7,0,52.1c-4.3,0-8.5,0-13,0C315.4,50.6,315.4,33.2,315.4,15.8z M275.5,67.9c-4.5,0-8.7,0-13.1,0c0-17.4,0-34.7,0-52.1
	c15.2,0,30.4,0,45.7,0c0,4.3,0,8.5,0,12.9c-10.7,0-21.4,0-32.5,0C275.5,41.9,275.5,54.8,275.5,67.9z M305.8,47.7
	c-7.9,0-15.7,0-23.7,0c0-3.5,0-6.9,0-10.6c7.9,0,15.8,0,23.7,0C305.8,40.7,305.8,44.2,305.8,47.7z"/>
<g>
	<path d="M32.7,51.6c-1.8,0-3.6-0.3-5.3-0.8c-0.1,0.3-0.2,0.6-0.3,0.9L15.2,74.3c-1,1.8-3.2,2.5-5.1,1.6c-1.8-1-2.5-3.2-1.6-5.1
		l11.9-22.6c0.1-0.3,0.3-0.5,0.5-0.7c-4.5-3.5-7.4-9-7.4-15.1c0-10.6,8.6-19.2,19.1-19.2c10.6,0,19.1,8.6,19.1,19.2
		C51.8,43,43.3,51.6,32.7,51.6z M32.8,16.4c-8.8,0-15.9,7.1-15.9,16c0,8.8,7.1,16,15.9,16s15.9-7.1,15.9-16
		C48.7,23.5,41.6,16.4,32.8,16.4z"/>
	<path class="st0" d="M57.1,54.5L55.4,53c4.8-5.4,7.7-12.5,7.7-20.3c0-14-9.3-25.7-22.1-29.4L41.5,1c13.8,3.9,23.9,16.6,23.9,31.6
		C65.3,41,62.2,48.7,57.1,54.5z M54.9,14.4l-1.7,1.3c-4.8-5.9-12.1-9.6-20.3-9.6s-15.6,3.8-20.4,9.7l-1.8-1.6
		C16,7.9,23.9,3.8,32.8,3.8S49.7,7.9,54.9,14.4z M2.2,32.7c0,7,2.3,13.4,6.3,18.6l-1.7,1.4C2.5,47.1,0,40.2,0,32.6
		C0,15.7,12.7,1.8,29,0l0.1,2.3C14,4.1,2.2,17,2.2,32.7z M4.3,32.3c0-4.2,0.9-8.2,2.6-11.8l2.1,1c-1.5,3.3-2.4,7-2.4,10.9
		S7.4,40,9,43.3l-1.8,1.3C5.3,40.9,4.3,36.7,4.3,32.3z M8.2,34.7c-0.1-0.7-0.1-1.4-0.1-2.1c0-13.6,11-24.7,24.6-24.7
		c4,0,7.7,0.9,11,2.6l-1.1,2.1c-3-1.5-6.4-2.4-10-2.4c-12.3,0-22.3,10-22.3,22.3c0,0.7,0,1.4,0.1,2L8.2,34.7z M58.8,20.6
		c1.6,3.6,2.5,7.5,2.5,11.7c0,3.6-0.7,7-1.9,10.1l-1.8-0.8c1.1-2.9,1.7-6,1.7-9.2c0-3.9-0.9-7.6-2.4-11L58.8,20.6z M54.9,32.6
		c0-0.9-0.1-1.7-0.1-2.6l2.3-0.3c0.1,0.9,0.2,1.9,0.2,2.9c0,11-7.2,20.3-17,23.5l-0.7-2.3C48.5,50.9,54.9,42.5,54.9,32.6z"/>
</g>
</svg>
