<?xml version="1.0" encoding="utf-8"?>
<!-- Generator: Adobe Illustrator 25.1.0, SVG Export Plug-In . SVG Version: 6.00 Build 0)  -->
<svg version="1.1" id="Layer_1" xmlns="http://www.w3.org/2000/svg" xmlns:xlink="http://www.w3.org/1999/xlink" x="0px" y="0px"
	 viewBox="0 0 435.9 106.6" style="enable-background:new 0 0 435.9 106.6;" xml:space="preserve">
<style type="text/css">
	.st0{fill:#FFFFFF;}
</style>
<g id="XMLID_117_">
	<g id="XMLID_171_">
		<path id="XMLID_173_" class="st0" d="M56.6,77L40.5,53.2l-17,0.1l0.3,23.4L9.5,77L9.2,53l-8.8,0.3L0.1,39.9l9.4-0.3L9.2,1.7
			l36.5-0.3c16.6,0,27.7,10.4,27.7,26c0,10.5-7.1,19.5-18,22.8L74.9,77H56.6z M23.8,39.9l20.8-0.3c10.4,0,14.1-6.3,14.1-12.3
			C58.7,21.4,55,15,44.6,15H23.8V39.9z"/>
		<path id="XMLID_172_" class="st0" d="M116.6,78.1c-22.4,0-39.9-16.7-39.9-38.1S94.2,1.8,116.6,1.8c12.6,0,23.9,5.4,31.7,15.1
			L137,25.6c-5.1-6.8-12.2-10.5-20.4-10.5c-13.5,0-25,11.4-25,24.9s11.4,24.9,25,24.9c12.4,0,21.9-7.5,24.8-19.5l-24.9,0.3l-0.3-13
			l40-0.3l0.3,9.9C156.4,54.7,144.7,78.1,116.6,78.1"/>
	</g>
	<path id="XMLID_169_" class="st0" d="M260.9,1.1h14v20.6h8.3v12.1H275v43.8h-14V33.7h-7.2v-12h7.2V1.1H260.9z"/>
	<path id="XMLID_167_" class="st0" d="M354.7,1.1h14v20.6h8.3v12.1h-8.3v43.8h-14V33.7h-7.2v-12h7.2V1.1z"/>
	<path id="XMLID_164_" class="st0" d="M422.2,57.5c-2.9,5.8-8.9,9.8-15.9,9.8c-8.5,0-15.6-6-17.3-14h17.8h16.9h12
		c0.2-1.2,0.3-2.5,0.3-3.7c0-16.3-13.2-29.6-29.6-29.6c-16.3,0-29.6,13.2-29.6,29.6s13.2,29.6,29.6,29.6c13.6,0,25-9.2,28.5-21.7
		C434.9,57.5,422.2,57.5,422.2,57.5z M406.3,31.9c7.3,0,13.5,4.4,16.3,10.7h-32.5C392.8,36.3,399.1,31.9,406.3,31.9z"/>
	<path id="XMLID_162_" class="st0" d="M163.7,2h41.2v14.1h-27v13.7h27v13.8h-27v19.9h27v14.1h-41.2V2z"/>
	<path id="XMLID_160_" class="st0" d="M249.1,29.5l-8.7,8.7c-3.5-3.5-6.7-5.2-9.6-5.2c-1.6,0-2.8,0.3-3.7,1s-1.3,1.5-1.3,2.5
		c0,0.8,0.3,1.4,0.8,2.1c0.6,0.6,2,1.5,4.2,2.6l5.1,2.6c5.4,2.7,9.1,5.4,11.1,8.2s3,6,3,9.8c0,5-1.8,9.1-5.5,12.4
		c-3.6,3.3-8.5,5-14.7,5c-8.2,0-14.7-3.2-19.5-9.6l8.6-9.4c1.6,1.9,3.6,3.5,5.8,4.6c2.2,1.2,4.2,1.8,5.9,1.8c1.8,0,3.3-0.4,4.5-1.3
		c1.1-0.9,1.7-1.9,1.7-3.1c0-2.2-2-4.3-6.1-6.3l-4.7-2.4c-9-4.6-13.6-10.3-13.6-17.1c0-4.4,1.7-8.2,5.1-11.3
		c3.4-3.1,7.8-4.7,13.1-4.7c3.6,0,7,0.8,10.2,2.4C244.2,24.2,246.9,26.5,249.1,29.5z"/>
	<path id="XMLID_118_" class="st0" d="M330.1,21.6h14.2v55.9h-14.2v-5.9c-2.8,2.6-5.5,4.5-8.3,5.6s-5.8,1.7-9.1,1.7
		c-7.3,0-13.6-2.8-18.9-8.4s-8-12.6-8-20.9c0-8.6,2.6-15.7,7.7-21.2c5.2-5.5,11.4-8.3,18.8-8.3c3.4,0,6.6,0.6,9.5,1.9
		c3,1.3,5.7,3.2,8.2,5.7L330.1,21.6L330.1,21.6z M315.2,33.1c-4.4,0-8,1.5-10.9,4.6s-4.3,7-4.3,11.8s1.5,8.8,4.4,11.9
		c3,3.1,6.6,4.7,10.9,4.7c4.5,0,8.1-1.5,11.1-4.6c2.9-3.1,4.4-7.1,4.4-12.1c0-4.9-1.5-8.8-4.4-11.8
		C323.4,34.6,319.6,33.1,315.2,33.1z"/>
</g>
<g>
	<path class="st0" d="M11,101.2V84.6h2.6c1.5,0,2.6,0.1,3.3,0.3c1,0.3,1.8,0.8,2.4,1.5s0.9,1.6,0.9,2.5c0,0.6-0.1,1.2-0.4,1.7
		s-0.7,1-1.3,1.5c1,0.5,1.7,1.1,2.2,1.8c0.5,0.7,0.7,1.6,0.7,2.5s-0.2,1.8-0.7,2.6c-0.5,0.8-1.1,1.3-1.9,1.7
		c-0.8,0.4-1.8,0.6-3.2,0.6L11,101.2L11,101.2z M14.2,87.6v3.5h0.7c0.8,0,1.3-0.2,1.7-0.5c0.4-0.3,0.6-0.8,0.6-1.3s-0.2-0.9-0.5-1.2
		c-0.4-0.3-0.9-0.5-1.6-0.5H14.2z M14.2,93.9v4.3H15c1.3,0,2.2-0.2,2.7-0.5s0.7-0.8,0.7-1.4c0-0.7-0.3-1.3-0.8-1.7
		c-0.5-0.4-1.4-0.6-2.7-0.6h-0.7V93.9z"/>
	<path class="st0" d="M29.5,88.9h3.2l3.2,7.7l3.5-7.7h3.2l-7.7,16.8h-3.2l2.5-5.4L29.5,88.9z"/>
	<path class="st0" d="M64.9,84.6h3.3c1.8,0,3.1,0.2,3.9,0.5s1.4,0.9,1.9,1.6c0.5,0.8,0.7,1.7,0.7,2.7c0,1.1-0.3,2-0.8,2.7
		s-1.3,1.3-2.4,1.7l3.9,7.4h-3.5l-3.7-7H68v7h-3.2L64.9,84.6L64.9,84.6z M68,91.1h1c1,0,1.7-0.1,2.1-0.4s0.6-0.7,0.6-1.3
		c0-0.4-0.1-0.7-0.3-0.9c-0.2-0.3-0.4-0.5-0.8-0.6c-0.3-0.1-0.9-0.2-1.7-0.2H68V91.1z"/>
	<path class="st0" d="M85.7,83.9c0.5,0,1,0.2,1.4,0.6s0.6,0.9,0.6,1.4s-0.2,1-0.6,1.4s-0.8,0.6-1.4,0.6c-0.5,0-1-0.2-1.4-0.6
		s-0.6-0.9-0.6-1.4s0.2-1,0.6-1.4S85.2,83.9,85.7,83.9z M84.2,88.9h3.1v12.3h-3.1V88.9z"/>
	<path class="st0" d="M95.5,88.9h3.1l3.1,7.2l3.1-7.2h3.1l-5.2,12.3h-2L95.5,88.9z"/>
	<path class="st0" d="M128.9,96H119c0.1,0.9,0.5,1.6,1.1,2.1s1.4,0.8,2.4,0.8c1.2,0,2.1-0.4,3-1.2l2.6,1.2c-0.6,0.9-1.4,1.6-2.3,2
		s-2,0.7-3.2,0.7c-1.9,0-3.5-0.6-4.7-1.8c-1.2-1.2-1.8-2.7-1.8-4.6s0.6-3.4,1.8-4.7c1.2-1.2,2.7-1.9,4.5-1.9c1.9,0,3.5,0.6,4.7,1.9
		c1.2,1.2,1.8,2.9,1.8,4.9L128.9,96z M125.8,93.5c-0.2-0.7-0.6-1.2-1.2-1.7c-0.6-0.4-1.3-0.6-2.1-0.6c-0.9,0-1.6,0.2-2.3,0.7
		c-0.4,0.3-0.8,0.8-1.1,1.6H125.8z"/>
	<path class="st0" d="M137.4,88.9h2.6v1.5c0.3-0.6,0.7-1.1,1.1-1.4c0.5-0.3,1-0.5,1.6-0.5c0.4,0,0.8,0.1,1.3,0.3l-1,2.7
		c-0.4-0.2-0.7-0.3-0.9-0.3c-0.5,0-0.9,0.3-1.2,0.9s-0.5,1.7-0.5,3.5v0.6v5h-3.1L137.4,88.9L137.4,88.9z"/>
	<path class="st0" d="M153.5,83.9c0.5,0,1,0.2,1.4,0.6s0.6,0.9,0.6,1.4s-0.2,1-0.6,1.4c-0.4,0.4-0.8,0.6-1.4,0.6
		c-0.5,0-1-0.2-1.4-0.6s-0.6-0.9-0.6-1.4s0.2-1,0.6-1.4C152.5,84.1,153,83.9,153.5,83.9z M152,88.9h3.1v12.3H152V88.9z"/>
	<path class="st0" d="M173.7,88.9h3.1v12.3h-3.1v-1.3c-0.6,0.6-1.2,1-1.8,1.2c-0.6,0.3-1.3,0.4-2,0.4c-1.6,0-3-0.6-4.1-1.8
		c-1.2-1.2-1.7-2.8-1.7-4.6c0-1.9,0.6-3.5,1.7-4.7c1.1-1.2,2.5-1.8,4.1-1.8c0.7,0,1.4,0.1,2.1,0.4c0.6,0.3,1.2,0.7,1.8,1.3v-1.4
		H173.7z M170.4,91.5c-1,0-1.7,0.3-2.4,1c-0.6,0.7-0.9,1.5-0.9,2.6s0.3,1.9,1,2.6c0.6,0.7,1.4,1,2.4,1s1.8-0.3,2.4-1
		c0.6-0.7,1-1.6,1-2.6c0-1.1-0.3-1.9-1-2.6S171.4,91.5,170.4,91.5z"/>
	<path class="st0" d="M215.6,87.3l-2.2,2.2c-1.4-1.5-3.1-2.2-4.9-2.2c-1.6,0-3,0.5-4.1,1.6s-1.7,2.4-1.7,4s0.6,3,1.7,4.1
		c1.1,1.1,2.6,1.7,4.2,1.7c1.1,0,2-0.2,2.8-0.7c0.7-0.5,1.4-1.2,1.8-2.2h-4.8v-3h8.4v0.7c0,1.5-0.4,2.8-1.1,4.1s-1.7,2.3-2.9,3
		s-2.6,1-4.2,1c-1.7,0-3.3-0.4-4.6-1.1c-1.4-0.7-2.4-1.8-3.2-3.2c-0.8-1.4-1.2-2.9-1.2-4.5c0-2.2,0.7-4.1,2.2-5.7
		c1.7-1.9,4-2.9,6.7-2.9c1.4,0,2.8,0.3,4.1,0.8C213.5,85.4,214.6,86.2,215.6,87.3z"/>
	<path class="st0" d="M225.8,84.2h3.1v17h-3.1V84.2z"/>
	<path class="st0" d="M244.2,88.6c1.2,0,2.2,0.3,3.3,0.9c1,0.6,1.8,1.4,2.4,2.4s0.9,2.1,0.9,3.2c0,1.2-0.3,2.2-0.9,3.3
		c-0.6,1-1.4,1.8-2.4,2.4s-2.1,0.9-3.3,0.9c-1.8,0-3.3-0.6-4.5-1.9s-1.9-2.8-1.9-4.6c0-1.9,0.7-3.5,2.1-4.8
		C241.2,89.2,242.6,88.6,244.2,88.6z M244.2,91.5c-1,0-1.8,0.3-2.4,1c-0.6,0.7-1,1.5-1,2.6s0.3,1.9,0.9,2.6c0.6,0.7,1.4,1,2.4,1
		s1.8-0.3,2.4-1c0.6-0.7,1-1.5,1-2.6s-0.3-1.9-0.9-2.6S245.2,91.5,244.2,91.5z"/>
	<path class="st0" d="M263.1,84.2v6.1c0.6-0.6,1.2-1,1.8-1.3c0.6-0.3,1.3-0.4,2.1-0.4c1.6,0,3,0.6,4.1,1.8c1.1,1.2,1.7,2.8,1.7,4.7
		c0,1.8-0.6,3.4-1.7,4.6c-1.2,1.2-2.5,1.8-4.1,1.8c-0.7,0-1.4-0.1-2-0.4s-1.2-0.7-1.8-1.2v1.3H260v-17H263.1z M266.3,91.5
		c-1,0-1.8,0.3-2.4,1s-1,1.5-1,2.6s0.3,2,1,2.6c0.6,0.7,1.4,1,2.4,1c0.9,0,1.7-0.3,2.4-1c0.6-0.7,1-1.6,1-2.6c0-1.1-0.3-1.9-0.9-2.6
		C268.1,91.8,267.3,91.5,266.3,91.5z"/>
	<path class="st0" d="M291.1,88.9h3.1v12.3h-3.1v-1.3c-0.6,0.6-1.2,1-1.8,1.2c-0.6,0.3-1.3,0.4-2,0.4c-1.6,0-3-0.6-4.1-1.8
		c-1.2-1.2-1.7-2.8-1.7-4.6c0-1.9,0.6-3.5,1.7-4.7s2.5-1.8,4.1-1.8c0.7,0,1.4,0.1,2.1,0.4c0.6,0.3,1.2,0.7,1.8,1.3v-1.4H291.1z
		 M287.9,91.5c-1,0-1.7,0.3-2.4,1c-0.6,0.7-0.9,1.5-0.9,2.6s0.3,1.9,1,2.6c0.6,0.7,1.4,1,2.4,1s1.8-0.3,2.4-1s1-1.6,1-2.6
		c0-1.1-0.3-1.9-1-2.6C289.6,91.8,288.8,91.5,287.9,91.5z"/>
	<path class="st0" d="M303.7,84.2h3.1v17h-3.1V84.2z"/>
	<path class="st0" d="M345.3,87.3l-2.2,2.2c-1.4-1.5-3.1-2.2-4.9-2.2c-1.6,0-3,0.5-4.1,1.6s-1.7,2.4-1.7,4s0.6,3,1.7,4.1
		s2.6,1.7,4.2,1.7c1.1,0,2-0.2,2.8-0.7c0.7-0.5,1.4-1.2,1.8-2.2h-4.8v-3h8.4v0.7c0,1.5-0.4,2.8-1.1,4.1s-1.7,2.3-2.9,3
		c-1.2,0.7-2.6,1-4.2,1c-1.7,0-3.3-0.4-4.6-1.1c-1.4-0.7-2.4-1.8-3.2-3.2c-0.8-1.4-1.2-2.9-1.2-4.5c0-2.2,0.7-4.1,2.2-5.7
		c1.7-1.9,4-2.9,6.7-2.9c1.4,0,2.8,0.3,4.1,0.8C343.3,85.4,344.3,86.2,345.3,87.3z"/>
	<path class="st0" d="M355.1,88.9h2.6v1.5c0.3-0.6,0.7-1.1,1.1-1.4c0.5-0.3,1-0.5,1.6-0.5c0.4,0,0.8,0.1,1.3,0.3l-1,2.7
		c-0.4-0.2-0.7-0.3-0.9-0.3c-0.5,0-0.9,0.3-1.2,0.9c-0.3,0.6-0.5,1.7-0.5,3.5v0.6v5H355V88.9H355.1z"/>
	<path class="st0" d="M375.8,88.6c1.2,0,2.2,0.3,3.3,0.9c1,0.6,1.8,1.4,2.4,2.4s0.9,2.1,0.9,3.2c0,1.2-0.3,2.2-0.9,3.3
		c-0.6,1-1.4,1.8-2.4,2.4s-2.1,0.9-3.3,0.9c-1.8,0-3.3-0.6-4.5-1.9s-1.9-2.8-1.9-4.6c0-1.9,0.7-3.5,2.1-4.8
		C372.8,89.2,374.2,88.6,375.8,88.6z M375.8,91.5c-1,0-1.8,0.3-2.4,1s-1,1.5-1,2.6s0.3,1.9,0.9,2.6s1.4,1,2.4,1s1.8-0.3,2.4-1
		s1-1.5,1-2.6s-0.3-1.9-0.9-2.6C377.6,91.8,376.8,91.5,375.8,91.5z"/>
	<path class="st0" d="M391.6,88.9h3.1v5.9c0,1.2,0.1,2,0.2,2.4c0.2,0.4,0.4,0.8,0.8,1s0.8,0.4,1.3,0.4s0.9-0.1,1.3-0.4
		c0.4-0.2,0.6-0.6,0.8-1.1c0.1-0.4,0.2-1.1,0.2-2.3v-6h3.1V94c0,2.1-0.2,3.6-0.5,4.4c-0.4,1-1,1.7-1.8,2.2s-1.8,0.8-3.1,0.8
		c-1.3,0-2.4-0.3-3.3-0.9c-0.8-0.6-1.4-1.4-1.8-2.5c-0.2-0.7-0.4-2.1-0.4-4.1L391.6,88.9L391.6,88.9z"/>
	<path class="st0" d="M415.3,88.9v1.4c0.6-0.6,1.2-1,1.8-1.3c0.6-0.3,1.3-0.4,2.1-0.4c1.6,0,3,0.6,4.1,1.8c1.1,1.2,1.7,2.8,1.7,4.7
		c0,1.8-0.6,3.4-1.7,4.6c-1.2,1.2-2.5,1.8-4.1,1.8c-0.7,0-1.4-0.1-2-0.4s-1.2-0.7-1.8-1.2v5.8h-3.1V88.9H415.3z M418.5,91.5
		c-1,0-1.8,0.3-2.4,1s-1,1.5-1,2.6s0.3,2,1,2.6c0.6,0.7,1.4,1,2.4,1c0.9,0,1.7-0.3,2.4-1c0.6-0.7,1-1.6,1-2.6c0-1.1-0.3-1.9-0.9-2.6
		C420.3,91.8,419.5,91.5,418.5,91.5z"/>
</g>
</svg>
