<svg xmlns="http://www.w3.org/2000/svg" version="1.1" xmlns:xlink="http://www.w3.org/1999/xlink" xmlns:svgjs="http://svgjs.com/svgjs" width="512" height="512" x="0" y="0" viewBox="0 0 510.545 510.545" style="enable-background:new 0 0 512 512" xml:space="preserve" class=""><g><g xmlns="http://www.w3.org/2000/svg" id="XMLID_716_"><path id="XMLID_717_" d="m83.227 240.454v-17c0-28.673 23.327-52 52-52s52 23.327 52 52v17h53.046v-.363-83.046h47c12.131 0 22-9.869 22-21.999 0-12.132-9.869-22.001-22-22.001h-47v-113.045h-240.092v240.454z" fill="#00699e" data-original="#000000" style="" class=""></path><path id="XMLID_718_" d="m427.318 270.091v17c0 1.792-.091 3.563-.269 5.309-2.668 26.188-24.85 46.691-51.731 46.691-28.673 0-52-23.327-52-52v-17h-53.045v.363 83.045h-47c-12.131 0-22 9.869-22 22s9.869 22 22 22h47v113.046h240.091v-240.454z" fill="#00699e" data-original="#000000" style="" class=""></path><path id="XMLID_33_" d="m157.227 222.454v48h83.046v53.045h-16.126c-28.473 0-52.323 22.525-52.864 50.993-.554 29.131 22.982 53.007 51.99 53.007h17v83.046h-240.092v-240.091h113.045v-48c0-12.15 9.85-22 22-22 12.151 0 22.001 9.85 22.001 22z" fill="#00699e" data-original="#000000" style="" class=""></path><path id="XMLID_724_" d="m270.272 0v83.045h17c28.673 0 52 23.327 52 52s-23.327 52-52 52h-17v53.046h83.045v47c0 12.131 9.869 22 22 22s22-9.869 22-22v-47h83.046 30v-240.091z" fill="#00699e" data-original="#000000" style="" class=""></path></g></g></svg>