<svg xmlns="http://www.w3.org/2000/svg" viewBox="0 0 512 512" width="512px" height="512px"><g><g id="Aviod_Shopping_Malls" data-name="Aviod Shopping Malls"><g id="Outline"><path d="M508.766,466.169,427.652,297.655a30.489,30.489,0,0,0-55.3,0L291.234,466.169C281.031,487.366,296.1,512,318.887,512H481.113C503.9,512,518.967,487.363,508.766,466.169ZM481.113,496H318.887c-11.175,0-18.25-12.478-13.237-22.892L386.764,304.6c5.52-11.467,20.941-11.49,26.472,0L494.35,473.108C499.348,483.492,492.313,496,481.113,496Z" data-original="#000000" class="active-path" fill="#000000"></path><path d="M400,336a8,8,0,0,0-8,8v96a8,8,0,0,0,16,0V344A8,8,0,0,0,400,336Z" data-original="#000000" class="active-path" fill="#000000"></path><circle cx="400" cy="472" r="8" data-original="#000000" class="active-path" fill="#000000"></circle><circle cx="192" cy="40" r="8" data-original="#000000" class="active-path" fill="#000000"></circle><circle cx="256" cy="72" r="8" data-original="#000000" class="active-path" fill="#000000"></circle><circle cx="320" cy="88" r="8" data-original="#000000" class="active-path" fill="#000000"></circle><circle cx="224" cy="296" r="8" data-original="#000000" class="active-path" fill="#000000"></circle><circle cx="88" cy="344" r="8" data-original="#000000" class="active-path" fill="#000000"></circle><path d="M144,158.131C128.686,144.4,104,155.187,104,176v32a8,8,0,0,0,16,0V176a8,8,0,0,1,16,0v32a8,8,0,0,0,16,0V176a8,8,0,0,1,16,0v32a8,8,0,0,0,16,0V176C184,155.187,159.315,144.4,144,158.131Z" data-original="#000000" class="active-path" fill="#000000"></path><path d="M232,152a32.036,32.036,0,0,0-32,32v24a8,8,0,0,0,16,0v-8h32v8a8,8,0,0,0,16,0V184A32.036,32.036,0,0,0,232,152Zm-16,32a16,16,0,0,1,32,0Z" data-original="#000000" class="active-path" fill="#000000"></path><path d="M328,200H296V160a8,8,0,0,0-16,0v48a8,8,0,0,0,8,8h40a8,8,0,0,0,0-16Z" data-original="#000000" class="active-path" fill="#000000"></path><path d="M400,200H368V160a8,8,0,0,0-16,0v48a8,8,0,0,0,8,8h40a8,8,0,0,0,0-16Z" data-original="#000000" class="active-path" fill="#000000"></path><path d="M112,344a8,8,0,0,0,8,8H320a8,8,0,0,0,0-16H120A8,8,0,0,0,112,344Z" data-original="#000000" class="active-path" fill="#000000"></path><path d="M280,416H160a8,8,0,0,0-8,8v72H136V424a8,8,0,0,0-8-8H88a8,8,0,0,0-8,8v72H32V400H296a8,8,0,0,0,0-16H32V352H56a8,8,0,0,0,0-16H32V304H192a8,8,0,0,0,0-16H32V256H480v32H456a8,8,0,0,0,0,16h24v64a8,8,0,0,0,16,0V248a8,8,0,0,0-8-8H472V120a8,8,0,0,0-8-8H448V56a8,8,0,0,0-8-8H392V8a8,8,0,0,0-8-8H129a8,8,0,0,0-8,8V48H72a8,8,0,0,0-8,8v56H48a8,8,0,0,0-8,8V240H24a8,8,0,0,0-8,8V496H8a8,8,0,0,0,0,16H264a8,8,0,0,0,0-16V432h16a8,8,0,0,0,0-16ZM392,64h40V80H392Zm0,32h40v16H392ZM137,16H248V40a8,8,0,0,0,16,0V16h48V56a8,8,0,0,0,16,0V16h48v96H264v-8a8,8,0,0,0-16,0v8H200V72a8,8,0,0,0-16,0v40H137ZM80,64h41V80H80Zm0,32h41v16H80ZM56,216H80a8,8,0,0,0,0-16H56V168H80a8,8,0,0,0,0-16H56V128H456v24H432a8,8,0,0,0,0,16h24v32H432a8,8,0,0,0,0,16h24v24H56Zm64,280H96V432h24Zm128,0H168V432h80Z" data-original="#000000" class="active-path" fill="#000000"></path><path d="M352,296a8,8,0,0,0-8-8H256a8,8,0,0,0,0,16h88A8,8,0,0,0,352,296Z" data-original="#000000" class="active-path" fill="#000000"></path><path d="M224,480a8,8,0,0,0,8-8V456a8,8,0,0,0-16,0v16A8,8,0,0,0,224,480Z" data-original="#000000" class="active-path" fill="#34A853"></path></g></g></g> </svg>
