<!--?xml version="1.0" standalone="no"?-->
<svg xmlns="http://www.w3.org/2000/svg" width="300.000000pt" height="190.000000pt" viewBox="0 0 300.000000 190.000000" preserveAspectRatio="xMidYMid meet">
<g transform="translate(0.000000,190.000000) scale(0.100000,-0.100000)" fill="#010101" stroke="none">

</g>
<g transform="translate(0.000000,190.000000) scale(0.100000,-0.100000)" fill="#77D765" stroke="none">
<path style="position: relative;" d="M310 1724 c-149 -65 -162 -273 -21 -352 51 -29 137 -30 191 -2 77 40 119 147 90 234 -35 107 -158 164 -260 120z" id="node2" class="node"/>
<path style="position: relative;" d="M710 1545 l0 -195 945 0 945 0 0 195 0 195 -945 0 -945 0 0 -195z" id="node3" class="node"/>
<path style="position: relative;" d="M317 1130 c-46 -14 -98 -60 -118 -104 -52 -116 17 -248 146 -277 46 -10 57 -9 100 10 61 27 82 45 107 95 28 55 22 149 -12 200 -45 66 -144 100 -223 76z" id="node4" class="node"/>
<path style="position: relative;" d="M712 943 l3 -198 1058 -3 1057 -2 0 200 0 200 -1060 0 -1060 0 2 -197z" id="node5" class="node"/>
<path style="position: relative;" d="M290 518 c-96 -49 -136 -166 -88 -257 37 -71 86 -104 162 -109 50 -3 71 0 105 17 97 50 133 187 74 280 -54 84 -164 114 -253 69z" id="node6" class="node"/>
<path style="position: relative;" d="M710 345 c0 -188 1 -195 20 -195 11 0 389 0 840 0 451 0 827 0 835 0 13 0 15 28 15 195 l0 195 -855 0 -855 0 0 -195z" id="node7" class="node"/>
</g>
</svg>