<svg xmlns="http://www.w3.org/2000/svg" id="Capa_1" enable-background="new 0 0 512 512" height="512px" viewBox="0 0 512 512" width="512px"><g><g><g><circle cx="433.789" cy="77.201" r="8.081" data-original="#000000" class="active-path" fill="#000000"></circle><circle cx="78.211" cy="77.201" r="8.081" data-original="#000000" class="active-path" fill="#000000"></circle><circle cx="433.789" cy="202.461" r="8.081" data-original="#000000" class="active-path" fill="#000000"></circle><circle cx="78.211" cy="202.461" r="8.081" data-original="#000000" class="active-path" fill="#000000"></circle><path d="m491.11 304.06h-41.74v-66.034c13.646-1.71 24.24-13.38 24.24-27.486v-40.326c0-.026.004-.051.004-.077v-60.61c0-.026-.004-.051-.004-.077v-40.33c0-14.102-10.595-25.767-24.24-27.476v-23.032c0-9.706-7.896-17.602-17.602-17.602h-20.203c-9.705 0-17.602 7.896-17.602 17.602v22.808h-221.963c-4.143 0-7.5 3.358-7.5 7.5s3.357 7.5 7.5 7.5h273.91c7.003 0 12.7 5.697 12.7 12.7v32.906h-409.26v-32.906c0-7.003 5.697-12.7 12.7-12.7h74.95c4.143 0 7.5-3.358 7.5-7.5s-3.357-7.5-7.5-7.5h-18.964v-22.808c0-9.706-7.896-17.602-17.602-17.602h-20.203c-9.705 0-17.602 7.896-17.602 17.602v22.808h-.58c-15.274 0-27.7 12.426-27.7 27.7v40.329c0 .026-.004.051-.004.077v60.61c0 .026.004.051.004.077v40.326c0 15.279 12.426 27.71 27.7 27.71h.58v65.81h-41.739c-11.519.001-20.89 9.372-20.89 20.891v33.83c0 11.519 9.371 20.89 20.89 20.89h21.537v116.32h-12.703c-4.143 0-7.5 3.358-7.5 7.5s3.357 7.5 7.5 7.5h80.812c4.143 0 7.5-3.358 7.5-7.5s-3.357-7.5-7.5-7.5h-12.703v-51.67h316.334v51.67h-12.703c-4.143 0-7.5 3.358-7.5 7.5s3.357 7.5 7.5 7.5h80.812c4.143 0 7.5-3.358 7.5-7.5s-3.357-7.5-7.5-7.5h-12.703v-116.32h21.537c11.519 0 20.89-9.371 20.89-20.89v-33.83c0-11.519-9.371-20.89-20.89-20.89zm-82.146-285.448c0-1.435 1.167-2.602 2.602-2.602h20.203c1.435 0 2.602 1.167 2.602 2.602v22.808h-25.406v-22.808zm-331.334 0c0-1.435 1.167-2.602 2.602-2.602h20.203c1.435 0 2.602 1.167 2.602 2.602v22.808h-25.407zm331.334 285.448v-65.81h25.406v65.81zm49.646-187.034v45.61h-409.26v-45.61zm-380.98 121.224h25.406v65.81h-25.406zm-20.203 257.74v-116.32h25.406v116.32zm40.406-66.671v-49.649h316.334v49.649zm356.74 66.671h-25.406v-116.32h25.406zm42.427-137.21c0 3.248-2.642 5.89-5.89 5.89h-470.22c-3.248 0-5.89-2.642-5.89-5.89v-33.83c0-3.248 2.642-5.89 5.89-5.89h107.11c4.143 0 7.5-3.358 7.5-7.5s-3.357-7.5-7.5-7.5h-9.964v-65.81h220.821c4.143 0 7.5-3.358 7.5-7.5s-3.357-7.5-7.5-7.5h-276.807c-7.003 0-12.7-5.702-12.7-12.71v-32.904h409.26v32.904c0 7.008-5.697 12.71-12.7 12.71h-72.053c-4.143 0-7.5 3.358-7.5 7.5s3.357 7.5 7.5 7.5h20.106v65.81h-230.963c-4.143 0-7.5 3.358-7.5 7.5s3.357 7.5 7.5 7.5h328.11c3.248 0 5.89 2.643 5.89 5.89z" data-original="#000000" class="active-path" fill="#34A853"></path></g></g></g> </svg>
