<svg height='300px' width='300px'  fill="#00699e" xmlns="http://www.w3.org/2000/svg" xmlns:xlink="http://www.w3.org/1999/xlink" version="1.1" x="0px" y="0px" viewBox="0 0 1024 1024" style="enable-background:new 0 0 1024 1024;" xml:space="preserve"><g><g><path d="M557.9,131.4c12.4,0,24.8,0,37.2,0c29.6,0,59.2,0,88.8,0c36,0,71.9,0,107.9,0c31,0,61.9,0,92.9,0    c15.1,0,30.3,0.3,45.4,0c0.2,0,0.4,0,0.6,0c-13.3-13.3-26.7-26.7-40-40c0,12.7,0,25.5,0,38.2c0,30.6,0,61.2,0,91.8    c0,36.8,0,73.7,0,110.5c0,32,0,64,0,96c0,15.6-0.4,31.2,0,46.7c0,0.2,0,0.4,0,0.7c3.9-9.4,7.8-18.9,11.7-28.3    c-15.5,15.2-30.9,30.4-46.4,45.7c-37,36.4-74,72.8-111,109.2c-44.8,44.1-89.7,88.3-134.5,132.4c-38.6,38-77.3,76-115.9,114    c-18.7,18.4-37.8,36.5-56.1,55.3c-0.2,0.3-0.5,0.5-0.8,0.7c18.9,0,37.7,0,56.6,0c-12.4-12.3-24.8-24.7-37.2-37    c-29.7-29.5-59.3-59-89-88.5c-36-35.8-72-71.6-107.9-107.4c-31-30.8-62-61.7-93-92.5c-15-15-29.8-30.3-45.2-45    c-0.2-0.2-0.4-0.4-0.6-0.6c0,18.9,0,37.7,0,56.6c15.5-15.6,30.9-31.3,46.4-46.9c37.1-37.5,74.2-75.1,111.3-112.6    c44.6-45.1,89.2-90.3,133.8-135.4c38.7-39.2,77.5-78.4,116.2-117.6c18.7-18.9,37.7-37.7,56.2-56.8c0.3-0.3,0.5-0.5,0.8-0.8    c14.7-14.9,16-41.9,0-56.6c-15.9-14.6-40.9-15.9-56.6,0c-15.5,15.6-30.9,31.3-46.4,46.9c-37.1,37.5-74.2,75.1-111.3,112.6    c-44.6,45.1-89.2,90.3-133.8,135.4c-38.7,39.2-77.5,78.4-116.2,117.6c-18.7,18.9-37.7,37.7-56.2,56.8c-0.3,0.3-0.5,0.5-0.8,0.8    c-15.2,15.3-15.4,41.2,0,56.6c12.4,12.3,24.8,24.7,37.2,37c29.7,29.5,59.3,59,89,88.5c36,35.8,72,71.6,107.9,107.4    c31,30.8,62,61.7,93,92.5c15.1,15,29.9,30.2,45.2,45c0.2,0.2,0.4,0.4,0.6,0.6c15.4,15.3,41.1,15.2,56.6,0    c10-9.9,20.1-19.8,30.1-29.7c25.6-25.2,51.2-50.4,76.8-75.6c34-33.5,68-66.9,102-100.4c35.5-34.9,71-69.9,106.5-104.8    c30.1-29.7,60.3-59.3,90.4-89c17.6-17.3,35.2-34.7,52.8-52c9.8-9.6,17.4-18.2,17.8-34.4c0.2-7.1,0-14.3,0-21.4    c0-39.3,0-78.6,0-117.9c0-49.2,0-98.3,0-147.5c0-30.8,0-61.5,0-92.3c0-1.5,0-3,0-4.5c0-21.6-18.3-40-40-40c-12.4,0-24.8,0-37.2,0    c-29.6,0-59.2,0-88.8,0c-36,0-71.9,0-107.9,0c-31,0-61.9,0-92.9,0c-15.1,0-30.3-0.3-45.4,0c-0.2,0-0.4,0-0.6,0    c-20.9,0-41,18.4-40,40C518.9,113,535.5,131.4,557.9,131.4z"></path><path d="M782,172.7c-13.9,0.3-28.7,3.9-40.2,12c-14.4,10.1-24.1,22.7-30.1,39.3c-4.7,13.1-4.7,29.3-0.8,42.7    c3.7,12.9,11.4,26.1,21.8,34.8c13.7,11.3,28.7,17.8,46.5,18.9c13.7,0.8,28.5-3.1,40.2-10.1c11.6-6.9,22.1-17.5,28-29.7    c7.9-16.5,9.7-32.8,6.4-50.8c-2.6-13.9-11.5-28.4-22.1-37.6C817.7,179.8,800.8,173.1,782,172.7c-20.9-0.4-41,18.7-40,40    c1,22,17.6,39.5,40,40c1.4,0,2.8,0.1,4.1,0.3c-3.5-0.5-7.1-1-10.6-1.4c3.1,0.4,6.1,1.2,9,2.4c-3.2-1.3-6.4-2.7-9.6-4    c2.8,1.3,5.4,2.8,7.9,4.7c-2.7-2.1-5.4-4.2-8.1-6.3c2,1.7,3.8,3.5,5.5,5.5c-2.1-2.7-4.2-5.4-6.3-8.1c1.9,2.5,3.4,5,4.7,7.9    c-1.3-3.2-2.7-6.4-4-9.6c1.2,3,2,5.9,2.4,9c-0.5-3.5-1-7.1-1.4-10.6c0.3,2.8,0.3,5.5,0,8.3c0.5-3.5,1-7.1,1.4-10.6    c-0.4,3.1-1.2,6.1-2.4,9c1.3-3.2,2.7-6.4,4-9.6c-1.3,2.8-2.8,5.4-4.7,7.9c2.1-2.7,4.2-5.4,6.3-8.1c-1.7,2-3.5,3.8-5.5,5.5    c2.7-2.1,5.4-4.2,8.1-6.3c-2.5,1.9-5,3.4-7.9,4.7c3.2-1.3,6.4-2.7,9.6-4c-3,1.2-5.9,2-9,2.4c3.5-0.5,7.1-1,10.6-1.4    c-2.8,0.3-5.5,0.3-8.3,0c3.5,0.5,7.1,1,10.6,1.4c-3.1-0.4-6.1-1.2-9-2.4c3.2,1.3,6.4,2.7,9.6,4c-2.8-1.3-5.4-2.8-7.9-4.7    c2.7,2.1,5.4,4.2,8.1,6.3c-2-1.7-3.8-3.5-5.5-5.5c2.1,2.7,4.2,5.4,6.3,8.1c-1.9-2.5-3.4-5-4.7-7.9c1.3,3.2,2.7,6.4,4,9.6    c-1.2-3-2-5.9-2.4-9c0.5,3.5,1,7.1,1.4,10.6c-0.3-2.8-0.3-5.5,0-8.3c-0.5,3.5-1,7.1-1.4,10.6c0.4-3.1,1.2-6.1,2.4-9    c-1.3,3.2-2.7,6.4-4,9.6c1.3-2.8,2.8-5.4,4.7-7.9c-2.1,2.7-4.2,5.4-6.3,8.1c1.7-2,3.5-3.8,5.5-5.5c-2.7,2.1-5.4,4.2-8.1,6.3    c2.5-1.9,5-3.4,7.9-4.7c-3.2,1.3-6.4,2.7-9.6,4c3-1.2,5.9-2,9-2.4c-3.5,0.5-7.1,1-10.6,1.4c1.4-0.1,2.7-0.2,4.1-0.3    c10.4-0.2,20.9-4.3,28.3-11.7c6.9-6.9,12.2-18.3,11.7-28.3C821.1,191.4,804.4,172.3,782,172.7z"></path></g></g></svg>
