<svg xmlns="http://www.w3.org/2000/svg" version="1.1" xmlns:xlink="http://www.w3.org/1999/xlink" xmlns:svgjs="http://svgjs.com/svgjs" width="512" height="512" x="0" y="0" viewBox="0 0 450.588 450.588" style="enable-background:new 0 0 512 512" xml:space="preserve" class=""><g>
<g xmlns="http://www.w3.org/2000/svg">
	<g>
		<path d="M402.958,112.64c-0.512,0-0.512,0-1.024,0H48.654c-8.192-0.512-14.848,6.144-15.36,14.336c0,0.512,0,0.512,0,1.024v307.2    c-0.512,8.192,6.144,14.848,14.336,15.36c0.512,0,0.512,0,1.024,0h353.28c8.192,0.512,14.848-6.144,15.36-14.336    c0-0.512,0-0.512,0-1.024V128C417.806,119.808,411.15,113.152,402.958,112.64z M302.094,252.416c-0.512,0-0.512,0-1.024,0H149.518    c-8.192,0.512-14.848-6.144-15.36-14.336c0-0.512,0-0.512,0-1.024v-38.912c-0.512-8.192,6.144-14.848,14.336-15.36    c0.512,0,0.512,0,1.024,0H301.07c8.192-0.512,14.848,6.144,15.36,14.336c0,0.512,0,0.512,0,1.024v38.912    C316.942,245.248,310.286,251.904,302.094,252.416z" fill="#00699e" data-original="#000000" style="" class=""></path>
	</g>
</g>
<g xmlns="http://www.w3.org/2000/svg">
	<g>
		<rect x="58.894" y="56.32" width="332.8" height="30.72" fill="#00699e" data-original="#000000" style="" class=""></rect>
	</g>
</g>
<g xmlns="http://www.w3.org/2000/svg">
	<g>
		<rect x="84.494" width="281.6" height="30.72" fill="#00699e" data-original="#000000" style="" class=""></rect>
	</g>
</g>
<g xmlns="http://www.w3.org/2000/svg">
</g>
<g xmlns="http://www.w3.org/2000/svg">
</g>
<g xmlns="http://www.w3.org/2000/svg">
</g>
<g xmlns="http://www.w3.org/2000/svg">
</g>
<g xmlns="http://www.w3.org/2000/svg">
</g>
<g xmlns="http://www.w3.org/2000/svg">
</g>
<g xmlns="http://www.w3.org/2000/svg">
</g>
<g xmlns="http://www.w3.org/2000/svg">
</g>
<g xmlns="http://www.w3.org/2000/svg">
</g>
<g xmlns="http://www.w3.org/2000/svg">
</g>
<g xmlns="http://www.w3.org/2000/svg">
</g>
<g xmlns="http://www.w3.org/2000/svg">
</g>
<g xmlns="http://www.w3.org/2000/svg">
</g>
<g xmlns="http://www.w3.org/2000/svg">
</g>
<g xmlns="http://www.w3.org/2000/svg">
</g>
</g></svg>