<svg height='300px' width='300px'  fill="#00699e" xmlns="http://www.w3.org/2000/svg" xmlns:xlink="http://www.w3.org/1999/xlink" version="1.1" x="0px" y="0px" viewBox="0 0 67 67" enable-background="new 0 0 67 67" xml:space="preserve"><g><g><rect x="1.73499" y="57.17065" width="63.53003" height="8.65997"></rect></g><g><path d="M22.755,46.37067c-2.71002,3.84998-3.72998,6.48999-3.21002,8.29999c0.05005,0.16998,0.12006,0.33997,0.20001,0.5    h-5.76001c-0.25691-4.56276,3.5586-7.91121,7.44-10.23999c0.40002-0.24005,0.92004-0.17004,1.24005,0.17999    C22.98499,45.45062,23.02502,45.98065,22.755,46.37067z"></path></g><g><path d="M7.565,47.08063v8.09003H6.14502c0.08002-0.16003,0.14996-0.33002,0.20001-0.5c0.51996-1.81-0.5-4.45001-3.21002-8.29999    c-0.27002-0.39001-0.22998-0.92004,0.09003-1.26001c0.31995-0.35004,0.83997-0.42004,1.25-0.17999    C5.65503,45.64063,6.67499,46.35065,7.565,47.08063z"></path></g><g><path d="M30.27271,38.09058h1.21777v-3.354c0-0.55225,0.44727-1,1-1h4.20898c0.55273,0,1,0.44775,1,1v3.354h1.21777v-7.0957    h-8.64453V38.09058z"></path><rect x="33.49048" y="35.73657" width="2.20898" height="2.354"></rect><polygon points="35.13745,24.81036 34.59302,24.01929 31.17505,28.99292 38.01501,28.99292   "></polygon><rect x="40.91724" y="30.99487" width="10.48242" height="7.0957"></rect><path d="M58.435,14.67065c0.31,0,0.60999-0.15002,0.79999-0.39001l2-2.62c0.27002-0.35999,0.27002-0.85999,0-1.22003l-2-2.62994    c-0.19-0.24005-0.48999-0.39001-0.79999-0.39001h-41.62v-3.25c0-0.31-0.14001-0.60999-0.39001-0.79004l-2.62-2    c-0.35999-0.27997-0.85999-0.27997-1.20996-0.00995l-2.63,2c-0.25,0.19-0.40002,0.48999-0.40002,0.79999v3.25h-2.13    c-0.54999,0-1,0.45001-1,1v5.25c0,0.54999,0.45001,1,1,1h2.13v40.5H11.995c-0.19-3.78003,1.91003-6.98999,4.82001-9.44v-31.06    h10.19v3.82996H21.935c-0.54999,0-1,0.45001-1,1v21.59003c0,0.54999,0.45001,1,1,1h37.79999c0.55005,0,1-0.45001,1-1V19.50061    c0-0.54999-0.44995-1-1-1h-5.06995v-3.82996H58.435z M29.005,14.67065h23.66003v3.82996H29.005V14.67065z M53.39966,39.09058    c0,0.55225-0.44727,1-1,1c-8.4259,0-14.76331,0-23.12695,0c-0.55273,0-1-0.44775-1-1v-9.0957    c0-0.46582-0.06128-0.19757,5.49609-8.30713c0.00763-0.01111,0.02161-0.01434,0.02966-0.02502    c0.18683-0.25073,0.47614-0.40857,0.79456-0.40857h12.58105c0.33203,0,0.64258,0.16504,0.8291,0.44043    c5.11536,7.74615,5.38202,7.67139,5.39246,8.28015c0.00012,0.00708,0.00403,0.013,0.00403,0.02014V39.09058z"></path><polygon points="46.64282,23.25415 36.49524,23.25415 40.44348,28.99292 50.51782,28.99292   "></polygon></g></g></svg>