<svg height='300px' width='300px'  fill="#00699e" xmlns="http://www.w3.org/2000/svg" viewBox="0 0 64 64" x="0px" y="0px"><title>Apartment, estage, flat, residential, accomodation, </title><g><rect x="54" y="39" width="4" height="2"></rect><rect x="6" y="39" width="4" height="2"></rect><rect x="6" y="3" width="52" height="2"></rect><rect x="2" y="59" width="60" height="2"></rect><rect x="28" y="15" width="6" height="4"></rect><path d="M10,59H38V56a1,1,0,0,1,1-1h1V44a1,1,0,0,1,1-1h8a1,1,0,0,1,1,1V55h1a1,1,0,0,1,1,1v3h2V41H10ZM37,42h2v2H37ZM26,48a5,5,0,0,1,10,0v8a1,1,0,0,1-1,1H27a1,1,0,0,1-1-1ZM12,48a5,5,0,0,1,10,0v3h2v2H22v3a1,1,0,0,1-1,1H13a1,1,0,0,1-1-1Z"></path><path d="M17,9a3,3,0,0,0-3,3v1h6V12A3,3,0,0,0,17,9Z"></path><rect x="14" y="31" width="6" height="4"></rect><path d="M17,25a3,3,0,0,0-3,3v1h6V28A3,3,0,0,0,17,25Z"></path><rect x="14" y="15" width="6" height="4"></rect><path d="M34,12a3,3,0,0,0-6,0v1h6Z"></path><polygon points="41 57 40 57 40 59 50 59 50 57 49 57 41 57"></polygon><rect x="42" y="45" width="6" height="10"></rect><path d="M34,48a3,3,0,0,0-6,0v1h6Z"></path><path d="M20,48a3,3,0,0,0-6,0v1h6Z"></path><rect x="14" y="51" width="6" height="4"></rect><rect x="28" y="51" width="6" height="4"></rect><path d="M45,9a3,3,0,0,0-3,3v1h6V12A3,3,0,0,0,45,9Z"></path><path d="M31,25a3,3,0,0,0-3,3v1h6V28A3,3,0,0,0,31,25Z"></path><rect x="42" y="31" width="6" height="4"></rect><path d="M54,7V5H10V39H54V24H51V22h3V9H52V7ZM26,12a5,5,0,0,1,10,0v8a1,1,0,0,1-1,1H27a1,1,0,0,1-1-1V16H24V14h2ZM23,7h2V9H23ZM22,36a1,1,0,0,1-1,1H13a1,1,0,0,1-1-1V28a5,5,0,0,1,10,0Zm0-16a1,1,0,0,1-1,1H13a1,1,0,0,1-1-1V12a5,5,0,0,1,10,0Zm3,4H23V22h2ZM38,37H27a1,1,0,0,1-1-1V28a5,5,0,0,1,10,0v7h2Zm12-1a1,1,0,0,1-1,1H41a1,1,0,0,1-1-1V28a5,5,0,0,1,10,0Zm0-16a1,1,0,0,1-1,1H41a1,1,0,0,1-1-1V12a5,5,0,0,1,10,0Z"></path><rect x="42" y="15" width="6" height="4"></rect><rect x="28" y="31" width="6" height="4"></rect><path d="M45,25a3,3,0,0,0-3,3v1h6V28A3,3,0,0,0,45,25Z"></path></g></svg>