<?xml version="1.0"?>
<svg viewBox="0 0 70.098 53.605" class="smartad_bedicon">
 <g id="svg-bed">
         <g>
            <path fill="#39434E" d="M68.496 31.402c0-3.722-3.028-6.75-6.75-6.75H8.351c-3.722 0-6.75 3.028-6.75 6.75l0.003 12.914h66.894 L68.496 31.402z M5.116 40.785l-0.015-9.383c0-1.793 1.458-3.25 3.25-3.25h53.395c1.791 0 3.2 1.5 3.2 3.25v9.383H5.116z"/>
            <rect x="5.2" y="47.8" fill="#39434E" width="7.3" height="3.5"/>
            <rect x="57.6" y="47.8" fill="#39434E" width="7.3" height="3.5"/>
         </g>
         <g>
            <path fill="#39434E" d="M8.886 21.652V11.061c0-2.895 2.354-5.25 5.25-5.25h41.829c2.896 0 5.2 2.4 5.2 5.25v10.592h0.218 c1.151 0 2.3 0.2 3.3 0.564V11.061c0-4.824-3.925-8.75-8.75-8.75H14.136c-4.825 0-8.75 3.926-8.75 8.75v11.153 c1.027-0.357 2.128-0.562 3.277-0.562H8.886z"/>
            <path fill="#39434E" d="M17.612 14.635c0-0.679 0.572-1.25 1.25-1.25h9.111c0.678 0 1.2 0.6 1.2 1.25v7.018h3.5v-7.018 c0-2.619-2.131-4.75-4.75-4.75h-9.111c-2.619 0-4.75 2.131-4.75 4.75v7.018h3.5V14.635z"/>
            <path fill="#39434E" d="M40.875 14.635c0-0.679 0.572-1.25 1.25-1.25h9.111c0.678 0 1.2 0.6 1.2 1.25v7.018h3.5v-7.018 c0-2.619-2.131-4.75-4.75-4.75h-9.111c-2.619 0-4.75 2.131-4.75 4.75v7.018h3.5V14.635z"/>
         </g>
      </g>
     </svg>
