<svg height='300px' width='300px'  fill="#00699e" xmlns="http://www.w3.org/2000/svg" xmlns:xlink="http://www.w3.org/1999/xlink" version="1.1" x="0px" y="0px" viewBox="0 0 128 128" style="enable-background:new 0 0 128 128;" xml:space="preserve"><g><g><g><path d="M30.074,32.074H3.893c-1.104,0-2-0.896-2-2V3.894c0-1.104,0.896-2,2-2h26.181c1.104,0,2,0.896,2,2v26.181     C32.074,31.179,31.179,32.074,30.074,32.074z M5.893,28.074h22.181V5.894H5.893V28.074z"></path><path d="M124.106,32.074H97.926c-1.104,0-2-0.896-2-2V3.894c0-1.104,0.896-2,2-2h26.181c1.104,0,2,0.896,2,2v26.181     C126.106,31.179,125.211,32.074,124.106,32.074z M99.926,28.074h22.181V5.894H99.926V28.074z"></path><path d="M124.106,126.106H97.926c-1.104,0-2-0.896-2-2V97.926c0-1.104,0.896-2,2-2h26.181c1.104,0,2,0.896,2,2v26.181     C126.106,125.211,125.211,126.106,124.106,126.106z M99.926,122.106h22.181V99.926H99.926V122.106z"></path><path d="M30.074,126.106H3.893c-1.104,0-2-0.896-2-2V97.926c0-1.104,0.896-2,2-2h26.181c1.104,0,2,0.896,2,2v26.181     C32.074,125.211,31.179,126.106,30.074,126.106z M5.893,122.106h22.181V99.926H5.893V122.106z"></path></g><g><path d="M15.529,99.926c-1.104,0-2-0.896-2-2V30.074c0-1.104,0.896-2,2-2s2,0.896,2,2v67.852     C17.529,99.03,16.634,99.926,15.529,99.926z"></path><path d="M111.129,99.926c-1.104,0-2-0.896-2-2V30.074c0-1.104,0.896-2,2-2s2,0.896,2,2v67.852     C113.129,99.03,112.233,99.926,111.129,99.926z"></path><path d="M97.926,18.983H30.074c-1.104,0-2-0.896-2-2s0.896-2,2-2h67.852c1.104,0,2,0.896,2,2S99.03,18.983,97.926,18.983z"></path><path d="M97.926,113.017H30.074c-1.104,0-2-0.896-2-2s0.896-2,2-2h67.852c1.104,0,2,0.896,2,2S99.03,113.017,97.926,113.017z"></path></g></g></g></svg>
