<svg   fill="#fff" xmlns="http://www.w3.org/2000/svg" data-name="Layer 1" viewBox="0 0 24 24" x="0px" y="0px"><title>Artboard 18</title><polygon points="12.247 18.537 11.753 18.537 11.753 19.059 12.247 18.934 12.247 18.537" fill="none"></polygon><path d="M12.468,13.1v4.5h4.547V13.1H15.931v.773a.473.473,0,0,1-.358.458l-1.433.363a.452.452,0,0,1-.117.015.476.476,0,0,1-.288-.1.469.469,0,0,1-.183-.373V13.1Z" fill="none"></path><polygon points="14.495 13.105 14.495 13.627 14.987 13.502 14.987 13.105 14.495 13.105" fill="none"></polygon><polygon points="17.729 18.537 17.482 18.537 17.236 18.537 17.236 19.059 17.729 18.934 17.729 18.537" fill="none"></polygon><path d="M14.273,23.033v-4.5H13.189V19.3a.471.471,0,0,1-.356.457l-1.435.363a.426.426,0,0,1-.115.015.477.477,0,0,1-.289-.1.464.464,0,0,1-.182-.373V18.537H9.727v4.5Z" fill="none"></path><path d="M6.979,13.1v4.5h4.553V13.1H10.447v.773a.471.471,0,0,1-.355.458l-1.435.363a.426.426,0,0,1-.115.015.474.474,0,0,1-.289-.1.469.469,0,0,1-.183-.373V13.1Z" fill="none"></path><polygon points="9.012 13.105 9.012 13.627 9.505 13.502 9.505 13.105 9.012 13.105" fill="none"></polygon><polygon points="6.764 18.537 6.511 18.537 6.271 18.537 6.271 19.059 6.764 18.934 6.764 18.537" fill="none"></polygon><path d="M1.8,10.026V23.062H3.308v-5a.465.465,0,0,1,.462-.468H6.049V12.627a.465.465,0,0,1,.462-.468H17.482a.469.469,0,0,1,.469.468v4.964h2.273a.469.469,0,0,1,.468.468v5H22.2V10.026Z" fill="none"></path><path d="M12,.987.948,6.214.939,9.068h.394a.37.37,0,0,1,.075.016.27.27,0,0,1,.039-.008H22.553a.27.27,0,0,1,.039.008.37.37,0,0,1,.075-.016h.394l-.009-2.854Zm0,6.882a2.6,2.6,0,1,1,2.6-2.6A2.6,2.6,0,0,1,12,7.869Z" fill="none"></path><path d="M12,3.621A1.649,1.649,0,1,0,13.649,5.27,1.651,1.651,0,0,0,12,3.621Z" fill="none"></path><path d="M4.237,18.527v4.506H8.791v-4.5H7.706V19.3a.471.471,0,0,1-.356.457l-1.434.363a.434.434,0,0,1-.116.015.474.474,0,0,1-.289-.1.467.467,0,0,1-.182-.373V18.527Z" fill="none"></path><path d="M18.672,19.3a.472.472,0,0,1-.358.457l-1.433.363a.465.465,0,0,1-.116.015.474.474,0,0,1-.472-.472V18.537H15.209v4.5h4.547V18.527H18.672Z" fill="none"></path><path d="M23.988,5.915a.469.469,0,0,0-.268-.422L12.2.045a.469.469,0,0,0-.4,0L.28,5.493a.469.469,0,0,0-.268.422L0,9.536a.469.469,0,0,0,.469.47h.4V23.531A.469.469,0,0,0,1.333,24H22.667a.469.469,0,0,0,.469-.469V10.006h.395A.469.469,0,0,0,24,9.536ZM9.012,13.627v-.522h.493v.4Zm-.759.978a.474.474,0,0,0,.289.1.426.426,0,0,0,.115-.015l1.435-.363a.471.471,0,0,0,.355-.458V13.1h1.085v4.5H6.979V13.1H8.07v1.137A.469.469,0,0,0,8.253,14.605Zm6.242-.978v-.522h.492v.4Zm-.76.978a.476.476,0,0,0,.288.1.452.452,0,0,0,.117-.015l1.433-.363a.473.473,0,0,0,.358-.458V13.1h1.084v4.5H12.468V13.1h1.084v1.137A.469.469,0,0,0,13.735,14.605Zm-1.982,3.932h.494v.4l-.494.125Zm5.483,0h.493v.4l-.493.125Zm-10.965,0h.493v.4l-.493.125Zm4.541,0v1.127a.464.464,0,0,0,.182.373.477.477,0,0,0,.289.1.426.426,0,0,0,.115-.015l1.435-.363a.471.471,0,0,0,.356-.457v-.764h1.084v4.5H9.727v-4.5Zm8.944,4.5H15.209v-4.5h1.084v1.127a.474.474,0,0,0,.472.472.465.465,0,0,0,.116-.015l1.433-.363a.472.472,0,0,0,.358-.457v-.774h1.084Zm-14.245-3a.474.474,0,0,0,.289.1.434.434,0,0,0,.116-.015l1.434-.363a.471.471,0,0,0,.356-.457v-.764H8.791v4.5H4.237V18.527H5.329v1.137A.467.467,0,0,0,5.511,20.037Zm15.181,3.025v-5a.469.469,0,0,0-.468-.468H17.951V12.627a.469.469,0,0,0-.469-.468H6.511a.465.465,0,0,0-.462.468v4.964H3.77a.465.465,0,0,0-.462.468v5H1.8V10.026H22.2V23.062ZM22.667,9.068a.37.37,0,0,0-.075.016.27.27,0,0,0-.039-.008H1.447a.27.27,0,0,0-.039.008.37.37,0,0,0-.075-.016H.939L.948,6.214,12,.987,23.052,6.214l.009,2.854Z"></path><path d="M12,2.671a2.6,2.6,0,1,0,2.6,2.6A2.6,2.6,0,0,0,12,2.671Zm0,4.248A1.649,1.649,0,1,1,13.649,5.27,1.651,1.651,0,0,1,12,6.919Z"></path></svg>
