<svg width="8" height="11" viewBox="0 0 8 11" fill="none" xmlns="http://www.w3.org/2000/svg">
<path fill-rule="evenodd" clip-rule="evenodd" d="M0.158345 10.8063C0.0537445 10.6774 0.000103746 10.5048 0.000103746 10.3348L0 10.3349C0 10.1651 0.0534451 9.99257 0.158242 9.86334L3.70131 5.49425L0.158409 1.13405L0.158278 1.13389C-0.0511208 0.875672 -0.0511208 0.448699 0.158278 0.19048C0.367677 -0.0677391 0.722102 -0.0642698 0.92842 0.206049L4.84176 5.03131C4.95002 5.16481 5 5.33357 5 5.50289C5 5.67381 4.94289 5.84976 4.84176 5.97447L0.923396 10.8063C0.713997 11.0646 0.367744 11.0646 0.158345 10.8063ZM3.15835 10.8063C3.05374 10.6774 3.0001 10.5048 3.0001 10.3348L3 10.3349C3 10.1651 3.05345 9.99257 3.15824 9.86334L6.70131 5.49425L3.15841 1.13405L3.15828 1.13389C2.94888 0.875672 2.94888 0.448699 3.15828 0.19048C3.36768 -0.0677391 3.7221 -0.0642698 3.92842 0.206049L7.84176 5.03131C7.95002 5.16481 8 5.33357 8 5.50289C8 5.67381 7.94289 5.84976 7.84176 5.97447L3.9234 10.8063C3.714 11.0646 3.36774 11.0646 3.15835 10.8063Z" fill="#EF7D28"/>
</svg>
