<svg width="8" height="11" viewBox="0 0 8 11" fill="none" xmlns="http://www.w3.org/2000/svg">
<path fill-rule="evenodd" clip-rule="evenodd" d="M0.158239 10.8063C0.0536378 10.6774 -2.90562e-06 10.5048 -2.90562e-06 10.3348L-0.000106652 10.3349C-0.000106652 10.1651 0.0533384 9.99257 0.158135 9.86334L3.70121 5.49426L0.158302 1.13405L0.158172 1.13389C-0.0512275 0.875676 -0.0512275 0.448703 0.158172 0.190484C0.367571 -0.0677353 0.721995 -0.064266 0.928313 0.206053L4.84165 5.03131C4.94991 5.16482 4.99989 5.33357 4.99989 5.50289C4.99989 5.67382 4.94279 5.84976 4.84165 5.97447L0.923289 10.8063C0.71389 11.0646 0.367638 11.0646 0.158239 10.8063ZM3.15824 10.8063C3.05364 10.6774 3 10.5048 3 10.3348L2.99989 10.3349C2.99989 10.1651 3.05334 9.99257 3.15814 9.86334L6.70121 5.49426L3.1583 1.13405L3.15817 1.13389C2.94877 0.875676 2.94877 0.448703 3.15817 0.190484C3.36757 -0.0677353 3.722 -0.064266 3.92831 0.206053L7.84165 5.03131C7.94991 5.16482 7.99989 5.33357 7.99989 5.50289C7.99989 5.67382 7.94279 5.84976 7.84165 5.97447L3.92329 10.8063C3.71389 11.0646 3.36764 11.0646 3.15824 10.8063Z" fill="white"/>
</svg>
