<svg width="18" height="18" viewBox="0 0 18 18" fill="none" xmlns="http://www.w3.org/2000/svg">
<circle cx="9" cy="9" r="9" fill="#EF7D28"/>
<path d="M12.264 8.26399H9.73594V5.73598C9.73594 5.33002 9.40691 5 8.99997 5C8.594 5 8.26399 5.32903 8.26399 5.73598V8.26399L5.73598 8.26406C5.32903 8.26406 5 8.59406 5 9.00003C5 9.40601 5.32903 9.73601 5.73598 9.73601H8.26399V12.264C8.26399 12.67 8.59302 13 8.99997 13C9.40593 13 9.73594 12.671 9.73594 12.264L9.73601 9.73601H12.264C12.67 9.73601 13 9.40698 13 9.00003C13.0001 8.59407 12.671 8.26406 12.2641 8.26406L12.264 8.26399Z" fill="white"/>
</svg>
