<svg width="8" height="13" viewBox="0 0 8 13" fill="none" xmlns="http://www.w3.org/2000/svg">
<path d="M0.483814 9.00008C0.360143 9.00008 0.234653 9.043 0.140846 9.12668C-0.0469486 9.2942 -0.0469486 9.5712 0.140846 9.73872L3.65493 12.8734C3.74563 12.9543 3.87359 13 3.9979 13C4.12104 13 4.24377 12.96 4.34087 12.8734L7.85015 9.74274C8.04674 9.57768 8.04926 9.29414 7.86147 9.12662C7.67367 8.9591 7.36315 8.9591 7.17535 9.12662L4.00418 11.9611L0.826663 9.12659C0.732679 9.04276 0.607313 9.00008 0.483814 9.00008Z" fill="#656865"/>
<path d="M7.51619 3.99992C7.63986 3.99992 7.76535 3.957 7.85915 3.87332C8.04695 3.7058 8.04695 3.4288 7.85915 3.26128L4.34507 0.126594C4.25437 0.0456862 4.12641 0 4.0021 0C3.87896 0 3.75623 0.039983 3.65913 0.126594L0.149855 3.25726C-0.0467405 3.42232 -0.049264 3.70586 0.138532 3.87338C0.326328 4.0409 0.636854 4.0409 0.824648 3.87338L3.99582 1.03895L7.17334 3.87341C7.26732 3.95724 7.39269 3.99992 7.51619 3.99992Z" fill="#656865"/>
</svg>
