<?xml version="1.0" encoding="utf-8"?>
<!-- Generator: Adobe Illustrator 21.0.2, SVG Export Plug-In . SVG Version: 6.00 Build 0)  -->
<svg version="1.1" id="Layer_1" xmlns="http://www.w3.org/2000/svg" xmlns:xlink="http://www.w3.org/1999/xlink" x="0px" y="0px"
	 viewBox="0 0 785.2 163.9" style="enable-background:new 0 0 785.2 163.9;" xml:space="preserve">
<style type="text/css">
	.st0{fill:url(#SVGID_1_);}
	.st1{fill:url(#SVGID_2_);}
</style>
<g>
	<g>
		<linearGradient id="SVGID_1_" gradientUnits="userSpaceOnUse" x1="235.7475" y1="166.3545" x2="235.7475" y2="0">
			<stop  offset="0.3645" style="stop-color:#DC143C"/>
			<stop  offset="0.3695" style="stop-color:#C1C1C1"/>
		</linearGradient>
		<path class="st0" d="M55.3,58.6H42.5V0H0v163.9h42.5V95.1h12.7v68.9h42.5V0H55.3V58.6z M196.7,41.9c-3.6-4.4-8.6-7.9-15.2-10.7
			c-6.6-2.7-14.4-4.1-23.6-4.1c-10.9,0-19.9,2.1-26.9,6.4c-7,4.3-11.9,9.9-14.6,16.9c-2.7,7-4,16.8-4,29.3v34.4
			c0,11.4,0.7,20,2.2,25.7c1.5,5.7,4,10.6,7.4,14.6c3.5,4,8.3,7,14.6,9c6.3,2,13.9,3,22.9,3c8.1,0,15.2-1.2,21.5-3.5
			c6.2-2.3,11.3-5.9,15.3-10.8c4-4.9,6.6-10.2,7.8-15.8c1.2-5.6,1.8-14.5,1.8-26.6V76.7c0-9.5-0.7-16.6-2-21.3
			C202.8,50.8,200.3,46.3,196.7,41.9z M165.2,128.6c0,5.8-0.4,9.6-1.2,11.3c-0.8,1.8-2.4,2.6-4.8,2.6c-2.4,0-3.9-1-4.7-2.9
			c-0.8-1.9-1.2-6.1-1.2-12.4V66.6c0-6.9,0.4-11.2,1.2-13c0.8-1.8,2.4-2.7,4.9-2.7s4,0.9,4.7,2.7c0.7,1.8,1.1,6.1,1.1,13V128.6z
			 M354.3,32.2c-4.5-3.4-10.3-5.1-17.2-5.1c-5.3,0-10,1.3-14.3,3.8c-4.3,2.5-8.2,6.3-11.6,11.4c-6.3-10.1-14.9-15.2-25.8-15.2
			c-5.6,0-10.6,1.3-15,3.8c-4.4,2.5-8.2,6.3-11.3,11.4l0.7-12.8h-40.3v134.4h39.6V70.8c0-6.5,0.1-10.7,0.2-12.7
			c0.1-2,0.8-3.7,2.1-5.1c1.3-1.4,2.8-2.1,4.6-2.1c2.9,0,4.7,1.3,5.3,3.9c0.6,2.6,1,10.5,1,23.7v85.4h39.6V76.3
			c0-11.5,0.4-18.7,1.3-21.4c0.8-2.7,2.7-4.1,5.6-4.1c2.8,0,4.6,1.4,5.4,4.1c0.8,2.7,1.2,9.8,1.2,21.3v87.6H365V68.4
			c0-11-0.6-18.9-1.9-23.8C361.8,39.7,358.9,35.6,354.3,32.2z M471.5,99.1V81.3c0-13-1.5-23.1-4.5-30.3c-3-7.2-8.2-13-15.7-17.3
			c-7.4-4.4-16.9-6.5-28.3-6.5c-9.4,0-17.7,1.8-24.9,5.4c-7.2,3.6-12.4,8.8-15.6,15.6c-3.2,6.8-4.8,16-4.8,27.8v39.2
			c0,10,0.7,17.6,2.1,22.8c1.4,5.2,4,10,7.6,14.4c3.7,4.4,8.8,7.8,15.4,10.3c6.6,2.5,14.2,3.7,22.8,3.7c8.9,0,16.3-1.3,22.2-3.8
			c5.9-2.5,10.8-6.3,14.6-11.4c3.8-5.1,6.3-9.8,7.3-14.3c1-4.5,1.6-10.8,1.6-19.1v-9.9h-38.7v17.7c0,6.7-0.5,11.2-1.6,13.5
			c-1,2.3-3.1,3.5-6.2,3.5c-2.5,0-4.2-0.9-5.1-2.6c-0.9-1.8-1.3-5.7-1.3-11.7V99.1H471.5z M418.6,67.4c0-7.6,0.3-12.2,1-13.9
			c0.7-1.7,2.4-2.6,5.3-2.6c2.3,0,3.8,1,4.5,3c0.7,2,1.1,6.5,1.1,13.5v9.8h-11.9V67.4z"/>
	</g>
</g>
<g>
	<g>
		<linearGradient id="SVGID_2_" gradientUnits="userSpaceOnUse" x1="645.9043" y1="148.0067" x2="645.9043" y2="46.2966">
			<stop  offset="0.3645" style="stop-color:#DC143C"/>
			<stop  offset="0.3695" style="stop-color:#C1C1C1"/>
		</linearGradient>
		<path class="st1" d="M558.9,60.8c-2.5-3-5.8-5.2-9.8-6.4c-4-1.2-9.7-1.8-17-1.8h-25.5v93.8h13.2v-37.3h5.9c12,0,21.3-2.8,28.1-8.5
			c6.8-5.7,10.1-13.5,10.1-23.5C563.9,70.2,562.2,64.8,558.9,60.8z M543.4,93.6c-4.3,3.6-10.4,5.5-18.3,5.5h-5.4V62.5h8.2
			c7.8,0,13.5,1.2,16.9,3.6c3.4,2.4,5.1,6.4,5.1,12C549.9,84.8,547.8,90,543.4,93.6z M593,76c-10.1,0-18.1,3.2-24,9.7
			c-5.9,6.4-8.8,15.2-8.8,26.3c0,11.1,2.9,19.8,8.8,26.3c5.9,6.5,13.9,9.7,24,9.7c10.1,0,18.1-3.2,24-9.7c5.9-6.5,8.8-15.2,8.8-26.3
			c0-11.1-2.9-19.8-8.8-26.3C611.1,79.3,603.1,76,593,76z M607.4,131.6c-3.4,4.7-8.2,7-14.4,7c-6.2,0-11-2.3-14.4-7
			c-3.4-4.7-5.1-11.2-5.1-19.7c0-8.5,1.7-15,5.1-19.6c3.4-4.6,8.2-6.9,14.4-6.9c6.2,0,11,2.3,14.4,6.9c3.4,4.6,5.1,11.2,5.1,19.6
			C612.5,120.4,610.8,127,607.4,131.6z M632.3,146.4h12.5V46.3h-12.5V146.4z M681.8,106.2l-6-2.5c-6.1-2.6-9.1-5.7-9.1-9.5
			c0-2.7,1.1-4.8,3.3-6.4c2.2-1.6,5.1-2.4,8.7-2.4c4.1,0,9.7,1,16.6,3.1V78.1l-2.6-0.5c-5.7-1.1-10.4-1.6-14.2-1.6
			c-7.4,0-13.2,1.7-17.4,5.2c-4.2,3.4-6.4,8.2-6.4,14.2c0,8.4,5.4,14.9,16.1,19.3l7.3,3.1c6.6,2.8,9.9,6.3,9.9,10.6
			c0,2.9-1.2,5.3-3.5,7.3c-2.4,1.9-5.3,2.9-8.9,2.9c-6,0-13.1-2-21.3-6.1V144c8.1,2.7,15.1,4,20.8,4c7.4,0,13.5-1.9,18.3-5.8
			c4.8-3.9,7.2-8.9,7.2-14.9c0-4.8-1.4-8.8-4.2-12C693.4,112.1,688.6,109.1,681.8,106.2z M765,77.6h-13.4L722.4,111V46.3h-12.5
			v100.1h12.5v-35.3l32.3,35.3h16l-33.6-36.7L765,77.6z M772.7,52.6v12.5h12.5V52.6H772.7z M772.7,146.4h12.5V77.6h-12.5V146.4z"/>
	</g>
</g>
</svg>
