<?xml version="1.0" encoding="utf-8"?>
<!-- Generator: Adobe Illustrator 21.0.2, SVG Export Plug-In . SVG Version: 6.00 Build 0)  -->
<svg version="1.1" id="Layer_1" xmlns="http://www.w3.org/2000/svg" xmlns:xlink="http://www.w3.org/1999/xlink" x="0px" y="0px"
	 viewBox="0 0 940 176" style="enable-background:new 0 0 940 176;" xml:space="preserve">
<style type="text/css">
	.st0{fill:url(#SVGID_1_);}
	.st1{fill:url(#SVGID_2_);}
</style>
<g>
	<g>
		
			<linearGradient id="SVGID_1_" gradientUnits="userSpaceOnUse" x1="284.3" y1="17.6" x2="284.3" y2="184" gradientTransform="matrix(1 0 0 -1 -42 189)">
			<stop  offset="0.3645" style="stop-color:#DC143C"/>
			<stop  offset="0.3695" style="stop-color:#9F9F9F"/>
		</linearGradient>
		<path class="st0" d="M61.8,63.6H49.1V5H6.6v163.9h42.5V100h12.7v68.9h42.5V5H61.8V63.6z M203.3,46.9c-3.6-4.4-8.6-7.9-15.2-10.7
			c-6.6-2.7-14.4-4.1-23.6-4.1c-10.9,0-19.9,2.1-26.9,6.4s-11.9,9.9-14.6,16.9s-4,16.8-4,29.3v34.4c0,11.4,0.7,20,2.2,25.7
			s4,10.6,7.4,14.6c3.5,4,8.3,7,14.6,9s13.9,3,22.9,3c8.1,0,15.2-1.2,21.5-3.5c6.2-2.3,11.3-5.9,15.3-10.8c4-4.9,6.6-10.2,7.8-15.8
			s1.8-14.5,1.8-26.6v-33c0-9.5-0.7-16.6-2-21.3C209.3,55.8,206.9,51.3,203.3,46.9z M171.8,133.6c0,5.8-0.4,9.6-1.2,11.3
			c-0.8,1.8-2.4,2.6-4.8,2.6c-2.4,0-3.9-1-4.7-2.9s-1.2-6.1-1.2-12.4V71.6c0-6.9,0.4-11.2,1.2-13s2.4-2.7,4.9-2.7
			c2.4,0,4,0.9,4.7,2.7s1.1,6.1,1.1,13V133.6z M360.9,37.2c-4.5-3.4-10.3-5.1-17.2-5.1c-5.3,0-10,1.3-14.3,3.8s-8.2,6.3-11.6,11.4
			c-6.3-10.1-14.9-15.2-25.8-15.2c-5.6,0-10.6,1.3-15,3.8s-8.2,6.3-11.3,11.4l0.7-12.8H226v134.4h39.6V75.7c0-6.5,0.1-10.7,0.2-12.7
			c0.1-2,0.8-3.7,2.1-5.1c1.3-1.4,2.8-2.1,4.6-2.1c2.9,0,4.7,1.3,5.3,3.9c0.6,2.6,1,10.5,1,23.7v85.4h39.6V81.3
			c0-11.5,0.4-18.7,1.3-21.4c0.8-2.7,2.7-4.1,5.6-4.1c2.8,0,4.6,1.4,5.4,4.1c0.8,2.7,1.2,9.8,1.2,21.3v87.6h39.6V73.4
			c0-11-0.6-18.9-1.9-23.8C368.3,44.7,365.4,40.5,360.9,37.2z M478,104.1V86.3c0-13-1.5-23.1-4.5-30.3s-8.2-13-15.7-17.3
			c-7.4-4.4-16.9-6.5-28.3-6.5c-9.4,0-17.7,1.8-24.9,5.4c-7.2,3.6-12.4,8.8-15.6,15.6s-4.8,16-4.8,27.8v39.2c0,10,0.7,17.6,2.1,22.8
			s4,10,7.6,14.4c3.7,4.4,8.8,7.8,15.4,10.3s14.2,3.7,22.8,3.7c8.9,0,16.3-1.3,22.2-3.8c5.9-2.5,10.8-6.3,14.6-11.4
			c3.8-5.1,6.3-9.8,7.3-14.3s1.6-10.8,1.6-19.1v-9.9h-38.7v17.7c0,6.7-0.5,11.2-1.6,13.5c-1,2.3-3.1,3.5-6.2,3.5
			c-2.5,0-4.2-0.9-5.1-2.6c-0.9-1.8-1.3-5.7-1.3-11.7v-29.1L478,104.1L478,104.1z M425.2,72.4c0-7.6,0.3-12.2,1-13.9
			s2.4-2.6,5.3-2.6c2.3,0,3.8,1,4.5,3s1.1,6.5,1.1,13.5v9.8h-11.9V72.4z"/>
	</g>
</g>
<g>
	<g>
		
			<linearGradient id="SVGID_2_" gradientUnits="userSpaceOnUse" x1="754.45" y1="17.6714" x2="754.45" y2="180.0772" gradientTransform="matrix(1 0 0 -1 -42 189)">
			<stop  offset="0.3645" style="stop-color:#DC143C"/>
			<stop  offset="0.3695" style="stop-color:#9F9F9F"/>
		</linearGradient>
		<path class="st1" d="M573.5,32c-4-4.9-9.2-8.3-15.6-10.2c-6.4-1.9-15.4-2.9-27.1-2.9H490v149.9h21v-59.5h9.4
			c19.1,0,34.1-4.5,44.9-13.6c10.8-9,16.2-21.5,16.2-37.5C581.5,47.2,578.8,38.4,573.5,32z M548.9,84.5c-6.9,5.8-16.6,8.7-29.2,8.7
			h-8.6V34.8h13c12.5,0,21.5,1.9,26.9,5.8c5.4,3.8,8.1,10.2,8.1,19.1C559.2,70.4,555.7,78.7,548.9,84.5z M628,56.4
			c-16.1,0-28.8,5.1-38.2,15.4s-14.1,24.3-14.1,42s4.7,31.7,14.1,42c9.4,10.3,22.1,15.5,38.2,15.5c16.1,0,28.8-5.2,38.2-15.5
			s14.1-24.3,14.1-42s-4.7-31.7-14.1-42C656.9,61.6,644.1,56.4,628,56.4z M651,145.2c-5.4,7.4-13.1,11.1-23,11.1s-17.5-3.7-23-11.1
			c-5.4-7.4-8.1-17.9-8.1-31.4s2.7-23.9,8.1-31.3c5.4-7.4,13.1-11.1,23-11.1s17.6,3.7,23,11.1s8.2,17.8,8.2,31.3
			C659.1,127.3,656.4,137.8,651,145.2z M690.8,168.8h19.9V8.9h-19.9V168.8z M769.8,104.6l-9.6-4c-9.7-4.1-14.6-9.2-14.6-15.2
			c0-4.3,1.7-7.6,5.2-10.2c3.5-2.5,8.1-3.8,13.9-3.8c6.6,0,15.5,1.7,26.6,5V59.8l-4.1-0.8c-9-1.7-16.6-2.5-22.7-2.5
			c-11.8,0-21.1,2.8-27.8,8.3c-6.8,5.5-10.2,13-10.2,22.6c0,13.4,8.6,23.7,25.8,30.9l11.6,5c10.6,4.5,15.9,10.1,15.9,16.9
			c0,4.7-1.9,8.5-5.7,11.6s-8.5,4.7-14.2,4.7c-9.6,0-21-3.2-34-9.7v18.3c13,4.3,24,6.4,33.1,6.4c11.9,0,21.6-3.1,29.2-9.3
			c7.6-6.2,11.4-14.1,11.4-23.8c0-7.6-2.3-14-6.8-19.1C788.3,114,780.7,109.2,769.8,104.6z M902.5,58.8H881l-46.5,53.4V8.9h-19.9
			v159.9h19.9v-56.4l51.6,56.4h25.5l-53.7-58.6L902.5,58.8z M915,18.9v19.9h19.9V18.9H915z M915,168.8h19.9v-110H915V168.8z"/>
	</g>
</g>
</svg>
