<?xml version="1.0" encoding="utf-8"?>
<!-- Generator: Adobe Illustrator 21.0.2, SVG Export Plug-In . SVG Version: 6.00 Build 0)  -->
<svg version="1.1" id="Layer_1" xmlns="http://www.w3.org/2000/svg" xmlns:xlink="http://www.w3.org/1999/xlink" x="0px" y="0px"
	 viewBox="0 0 24 30" style="enable-background:new 0 0 24 30;" xml:space="preserve">
<style type="text/css">
	.st0{fill:#DC143C;}
</style>
<g>
	<path class="st0" d="M1.9,24.4c0-2.4,0.9-4.7,2.6-6.4c3.5-3.8,9.5-3.9,13.3-0.4l1.3-1.4c-1.1-1-2.4-1.8-3.7-2.4
		c2.1-1.3,3.5-3.7,3.5-6.3c0-4.1-3.4-7.5-7.5-7.5C7.1,0,3.8,3.4,3.8,7.5c0,2.7,1.4,5,3.5,6.4c-1.6,0.6-3,1.5-4.2,2.8
		c-2,2.1-3.1,4.8-3.1,7.7V30h13.1v-1.9H1.9V24.4z M5.6,7.5c0-3.1,2.5-5.6,5.6-5.6s5.6,2.5,5.6,5.6s-2.5,5.6-5.6,5.6
		S5.6,10.6,5.6,7.5z"/>
	<polygon class="st0" points="23.4,23.4 19.7,23.4 19.7,19.7 17.8,19.7 17.8,23.4 14.1,23.4 14.1,25.3 17.8,25.3 17.8,29.1 
		19.7,29.1 19.7,25.3 23.4,25.3 	"/>
</g>
</svg>
