<?xml version="1.0" encoding="utf-8"?>
<!-- Generator: Adobe Illustrator 21.0.2, SVG Export Plug-In . SVG Version: 6.00 Build 0)  -->
<svg version="1.1" id="Layer_1" xmlns="http://www.w3.org/2000/svg" xmlns:xlink="http://www.w3.org/1999/xlink" x="0px" y="0px"
	 viewBox="0 0 24 30" style="enable-background:new 0 0 24 30;" xml:space="preserve">
<style type="text/css">
	.st0{fill:#DC143C;}
</style>
<g>
	<path class="st0" d="M2.2,24.4c0-2.4,0.9-4.7,2.6-6.5c3.6-3.8,9.6-4,13.4-0.4l1.2-1.3c-1.2-1.1-2.5-1.9-3.9-2.4
		c2.2-1.3,3.6-3.7,3.6-6.4c0-4.1-3.3-7.5-7.5-7.5C7.5,0,4.2,3.3,4.2,7.5c0,2.7,1.5,5.1,3.7,6.4c-1.6,0.6-3.1,1.5-4.4,2.8
		c-2,2.1-3.1,4.8-3.1,7.7V30h13.1v-1.7H2.2V24.4z M5.9,7.5c0-3.2,2.6-5.7,5.7-5.7s5.7,2.6,5.7,5.7s-2.6,5.7-5.7,5.7
		S5.9,10.6,5.9,7.5z"/>
	<polygon class="st0" points="22.4,19.1 16.4,25.1 14.2,22.9 12.9,24.1 16.4,27.5 23.6,20.3 	"/>
</g>
</svg>
