<?xml version="1.0" encoding="utf-8"?>
<!-- Generator: Adobe Illustrator 25.1.0, SVG Export Plug-In . SVG Version: 6.00 Build 0)  -->
<svg version="1.1" id="Layer_1" xmlns="http://www.w3.org/2000/svg" xmlns:xlink="http://www.w3.org/1999/xlink" x="0px" y="0px"
	 viewBox="0 0 933.7 1000" style="enable-background:new 0 0 933.7 1000;" xml:space="preserve">
<style type="text/css">
	.st0{fill:#1C355E;}
</style>
<path class="st0" d="M382.3,991.2c-25.8-7.3-43.9-22.8-51.4-48.9c-52.9,2.7-68.7-7-85.1-51.5c-46.8,2.3-66.1-9.5-80.8-49.8
	c-34.8,5.1-62.1-6.6-75.3-40.5c-11.7-29.8-1.7-55.1,23.4-74.9c-4.2-9.1-6.2-20.3-12.9-26.5c-7.8-7.2-19.4-13.1-29.8-14.2
	c-21.5-2.1-43.4-0.6-66-0.6c0-10.3,0-20,0-31c3-0.1,6.4-0.4,9.7-0.4c12.5-0.1,25.1,1.1,37.4-0.2c24.3-2.6,46.1,3.7,66.2,16.7
	c3.5,2.3,6.9,5.7,8.8,9.4c5.3,10.2,9.6,20.9,14.7,31.2c1.2,2.5,4.1,5.9,6.2,5.9c25.4,0.5,43.4,13.1,56.8,33.7
	c37.9-34.1,88.2-21.4,107.1,20.1c31.1-15.7,60.1-13.5,84,13.4c19.8,22.3,19.5,48.5,1.2,81.5c2.2,0.5,4.1,1.2,6.1,1.5
	c33.6,5.7,57.8,37.6,52.3,71.2c-1.6,9.8,2.7,12.9,9.4,16.7c21.3,11.8,43.9,3.9,50.4-17.9c4.3-14.2-0.4-27.9-12.8-36.1
	c-9.8-6.5-19.8-12.7-31.1-19.9c5.8-9.1,11.3-17.8,17.4-27.4c12.8,8.2,24.8,15.9,36.9,23.6c13.7,8.8,27.2,18,41.2,26.3
	c13,7.7,28,6,38.5-3c10.2-8.8,14.6-24.7,8.5-37.6c-3-6.2-8.5-12.1-14.2-16c-21.7-14.6-44-28.4-66.1-42.5c-2.9-1.9-5.8-3.8-9.8-6.5
	c5.7-9,11.1-17.5,17-26.8c3.6,2,6.9,3.7,10,5.7c36.9,23.5,73.8,47.1,110.8,70.5c5.1,3.2,10.6,6.3,16.3,7.8c16,4.1,31.2-4,37.5-19.1
	c6.4-15.3,1.7-31-12.6-40.1c-38.7-24.8-77.6-49.4-116.4-74.1c-3.2-2-6.3-4.2-10.3-6.8c5.7-9,11-17.5,17-26.9c3.4,2,6.4,3.5,9.3,5.4
	C655.8,727,709.9,761.6,764,796.1c20.8,13.2,45,5.2,52.3-17c4.7-14.2-0.5-28.5-13.3-36.5c-86.8-54.1-173.6-108.2-260.5-162.2
	c-2.6-1.6-5.7-3.4-8.7-3.5c-17.3-0.2-34.6-0.3-51.8,0.3c-10.5,0.4-19.4,5.1-27,12.9c-14.2,14.7-28.4,29.6-43.8,43.1
	c-23.2,20.4-58.2,20.8-82.5,2.2c-24.3-18.6-33.3-53.7-19.8-81.1c3.6-7.3,8.8-14.2,14.5-20c18.8-19.2,38.2-37.8,57.3-56.7
	c2.2-2.1,4.2-4.4,7.8-8.2c-129.3,0-256.4,0-384.2,0c0-10.7,0-20.4,0-31.4c30.2,0,60.4,0,91,0c0-5.9,0-10.6,0-16
	c-23.6-6.1-42-19.4-53.1-41.6c-8.3-16.6-10.1-34.3-5.9-52.3c8.1-35.5,40.2-59.9,77.4-59.2c36.1,0.7,67,27,73.6,62.6
	c7.6,40.9-12.5,71.8-59.7,91.1c0,4.6,0,9.3,0,14.6c30.1,0,60,0,90.4,0c0-70.7,0-141.2,0-213.3c-12.3,9.4-23.6,18-35.8,27.4
	c-6.5-8.4-12.7-16.3-19.3-24.8c3-2.5,5.4-4.6,7.8-6.5c88.4-68.8,176.7-137.6,265.3-206c4.8-3.7,11.9-5.1,18.1-6.2
	c22.3-3.9,40.4,3.7,57.1,19C528.5,42.5,548,55.7,566.4,70c1.4,1.1,2.9,2,5.7,4c0-17.6,0-33.7,0-50.4c36.3,0,71.6,0,108.2,0
	c0,3.8,0,7.2,0,10.6c0,38.7,0.1,77.4-0.1,116.2c0,6,1.6,9.8,6.5,13.6c24.2,18.4,48,37.2,72,55.9c2.5,1.9,4.9,4,8,6.5
	c-5.5,7.3-10.4,14.4-16.2,20.6c-1.4,1.5-6.9,1-9.2-0.6c-9.8-6.9-19.2-14.5-29.8-22.8c0,72.1,0,142.3,0,213.4c29.8,0,59.7,0,90.3,0
	c0-9.2,0-18.6,0-28.9c-19.9,0-39.6,0-60,0c0-41.4,0-81.9,0-123.1c50.6,0,101.3,0,152.8,0c0,40.4,0,81.1,0,122.7c-20,0-39.7,0-60,0
	c0,10.3,0,19.7,0,30c30.3,0,60.2,0,90.8,0c0,10.6,0,20.4,0,31.6c-4,0-8,0-12,0c-154.9,0-309.8,0.1-464.7-0.2
	c-9.6,0-16.5,2.3-23.5,9.4c-26.3,26.7-53.3,52.6-79.9,78.9c-10.6,10.4-13.6,23-8.5,36.9c5,13.5,14.9,21.4,29.4,22.7
	c10.8,1,20.1-3,27.7-10.7c13.1-13.1,26.5-26,39.3-39.4c14.2-14.7,31.6-21.2,51.6-21.5c17.6-0.2,35.2-0.4,52.8,0.2
	c5.7,0.2,12,1.9,16.8,4.9c78.3,48.4,156.4,97.1,234.6,145.8c1.3,0.8,2.7,1.7,4.6,2.9c1.2-1.7,2.7-2.9,3.2-4.5
	c6.3-21.5,25.2-29.2,42.3-38.8c1.8-1,4.3-1.3,6.4-1.4c25.3-0.1,50.6,0,75.8,0c1.2,0,2.4,0.4,4.1,0.8c0,10,0,19.7,0,30.5
	c-20.2,0-40,0.9-59.7-0.3c-19.8-1.2-37.6,9.8-43.1,30c29.5,30.5,35,61.5,15.9,90c-19.4,28.8-50.2,35.9-89.2,20.1
	c-2.7,24-13,43.5-35.2,54.4c-22,10.8-44,8.6-66.1-3.3c-2.8,24.5-12.7,44.1-34.8,55.3c-21.5,10.9-43.2,9.1-64.9-2.1
	c-0.9,4.5-1.6,8.2-2.5,11.9c-5.6,22.9-19.3,38.5-41.6,46.3c-3,1-5.9,2.2-8.8,3.3c-7.7,0-15.4,0-23,0c-10.6-4.8-21.2-9.8-31.9-14.4
	c-1.9-0.8-4.8-0.9-6.6,0c-9.7,4.6-19.1,9.6-28.7,14.4C397.7,991.2,390,991.2,382.3,991.2z M679.6,437.3c0-78.9,0.1-156.6-0.2-234.3
	c0-2.8-2.6-6.4-5-8.3c-64.8-50.6-129.7-101-194.6-151.5c-7.9-6.2-22.1-6-30.1,0.2C385.6,93.4,321.5,143.3,257.3,193
	c-4.9,3.8-7.4,7.6-7.3,14.2c0.3,73.9,0.2,147.8,0.2,221.7c0,2.8,0.4,5.5,0.6,8.2c81.8,0,162.9,0,244.8,0c0-71.6,0-142.5,0-213.8
	c51.6,0,102.3,0,154.2,0c0,71.7,0,142.8,0,214.1C660.2,437.3,669.3,437.3,679.6,437.3z M617.6,437.3c0-61.5,0-121.8,0-182.5
	c-30.4,0-60.2,0-90.2,0c0,61.2,0,121.8,0,182.5C557.7,437.3,587.3,437.3,617.6,437.3z M378.7,826.8c0-16.8-9.8-29.5-23.6-33.7
	c-12.6-3.9-26.4,0.7-34.3,12.6c-13,19.3-25.7,38.8-38,58.6c-9.6,15.5-5,33.8,10.3,43.4c14.9,9.3,32.8,5.6,42.8-9.3
	c12.6-18.8,25-37.7,37-56.9C376.1,836.1,377.5,829.7,378.7,826.8z M111.4,391.6c24.4,0.1,45.4-20.6,45.8-45.1
	c0.4-24.7-20.8-46.2-45.5-46.2c-24.8,0-46,21.2-45.8,46C66.1,370.8,87,391.6,111.4,391.6z M227.9,860.4c11.4-0.4,20.5-5.1,26.8-14.5
	c8-12,15.9-24,23.6-36.1c5.7-8.9,7-18.4,2.8-28.4c-4.8-11.2-13.2-18-25.3-19.5c-13.3-1.6-24.1,3.9-31.4,14.6
	c-8,11.9-14.3,25-22.4,36.7c-6.9,9.9-7.3,19.6-1.8,29.6C206,853.8,215.4,859.7,227.9,860.4z M863.3,375.9c0-20.1,0-39.7,0-59.5
	c-30.4,0-60.3,0-90.1,0c0,20.3,0,39.9,0,59.5C803.6,375.9,833.3,375.9,863.3,375.9z M149.3,810.7c18.8,0.5,29.8-17.9,30.4-31
	c0.8-16.5-15.3-31.8-31.9-31.9c-16.6-0.1-30.7,13.8-30.8,30.3C116.9,795.2,132.3,810.8,149.3,810.7z M361.2,927.2
	c0,16.8,14.9,32.1,31.5,32.5c17,0.3,31.5-13.8,31.5-30.6c0-16.4-14.8-31.7-30.8-31.9C376,897,361.2,910.8,361.2,927.2z M648.2,133.7
	c0-27.1,0-52.8,0-78.5c-15.1,0-29.6,0-44.7,0c0,13.7-0.1,26.8,0.1,39.9c0,2,1,4.6,2.4,5.7C619.7,111.6,633.5,122.2,648.2,133.7z"/>
<path class="st0" d="M280.5,376.5c0-51.4,0-101.9,0-153.1c61.3,0,122.2,0,183.9,0c0,50.7,0,101.6,0,153.1
	C403.3,376.5,342.4,376.5,280.5,376.5z M356.4,345.2c0-30.8,0-60.4,0-90.3c-15.1,0-29.5,0-44.1,0c0,30.5,0,60.3,0,90.3
	C327.3,345.2,341.6,345.2,356.4,345.2z M388.9,344.9c15.2,0,29.7,0,44.1,0c0-30.6,0-60.4,0-90.2c-15.1,0-29.3,0-44.1,0
	C388.9,284.9,388.9,314.5,388.9,344.9z"/>
<path class="st0" d="M603.2,330.9c0,10.4,0,19.8,0,30.1c-10,0-19.7,0-30.3,0c0-9.6,0-19.6,0-30.1
	C582.7,330.9,592.4,330.9,603.2,330.9z"/>
</svg>
