<?xml version="1.0" encoding="utf-8"?>
<!-- Generator: Adobe Illustrator 25.1.0, SVG Export Plug-In . SVG Version: 6.00 Build 0)  -->
<svg version="1.1" id="Layer_1" xmlns="http://www.w3.org/2000/svg" xmlns:xlink="http://www.w3.org/1999/xlink" x="0px" y="0px"
	 viewBox="0 0 40.6 41.2" style="enable-background:new 0 0 40.6 41.2;" xml:space="preserve">
<style type="text/css">
	.st0{fill:#FFFFFF;}
	.st1{fill:#CFD8DC;}
	.st2{fill:#40C351;}
	.st3{fill-rule:evenodd;clip-rule:evenodd;fill:#FFFFFF;}
</style>
<path class="st0" d="M1,39.8l2.7-9.8c-1.7-2.9-2.5-6.1-2.5-9.5c0-10.5,8.5-19,19-19c5.1,0,9.8,2,13.4,5.6c3.6,3.6,5.6,8.4,5.6,13.4
	c0,10.5-8.5,19-19,19c0,0,0,0,0,0h0c-3.2,0-6.3-0.8-9.1-2.3L1,39.8z"/>
<path class="st0" d="M1,40.3c-0.1,0-0.3-0.1-0.4-0.1c-0.1-0.1-0.2-0.3-0.1-0.5L3.2,30c-1.6-2.9-2.5-6.2-2.5-9.6
	C0.7,9.7,9.4,1,20.1,1c5.2,0,10.1,2,13.8,5.7c3.7,3.7,5.7,8.6,5.7,13.8c0,10.7-8.7,19.5-19.5,19.5c-3.2,0-6.3-0.8-9.1-2.3l-9.9,2.6
	C1.1,40.3,1,40.3,1,40.3z"/>
<path class="st1" d="M20.1,1.5c5.1,0,9.8,2,13.4,5.6c3.6,3.6,5.6,8.4,5.6,13.4c0,10.5-8.5,19-19,19h0c-3.2,0-6.3-0.8-9.1-2.3L1,39.8
	l2.7-9.8c-1.7-2.9-2.5-6.1-2.5-9.5C1.2,10,9.7,1.5,20.1,1.5 M20.1,39.4L20.1,39.4L20.1,39.4 M20.1,39.4L20.1,39.4L20.1,39.4
	 M20.1,0.5L20.1,0.5c-11,0-20,9-20,20c0,3.4,0.8,6.7,2.5,9.6L0,39.5c-0.1,0.3,0,0.7,0.3,1c0.2,0.2,0.4,0.3,0.7,0.3
	c0.1,0,0.2,0,0.3,0l9.7-2.5c2.8,1.5,6,2.2,9.2,2.2c11,0,20-9,20-20c0-5.3-2.1-10.4-5.8-14.1C30.5,2.6,25.5,0.5,20.1,0.5L20.1,0.5z"
	/>
<path class="st2" d="M31.3,9.3c-3-3-6.9-4.6-11.2-4.6c-8.7,0-15.8,7.1-15.8,15.8c0,3,0.8,5.9,2.4,8.4l0.4,0.6l-1.6,5.8l6-1.6
	l0.6,0.3c2.4,1.4,5.2,2.2,8,2.2h0c8.7,0,15.8-7.1,15.8-15.8C35.9,16.2,34.3,12.3,31.3,9.3z"/>
<path class="st3" d="M15.4,12.5c-0.4-0.8-0.7-0.8-1.1-0.8c-0.3,0-0.6,0-0.9,0s-0.8,0.1-1.3,0.6c-0.4,0.5-1.7,1.6-1.7,4
	s1.7,4.6,1.9,4.9s3.3,5.3,8.1,7.2c4,1.6,4.8,1.3,5.7,1.2c0.9-0.1,2.8-1.1,3.2-2.3c0.4-1.1,0.4-2.1,0.3-2.3c-0.1-0.2-0.4-0.3-0.9-0.6
	S26,23,25.6,22.9c-0.4-0.2-0.8-0.2-1.1,0.2c-0.3,0.5-1.2,1.5-1.5,1.9c-0.3,0.3-0.6,0.4-1,0.1c-0.5-0.2-2-0.7-3.8-2.4
	c-1.4-1.3-2.4-2.8-2.6-3.3c-0.3-0.5,0-0.7,0.2-1c0.2-0.2,0.5-0.6,0.7-0.8c0.2-0.3,0.3-0.5,0.5-0.8c0.2-0.3,0.1-0.6,0-0.8
	C16.7,15.8,15.8,13.5,15.4,12.5z"/>
</svg>
