<?xml version="1.0" encoding="utf-8"?>
<!-- Generator: Adobe Illustrator 23.0.0, SVG Export Plug-In . SVG Version: 6.00 Build 0)  -->
<svg version="1.1" id="Layer_1" xmlns="http://www.w3.org/2000/svg" xmlns:xlink="http://www.w3.org/1999/xlink" x="0px" y="0px"
	 viewBox="0 0 664 314" enable-background="new 0 0 664 314" xml:space="preserve">
<polygon fill="#1C355E" points="6.945,160.659 65.146,160.659 65.146,169.23 40.78,169.23 40.78,226.416 41.913,234.87 
	30.628,234.87 30.628,169.23 6.945,169.23 "/>
<g>
	<defs>
		<rect id="SVGID_1_" x="-89" y="-139.28" width="841.89" height="595.28"/>
	</defs>
	<clipPath id="SVGID_2_">
		<use xlink:href="#SVGID_1_"  overflow="visible"/>
	</clipPath>
	<path clip-path="url(#SVGID_2_)" fill="#1C355E" d="M129.096,234.87l-19.856-27.861c-1.238,0.118-2.821,0.118-9.468,0.118v19.289
		l1.123,8.454H89.62v-63.823l-1.465-10.388h20.98c12.407,0,24.355,7.108,24.355,22.336c0,8.806-5.527,17.025-14.438,21.203
		l23.127,30.672H129.096z M107.105,198.79c8.345,0,15.677-7.224,15.677-15.795c0-9.254-7.332-13.978-15.677-13.978h-7.332v29.773
		H107.105z"/>
	<path clip-path="url(#SVGID_2_)" fill="#1C355E" d="M183.005,160.659l6.881-1.464l23.009,63.279l5.642,12.396h-12.299
		l-7.096-19.387h-27.637l-7.331,19.387h-9.812L183.005,160.659z M174.551,206.912h21.77l-9.362-25.948l-1.133-4.392l-1.347,4.51
		L174.551,206.912z"/>
	<polygon clip-path="url(#SVGID_2_)" fill="#1C355E" points="241.431,160.659 279.999,160.659 279.999,169.016 253.048,169.016 
		253.048,192.698 276.624,192.698 274.369,201.035 253.048,201.035 253.048,226.416 254.181,234.87 242.895,234.87 242.895,171.047 
			"/>
	<path clip-path="url(#SVGID_2_)" fill="#1C355E" d="M319.478,160.659l6.881-1.464l23.022,63.279l5.621,12.396h-12.281
		l-7.106-19.387h-27.634l-7.332,19.387h-9.812L319.478,160.659z M311.024,206.912h21.759l-9.351-25.948l-1.133-4.392l-1.355,4.51
		L311.024,206.912z"/>
	<polygon clip-path="url(#SVGID_2_)" fill="#1C355E" points="379.369,171.047 377.906,160.659 389.523,160.659 389.523,226.3 
		418.633,226.3 416.369,234.87 379.369,234.87 	"/>
	<path clip-path="url(#SVGID_2_)" fill="#1C355E" d="M495.773,232.059c0,0-11.404,4.275-25.715,4.275
		c-17.494,0-34.4-12.846-34.4-36.977c0-23.137,15.443-40.043,35.299-40.043c9.351,0,17.589,3.162,24.25,9.254l-5.196,7.652
		c-5.291-5.524-11.5-8.57-18.937-8.57c-13.998,0-24.602,14.897-24.602,30.574c0,18.273,12.75,30.009,25.617,30.009
		c6.09,0,13.743-1.934,13.743-1.934l0.119-19.738l-1.914-8.337h11.617L495.773,232.059z"/>
	<path clip-path="url(#SVGID_2_)" fill="#1C355E" d="M544.486,160.659l6.891-1.464l22.998,63.279l5.642,12.396h-12.295
		l-7.089-19.387h-27.647l-7.322,19.387h-9.82L544.486,160.659z M536.031,206.912h21.77l-9.352-25.948l-1.133-4.392l-1.346,4.51
		L536.031,206.912z"/>
	<path clip-path="url(#SVGID_2_)" fill="#1C355E" d="M643.863,234.87l-19.858-27.861c-1.228,0.118-2.81,0.118-9.466,0.118v19.289
		l1.133,8.454h-11.286v-63.823l-1.464-10.388h20.968c12.418,0,24.365,7.108,24.365,22.336c0,8.806-5.525,17.025-14.427,21.203
		l23.117,30.672H643.863z M621.859,198.79c8.355,0,15.678-7.224,15.678-15.795c0-9.254-7.323-13.978-15.678-13.978h-7.32v29.773
		H621.859z"/>
	<path clip-path="url(#SVGID_2_)" fill="#898A8D" d="M149.82,287.835v17.794h-6.62v-43.845h7.493c3.674,0,6.444,0.255,8.317,0.764
		c1.897,0.509,3.558,1.491,5.003,2.903c2.514,2.466,3.777,5.572,3.777,9.32c0,4.009-1.35,7.187-4.031,9.532
		c-2.692,2.348-6.315,3.532-10.879,3.532H149.82z M149.82,281.694h2.462c6.081,0,9.112-2.34,9.112-7.023
		c0-4.518-3.125-6.768-9.397-6.768h-2.177V281.694z"/>
	<path clip-path="url(#SVGID_2_)" fill="#898A8D" d="M195.272,286.954l13.565,18.676h-8.093l-12.516-17.951h-1.197v17.951h-6.61
		v-43.847h7.749c5.785,0,9.972,1.085,12.545,3.276c2.844,2.419,4.268,5.61,4.268,9.593c0,3.107-0.89,5.775-2.68,8.004
		C200.526,284.888,198.177,286.326,195.272,286.954 M187.031,281.91h2.099c6.271,0,9.397-2.379,9.397-7.179
		c0-4.473-3.047-6.729-9.142-6.729h-2.354V281.91z"/>
	<path clip-path="url(#SVGID_2_)" fill="#898A8D" d="M218.062,283.521c0-6.187,2.259-11.478,6.789-15.911
		c4.494-4.433,9.912-6.652,16.233-6.652c6.247,0,11.607,2.251,16.077,6.711c4.482,4.46,6.728,9.835,6.728,16.107
		c0,6.296-2.253,11.639-6.758,16.026c-4.528,4.422-9.99,6.611-16.391,6.611c-5.656,0-10.737-1.941-15.243-5.866
		C220.54,296.219,218.062,290.529,218.062,283.521 M224.732,283.589c0,4.837,1.625,8.822,4.885,11.939
		c3.236,3.119,6.978,4.687,11.212,4.687c4.6,0,8.478-1.589,11.643-4.785c3.165-3.201,4.738-7.122,4.738-11.744
		c0-4.658-1.56-8.58-4.68-11.743c-3.106-3.177-6.948-4.764-11.525-4.764c-4.564,0-8.412,1.587-11.565,4.764
		C226.298,275.094,224.732,278.969,224.732,283.589"/>
	<path clip-path="url(#SVGID_2_)" fill="#898A8D" d="M284.631,287.835v17.794h-6.61v-43.845h7.494c3.674,0,6.444,0.255,8.317,0.764
		c1.897,0.509,3.557,1.491,5.003,2.903c2.514,2.466,3.776,5.572,3.776,9.32c0,4.009-1.35,7.187-4.03,9.532
		c-2.693,2.348-6.316,3.532-10.879,3.532H284.631z M284.631,281.694h2.473c6.081,0,9.111-2.34,9.111-7.023
		c0-4.518-3.125-6.768-9.396-6.768h-2.188V281.694z"/>
	<polygon clip-path="url(#SVGID_2_)" fill="#898A8D" points="339.43,268.002 321.851,268.002 321.851,278.536 338.918,278.536 
		338.918,284.756 321.851,284.756 321.851,299.41 339.43,299.41 339.43,305.63 315.241,305.63 315.241,261.783 339.43,261.783 	"/>
	<path clip-path="url(#SVGID_2_)" fill="#898A8D" d="M368.774,286.954l13.576,18.676h-8.082l-12.537-17.951h-1.178v17.951h-6.631
		v-43.847h7.75c5.807,0,9.992,1.085,12.555,3.276c2.846,2.419,4.258,5.61,4.258,9.593c0,3.107-0.891,5.775-2.668,8.004
		C374.037,284.888,371.69,286.326,368.774,286.954 M360.553,281.91h2.1c6.25,0,9.396-2.379,9.396-7.179
		c0-4.473-3.047-6.729-9.141-6.729h-2.355V281.91z"/>
	<polygon clip-path="url(#SVGID_2_)" fill="#898A8D" points="406.338,268.002 406.338,305.63 399.727,305.63 399.727,268.002 
		389.643,268.002 389.643,261.783 416.381,261.783 416.381,268.002 	"/>
	<rect x="428.112" y="261.783" clip-path="url(#SVGID_2_)" fill="#898A8D" width="6.609" height="43.846"/>
	<polygon clip-path="url(#SVGID_2_)" fill="#898A8D" points="475.266,268.002 457.69,268.002 457.69,278.536 474.756,278.536 
		474.756,284.756 457.69,284.756 457.69,299.41 475.266,299.41 475.266,305.63 451.079,305.63 451.079,261.783 475.266,261.783 	"/>
	<path clip-path="url(#SVGID_2_)" fill="#898A8D" d="M514.557,268.296l-5.375,3.178c-1.008-1.752-1.963-2.87-2.863-3.413
		c-0.95-0.595-2.166-0.903-3.67-0.903c-1.838,0-3.362,0.519-4.571,1.55c-1.21,1.043-1.804,2.324-1.804,3.868
		c0,2.146,1.59,3.866,4.767,5.181l4.375,1.786c3.557,1.447,6.159,3.19,7.809,5.271c1.646,2.081,2.471,4.623,2.471,7.626
		c0,4.043-1.342,7.366-4.043,10.009c-2.713,2.658-6.055,3.964-10.082,3.964c-3.807,0-6.938-1.113-9.418-3.384
		c-2.451-2.268-3.975-5.444-4.571-9.523l6.692-1.473c0.306,2.564,0.849,4.343,1.588,5.337c1.373,1.898,3.353,2.845,5.963,2.845
		c2.074,0,3.787-0.692,5.14-2.078c1.373-1.386,2.061-3.123,2.061-5.255c0-0.844-0.121-1.617-0.364-2.345
		c-0.242-0.706-0.615-1.351-1.115-1.94c-0.486-0.607-1.15-1.169-1.935-1.686c-0.805-0.516-1.754-1.017-2.846-1.48l-4.236-1.765
		c-5.991-2.536-8.985-6.236-8.985-11.119c0-3.292,1.262-6.038,3.766-8.254c2.525-2.227,5.65-3.353,9.396-3.353
		C507.77,260.94,511.713,263.399,514.557,268.296"/>
	<path clip-path="url(#SVGID_2_)" fill="#898A8D" d="M418.256,68.912c-1.955-1.952-12.498-10.116-26.055-1.952
		c-3.324-2.637-8.853-8.703-17.994-7.882h-0.185c2.873,3.364,4.726,7.821,4.726,12.6c0,6.761-3.463,12.674-8.724,16.096h15.22
		C393.569,76.419,409.201,70.199,418.256,68.912"/>
	<path clip-path="url(#SVGID_2_)" fill="#898A8D" d="M284.213,102.446h95.458c0.084-2.289,0.409-4.522,1.034-6.599H283.17
		C283.806,97.924,284.119,100.157,284.213,102.446"/>
	<path clip-path="url(#SVGID_2_)" fill="#898A8D" d="M285.106,71.68c0-4.785,1.891-9.237,4.762-12.614h-0.19
		c-9.126-0.812-14.662,5.258-17.998,7.891c-13.556-8.163-24.092,0-26.036,1.958c9.039,1.282,24.67,7.504,33.007,18.86h15.205
		C288.596,84.354,285.106,78.437,285.106,71.68"/>
	<path clip-path="url(#SVGID_2_)" fill="#898A8D" d="M295.615,117.906h72.649c4.574,0,8.506-2.729,10.334-6.589h-93.337
		C287.092,115.22,291.035,117.906,295.615,117.906"/>
	<path clip-path="url(#SVGID_2_)" fill="#898A8D" d="M350.602,86.185c-6.895,0-10.332-3.456-10.332-10.369l-0.094-25.998
		c3.268-1.146,6.233-1.48,8.858-1.27c6.666,0.107,12.119,1.819,16.31,4v-9.783c-37.756-3.825-66.84,0-66.84,0v9.602
		c3.82-2.005,8.689-3.563,15.04-3.682c2.944-0.426,6.312-0.197,10.123,1.135l-0.064,25.996c0,6.913-3.456,10.369-10.358,10.369
		h-34.593v1.59h106.561v-1.59H350.602z"/>
	<path clip-path="url(#SVGID_2_)" fill="#898A8D" d="M365.344,40.447l-0.119,0.005h0.359c0,0-8.037-14.998-24.301-9.309
		c-0.06-2.074-0.261-13.668-9.201-20.837h-0.015c-8.945,7.169-9.145,18.763-9.219,20.837c-16.073-5.611-24.073,8.931-24.266,9.287
		C300.046,40.243,328.574,36.719,365.344,40.447"/>
	<polygon clip-path="url(#SVGID_2_)" fill="#898A8D" points="298.567,40.45 298.566,40.453 298.628,40.453 	"/>
</g>
</svg>
