<?xml version="1.0" encoding="utf-8"?>
<!-- Generator: Adobe Illustrator 25.1.0, SVG Export Plug-In . SVG Version: 6.00 Build 0)  -->
<svg version="1.1" id="Layer_1" xmlns="http://www.w3.org/2000/svg" xmlns:xlink="http://www.w3.org/1999/xlink" x="0px" y="0px"
	 viewBox="0 0 1000 1000" style="enable-background:new 0 0 1000 1000;" xml:space="preserve">
<style type="text/css">
	.st0{fill:#1C355E;}
</style>
<path class="st0" d="M503.2,20.4c28.7,24.3,57.5,48.5,86.3,72.8c18.5,15.5,37,31,55.6,46.4c2.9,2.4,5.9,4.6,10.2,8
	c0-22.7,0-43.4,0-65c31.2,0,61.6,0,92.8,0c0,9.7,0,19.8,0,30.7c-20.1,0-39.9,0-60.9,0c0,20.1-0.1,39.3,0.1,58.5
	c0,1.9,1.7,4.2,3.2,5.5c28.8,24.2,57.7,48.3,88.2,73.7c0-57.2,0-112.6,0-168.6c11,0,20.8,0,32,0c0,3.6,0,7,0,10.5
	c0,57,0.3,113.9-0.2,170.9c-0.1,9.9,2.5,16.4,10.4,22.7c29.1,23.4,57.5,47.6,86.1,71.6c1.9,1.6,3.7,3.4,6.6,6.1
	c-6.7,8-13.2,15.7-20.4,24.2c-17.2-14.3-33.6-27.9-51.5-42.8c0,54.9,0,107.8,0,161.3c-10.7,0-20.5,0-31.7,0c0-4.5,0-8.9,0-13.3
	c0-55.4,0.1-110.7-0.2-166.1c0-4.4-2.2-10.2-5.4-12.9c-97.9-82.1-196.1-163.8-293.9-245.9c-7.3-6.1-11.2-5.7-18.3,0.2
	c-97.6,81.9-195.5,163.4-293.2,245.3c-3,2.5-6,7.1-6,10.7c-0.3,113-0.2,225.9-0.2,338.9c0,1.3,0.2,2.5,0.5,5c20.1,0,40.1,0,60.7,0
	c0,11,0,20.8,0,31.3c-82.2,0-164.1,0-246.7,0c0-10,0-19.8,0-30.8c50.9,0,101.9,0,153.3,0c0-108,0-214.7,0-323.2
	c-17.2,14.3-33.6,27.9-51.1,42.4c-6.9-8.2-13.3-15.9-20.5-24.5c10.5-8.8,20.3-17,30.1-25.2C244.1,234.2,369.4,129.6,494.6,25.1
	c1.7-1.4,3.1-3.2,4.7-4.7C500.6,20.4,501.9,20.4,503.2,20.4z"/>
<path class="st0" d="M308.1,995.8c-13.1-5.2-26.2-10.6-39.4-15.4c-3.8-1.4-8.1-1.5-12.2-1.5c-79.5-0.1-159,0-238.5,0
	c-3.5,0-6.9,0-10.9,0c0-10.8,0-20.6,0-31.2c3.4-0.2,6.5-0.5,9.6-0.5c83,0,166.1-0.1,249.1,0.1c4.4,0,9.1,0.6,13,2.4
	c44.5,21,91.4,29.9,140.4,28.4c11.3-0.3,22.5,0.1,33.8-0.1c9.7-0.2,16.8-6.8,16.9-15c0-8.2-7.2-14.8-16.8-15.1
	c-4.8-0.2-9.7,0-14.5,0c-4.5,0-8.9,0-14.2,0c0-10.4,0-20.2,0-31.6c4.6,0,9.6,0,14.6,0c15.1,0,30.3,0.2,45.4-0.1
	c9.2-0.2,16-6.6,16.4-14.5c0.3-8.2-6.7-15.3-16.3-15.5c-16.4-0.3-32.8-0.1-49.2-0.1c-3.5,0-6.9,0-11,0c0-10.8,0-20.6,0-31.6
	c12.7,0,25.2,0,37.6,0c6.4,0,12.9,0,19.3,0c12-0.1,19.7-6.1,19.6-15.2c-0.1-9.1-7.7-14.9-19.8-14.9c-18-0.1-36-0.1-54.1-0.2
	c-0.6,0-1.2-0.3-2.5-0.8c0-9.6,0-19.3,0-30.7c3.9,0,8,0,12,0c55.4,0,110.7,0,166.1,0c2.6,0,5.2,0.2,7.7-0.2
	c8.3-1.3,13.4-6.1,14.2-14.6c0.6-7.1-5.7-14-13.6-15.2c-3.2-0.5-6.4-0.2-9.6-0.2c-75.6,0-151.3,0-226.9,0c-3.8,0-7.5,0-11.8,0
	c0-10.9,0-20.7,0-31.7c3.9,0,7.4,0,10.8,0c78.5,0,157.1,0,235.6,0c26.8,0,47.4,20.5,47.4,46.8c0,26.3-20.6,46.6-47.5,46.6
	c-25.7,0.1-51.4,0-77,0c0,8.8,1.1,16.9-0.3,24.5c-1.4,7.3-5.5,14.2-8.6,21.9c19.6,27.8,10.3,61.9-23.2,75.8
	c5.4,17.8,1.1,34.3-9.8,49.3C429.1,995.8,368.6,995.8,308.1,995.8z"/>
<path class="st0" d="M841.6,669.1c52.1,0,102.6,0,153.8,0c0,10.3,0,20.1,0,31.2c-50.8,0-101.7,0-153.5,0c0,62.2,0,123.2,0,185
	c-93.1,0-185.2,0-278.3,0c0-9.7,0-19.8,0-30.7c81.8,0,163.4,0,245.9,0c0.2-3.9,0.5-7,0.5-10.1c0-84,0-168,0.2-252
	c0-6.7-2-11.2-6.7-15.9c-36.4-36-72.5-72.3-108.6-108.4c-2.5-2.5-5-4.8-7.9-7.5c-2.7,2.5-5.1,4.6-7.3,6.8
	C643,503.9,606.7,540.5,570,576.6c-5.1,5-6.8,10-6.8,16.9c0.3,32.8,0.1,65.6,0.1,98.5c0,3.5,0,7,0,11.2c-10.5,0-20.3,0-31,0
	c-0.2-3.1-0.6-6.2-0.6-9.3c0-38.6-0.2-77.2,0.2-115.8c0.1-4.8,2.6-10.6,5.9-14c41.8-42.4,83.9-84.5,126.2-126.3
	c5-5,6.9-9.9,6.8-16.9c-0.4-19.9-0.1-39.8-0.1-60.2c10.7,0,20.5,0,31.7,0c0,16.8,1,33.5-0.3,49.9c-1.2,14.4,3.6,24.3,13.9,34.3
	c40.2,39,79.3,79,119.1,118.4c4.7,4.7,6.6,9.4,6.5,16c-0.4,26.4-0.2,52.8-0.2,79.2C841.6,661.6,841.6,664.8,841.6,669.1z"/>
<path class="st0" d="M223.1,622.7c0-72,0-143.3,0-215.6c82.2,0,164.3,0,247,0c0,71.7,0,143.3,0,215.6
	C388,622.7,306.1,622.7,223.1,622.7z M330.4,438.4c-25.8,0-50.4,0-75.4,0c0,21.2,0,41.9,0,62.7c25.5,0,50.3,0,75.4,0
	C330.4,479.9,330.4,459.5,330.4,438.4z M363.1,438.3c0,21.5,0,42,0,62.9c25.4,0,50.2,0,75.3,0c0-21.3,0-42,0-62.9
	C413,438.3,388.4,438.3,363.1,438.3z M330.3,591.2c0-19.3,0-37.8,0-56.7c-25.4,0-50.2,0-75.4,0c0,19.2,0,37.7,0,56.7
	C280.1,591.2,304.7,591.2,330.3,591.2z M438.5,534.5c-25.4,0-50.2,0-75.1,0c0,19.4,0,38.1,0,56.6c25.5,0,50.1,0,75.1,0
	C438.5,572,438.5,553.5,438.5,534.5z"/>
<path class="st0" d="M501.6,190c51.9,0.3,93,41.9,92.7,93.7c-0.3,51.7-42,92.8-93.9,92.5c-51.6-0.3-92.5-42.1-92.3-94.2
	C408.4,230.9,450.3,189.7,501.6,190z M484.6,266.7c0-14.7,0-28.3,0-42.7c-21.8,7.4-35.4,21-42.4,42.7
	C457,266.7,470.7,266.7,484.6,266.7z M517.6,224c0,15,0,28.6,0,42.7c14.2,0,27.8,0,42.7,0C553.1,245.2,539.6,231.3,517.6,224z
	 M484.9,342.1c0-15,0-28.6,0-42.7c-14.2,0-27.8,0-42.6,0C449.2,321,462.9,334.6,484.9,342.1z M560.1,299.5c-15,0-28.7,0-42.6,0
	c0,14.2,0,27.8,0,42.5C539.3,335,552.9,321.3,560.1,299.5z"/>
<path class="st0" d="M6.8,761.9c0-10.4,0-20,0-31.1c3.9,0,7.6,0,11.3,0c78.2,0,156.4-0.1,234.6,0.1c7.8,0,14.1-1.9,20.2-6.8
	c15.4-12.1,31.3-23.7,47.1-35.4c2.5-1.8,5.5-4.1,8.4-4.1c34.1-0.3,68.1-0.2,102.9-0.2c0,10.4,0,20.2,0,31.6c-3.2,0-6.6,0-10,0
	c-24.8,0-49.6-0.4-74.3,0.3c-6.2,0.2-13.1,2.7-18.2,6.2c-16.4,11.4-32,23.9-48.1,35.6c-3.1,2.3-7.5,4.2-11.3,4.2
	c-85.6,0.2-171.2,0.2-256.9,0.1C11,762.4,9.4,762.2,6.8,761.9z"/>
<path class="st0" d="M733.4,577.3c-0.2,25.8-21.1,46.1-47.1,46c-26-0.1-46.7-21.5-46.3-47.9c0.4-25.7,21.4-45.8,47.6-45.5
	C713.2,530.2,733.6,551.3,733.4,577.3z M701.7,576.8c0.1-7.5-7.1-14.9-14.7-15.1c-8-0.2-15.6,7.3-15.4,15.4
	c0.2,7.6,7.6,14.7,15.1,14.7C694.4,591.6,701.6,584.4,701.7,576.8z"/>
<path class="st0" d="M687,762.1c10.2,0,19.7,0,30.1,0c0,10,0,20,0,30.6c-9.9,0-19.7,0-30.1,0C687,782.8,687,773,687,762.1z"/>
<path class="st0" d="M748.6,792.6c0-10.1,0-19.9,0-30.3c10.2,0,20,0,30.4,0c0,10,0,19.7,0,30.3C769.4,792.6,759.6,792.6,748.6,792.6
	z"/>
</svg>
